<svg width="18" height="12" fill="none" xmlns="http://www.w3.org/2000/svg"><g clip-path="url(#clip0)"><path d="M17.905 0H0v12h17.905V0z" fill="#D80027"/><path d="M17.905 8.381H0V12h17.905V8.381z" fill="#027A02"/><path d="M17.905 4.19H0v3.62h17.905V4.19z" fill="#F0F0F0"/><path d="M17.905 0H0v3.619h17.905V0z" fill="#0286CE"/><path d="M1.262 1.815c0-.562.393-1.032.918-1.147A1.166 1.166 0 00.762 1.815 1.171 1.171 0 002.18 2.963a1.174 1.174 0 01-.918-1.148zM2.87 2.35l.079.244h.256l-.207.152.079.244-.207-.15-.207.15.079-.244-.207-.152h.256l.079-.245zM3.686 2.35l.08.244h.255l-.207.152.08.244-.208-.15-.207.15.08-.244-.207-.152h.255l.08-.245zM4.503 2.35l.079.244h.256l-.207.152.079.244-.207-.15-.207.15.079-.244-.207-.152h.256l.079-.245zM5.32 2.35l.078.244h.256l-.207.152.08.244-.208-.15-.207.15.08-.244-.208-.152h.256l.08-.245zM6.136 2.35l.079.244h.256l-.207.152.079.244-.207-.15-.207.15.079-.244-.207-.152h.256l.079-.245zM3.686 1.495l.08.245h.255l-.207.151.08.245-.208-.151-.207.15.08-.244-.207-.151h.255l.08-.245zM4.503 1.495l.079.245h.256l-.207.151.079.245-.207-.151-.207.15.079-.244-.207-.151h.256l.079-.245zM5.32 1.495l.078.245h.256l-.207.151.08.245-.208-.151-.207.15.08-.244-.208-.151h.256l.08-.245zM6.136 1.495l.079.245h.256l-.207.151.079.245-.207-.151-.207.15.079-.244L5.8 1.74h.256l.079-.245zM4.503.64l.079.245h.256l-.207.151.079.245-.207-.151-.207.151.079-.245-.207-.15h.256L4.503.64zM5.32.64l.078.245h.256l-.207.151.08.245-.208-.151-.207.151.08-.245-.208-.15h.256L5.32.64zM6.136.64l.079.245h.256l-.207.151.079.245-.207-.151-.207.151.079-.245L5.8.886h.256L6.136.64z" fill="#F0F0F0"/></g><defs><clipPath id="clip0"><path fill="#fff" d="M0 0h17.905v12H0z"/></clipPath></defs></svg>