<svg width="18" height="12" fill="none" xmlns="http://www.w3.org/2000/svg"><g clip-path="url(#clip0)"><path d="M17.409 12H.305C.137 12 0 11.855 0 11.676V8.762h17.714v2.914c0 .18-.136.324-.305.324z" fill="#049701"/><path d="M17.409 0H.305A.31.31 0 000 .313v8.449h17.714V.312A.31.31 0 0017.41 0z" fill="#E91D13"/><path d="M2.476 12H.31a.313.313 0 01-.31-.316V.316C0 .14.139 0 .31 0h2.166v12z" fill="#F5F5F5"/><path d="M.381 11.6h.101v-.315H.381v.315zm.807 0h.1v-.315h-.1v.315zm.807 0h.1v-.315h-.1v.315zm-1.21-.844h.1v-.262h-.1v.262zm.807 0h.1v-.262h-.1v.262zM.38 10.072h.101v-.315H.381v.315zm.807 0h.1v-.315h-.1v.315zm.807 0h.1v-.315h-.1v.315zm-1.411.422h.1v-.265h.1v-.262h.1v.262h.102v.265h.1v.262h-.1v.264H.885v.265h-.1v-.264H.684v-.265h-.1v-.262zm.806 0h.101v-.265h.1v-.262h.101v.262h.101v.265h.101v.262h-.101v.264h-.1v.265h-.101v-.264h-.1v-.265H1.39v-.262zm.202-1.054v.263H1.49v.264h-.1v.262H1.29v.265h-.101v-.265h-.102v-.262h-.1v-.264H.885V9.44h-.1v.263H.684v.264h-.1v.262H.482v.265H.381v.262h.101v.265h.102v.264h.1v.262h.1v.263h.102v-.263h.1v-.262h.1v-.264h.102v-.265h.1v.265h.102v.264h.101v.262h.1v.263h.101v-.263h.101v-.262h.101v-.264h.101v-.265h.1v-.262h-.1v-.265h-.1v-.262h-.102v-.264h-.1V9.44h-.101zm.25-.262h.05v-.105h.05v.105h.052v.105h-.051v.107h-.051v-.107h-.05v-.105zm0-.367v.155h-.05v.16h-.05v.21h.05v.157h.05v.157h.152v-.157h.05v-.157h.05v-.21h-.05v-.16h-.05v-.155h-.152zm-1.36.365h.05V9.07h.052v.105h.049v.107h-.05v.105h-.05v-.105H.482v-.107zm0-.367v.157h-.05v.157H.38v.212h.05v.158h.051v.157h.15v-.157h.052v-.158h.049v-.212h-.05v-.157h-.05V8.81H.482zm.555.367h.05V9.07h.05v.105h.05v.107h-.05v.105h-.05v-.105h-.05v-.107zm.252 0h.05V9.07h.051v.105h.05v.107h-.05v.105h-.05v-.105h-.051v-.107zm0-.367v.157h-.101V8.81h-.151v.157h-.05v.157H.935v.212h.05v.158h.05v.157h.152v-.157h.1v.157h.152v-.157h.051v-.158h.05v-.212h-.05v-.157H1.44V8.81h-.151zM.38 8.702h.101v-.315H.381v.315zm.807 0h.1v-.315h-.1v.315zm.807 0h.1v-.315h-.1v.315zM.38 7.386h.101v-.21H.381v.21zm1.614 0h.1v-.21h-.1v.21zm-.807-.737h.1v-.262h-.1v.262zM.38 5.938v.317h.101v-.317H.381zm.555 0v.317h.1v-.317h-.1zm.504 0v.317h.1v-.317h-.1zm.555 0v.317h.1v-.317h-.1zm-.656-.185v.105h-.05v.08h-.101v-.08h-.05v-.105h-.101v.158h.05v.08h.05V6.2h-.05v.08h-.05v.157h.1v-.105h.05v-.077h.102v.077h.05v.105h.101V6.28h-.05V6.2h-.05v-.21h.05v-.08h.05v-.157h-.1zm-.151.053h.1v-.263h-.1v.263zm-.807-.79h.101v-.21H.381v.21zm1.614 0h.1v-.21h-.1v.21zM.38 3.807h.101v-.317H.381v.317zm.807 0h.1v-.317h-.1v.317zm.807 0h.1v-.317h-.1v.317zM.785 6.1v-.11h.1v-.182h.101v-.212h.152v-.249h.05v-.12h.1v.118h.051v.25h.152v.213h.1v.182h.101v.21h-.1v.187h-.1v.21h-.153v.248h-.05v.119h-.101v-.119h-.05v-.248H.986v-.21H.885V6.2h-.1v-.1zm.807-2.928v.264H1.49V3.7h-.1v.264H1.29v.263h-.101v-.263h-.102V3.7h-.1v-.263H.885v-.264h-.1v.264H.684V3.7H.583v.264H.482v.262H.381v.265h.101v.264h.1v.263h.102v.262h.1v-.262h.1v-.263h.102V4.49H.885v-.317h.101v.212h.1v.422h.052v.26l-.152.002v.21H.885v.157h-.1v.265H.684v-.265H.583V5.28H.482v-.157H.381v.474h.101v.212h.1v.182h.102v.21H.583v.187H.482v.21H.381v.474h.101v-.16h.1v-.157h.102v-.262h.1v.262h.1v.158h.102v.212l.152.002v.26h-.052v.422h-.1v.212H.885V7.7h.101v-.262H.885v-.262h-.1v-.265H.684v.265H.583v.262H.482v.263H.381v.264h.101v.262h.102v.265h.1v.264h.1v.263h.1v-.263h.102v-.264h.1v-.265h.102v-.262h.1v.262h.102v.265h.101v.264h.1v.263h.101v-.263h.101v-.264h.101v-.265h.1v-.262h.101v-.264h-.1v-.263h-.1v-.262h-.102v-.265h-.1v.265h-.101v.262H1.49v.263h.102v.319H1.49v-.212h-.1v-.422H1.34v-.262h.152v-.212h.1v-.158h.101v-.262h.101v.262h.101v.158h.101v.16h.1v-.475h-.1v-.21h-.1V6.2h-.102v-.21h.101v-.182h.101v-.212h.1v-.474h-.1v.157h-.1v.157h-.102v.265h-.1v-.265h-.101V5.28h-.1v-.21h-.153v-.262h.051v-.422h.1v-.212h.102v.317H1.49v.264h.102v.263h.1v.262h.101v-.262h.101v-.263h.1V4.49h.101v-.265h-.1v-.262h-.1V3.7h-.102v-.263h-.1v-.264h-.101zM.482 2.91h.05v-.105h.052v.105h.049v.105h-.05v.107H.533v-.107h-.05V2.91zm0-.212h-.05v.16H.38v.21h.05v.159h.051v.157h.15v-.157h.052v-.16h.049v-.21h-.05v-.16h-.05v-.154H.482v.155zm.555.212h.05v-.105h.05v.105h.05v.105h-.05v.107h-.05v-.107h-.05V2.91zm.252 0h.05v-.105h.051v.105h.05v.105h-.05v.107h-.05v-.107h-.051V2.91zm-.252-.212h-.05v.16H.935v.21h.05v.159h.05v.157h.151v-.157h.102v.157h.15v-.157h.052v-.16h.05v-.21h-.05v-.16H1.44v-.154h-.151v.155h-.102v-.155h-.15v.155zm.805.21h.05v-.103h.05v.103h.052v.107h-.051v.105h-.051v-.105h-.05v-.107zm0-.368v.158h-.05v.16h-.05v.21h.05v.156h.05v.158h.152v-.158h.05v-.157h.05v-.21h-.05v-.16h-.05V2.54h-.152zM.38 2.436h.101V2.12H.381v.315zm.807 0h.1V2.12h-.1v.315zm.807 0h.1V2.12h-.1v.315zm-1.21-.737h.1v-.265h-.1V1.7zm.807 0h.1v-.265h-.1V1.7zM.38.908h.101V.593H.381v.315zm.807 0h.1V.593h-.1v.315zm.807 0h.1V.593h-.1v.315zm-1.411.526h.1v-.262h.1V.908h.1v.264h.102v.262h.1V1.7h-.1v.262H.885v.265h-.1V1.96H.684V1.7h-.1v-.265zm.806 0h.101v-.262h.1V.908h.101v.264h.101v.262h.101V1.7h-.101v.262h-.1v.265h-.101V1.96h-.1V1.7H1.39v-.265zM1.592.381v.265h-.1v.262H1.39v.264H1.29v.263h-.102v-.263h-.1V.908h-.1V.646H.885V.38H.785v.265H.684v.262h-.1v.264H.482v.263H.381v.264h.101v.262h.102v.265h.1v.264h.1v.262h.1V2.49h.102v-.264h.1V1.96h.102V1.7h.1v.262h.102v.265h.1v.264h.102v.262h.1V2.49h.101v-.264h.101V1.96h.1V1.7h.101v-.264h-.1v-.263h-.101V.908h-.101V.646h-.1V.38h-.101z" fill="#E91D13"/></g><defs><clipPath id="clip0"><path fill="#fff" d="M0 0h17.714v12H0z"/></clipPath></defs></svg>