<svg width="121" height="84" viewBox="0 0 121 84" fill="none" xmlns="http://www.w3.org/2000/svg">
<path fill-rule="evenodd" clip-rule="evenodd" d="M0.949772 2.45375C0.967095 1.09359 2.08144 0 3.4501 0H114.034C115.398 0 116.51 1.08565 116.534 2.44057L116.544 2.98225H118.499C119.88 2.98225 121 4.09492 121 5.46746V77.0414C121 78.414 119.88 79.5266 118.499 79.5266H117.928L117.963 81.4702C117.988 82.8599 116.861 84 115.463 84H105.994C105.719 84 105.497 83.7775 105.497 83.503C105.497 83.2285 105.719 83.0059 105.994 83.0059H115.463C116.302 83.0059 116.978 82.3219 116.963 81.488L116.927 79.5266H2.50053C1.10715 79.5266 -0.0174317 78.3947 0.000204637 77.01L0.949772 2.45375ZM117.91 78.5325H118.499C119.328 78.5325 120 77.8649 120 77.0414V5.46746C120 4.64393 119.328 3.97633 118.499 3.97633H116.562L117.91 78.5325ZM115.562 3.97633L116.909 78.5325H2.50053C1.6645 78.5325 0.989753 77.8534 1.00033 77.0226L1.9499 2.46633C1.9603 1.65024 2.6289 0.994083 3.4501 0.994083H114.034C114.852 0.994083 115.52 1.64547 115.534 2.45843L115.544 2.98225H6.47589C5.09489 2.98225 3.97536 4.09491 3.97536 5.46746V72.568C3.97536 73.9406 5.09489 75.0533 6.47589 75.0533H99.4955C101.981 75.0533 103.996 73.0505 103.996 70.5799V66.6036C103.996 64.133 101.981 62.1302 99.4955 62.1302H24.1199C23.2288 62.1302 22.628 61.2246 22.979 60.4106C23.1774 59.9505 23.6357 59.6552 24.1393 59.663L48.977 60.0488C50.8666 60.0781 52.143 59.7252 52.7907 58.9305C53.4657 58.1025 53.2937 57.0184 52.8709 56.0399C52.4379 55.0376 51.6698 53.9653 50.841 52.9801C50.0072 51.9888 49.0886 51.0585 48.3299 50.3387C41.961 44.2965 39.9521 37.312 40.7676 30.9664C41.5852 24.6038 45.2466 18.8533 50.274 15.317C57.3615 10.3315 66.0881 11.5616 72.6814 16.2008C79.2782 20.8425 83.6272 28.8225 82.0009 37.1838C80.8872 42.9094 77.019 47.76 72.1883 50.8844C67.3522 54.0123 61.6229 55.3651 56.8401 54.192C55.558 53.8775 54.8855 53.033 54.519 52.0538C54.1445 51.0532 54.1057 49.9449 54.1057 49.2071V49.1993L54.1055 49.1916C53.8864 42.2363 54.2879 27.4852 54.4351 22.5393C54.4459 22.174 54.8468 21.9441 55.1818 22.1365L74.8104 33.408C75.1357 33.5948 75.1453 34.0581 74.828 34.2581L56.1421 46.0352C55.9085 46.1824 55.8393 46.4915 55.9878 46.7242C56.1351 46.9551 56.4413 47.0237 56.673 46.8776L75.3637 35.0976C76.3156 34.4977 76.2868 33.1077 75.3108 32.5473L55.6822 21.2758C54.7084 20.7166 53.4691 21.3735 53.4353 22.5099C53.2885 27.4424 52.8858 42.2194 53.1055 49.2149C53.1057 49.9692 53.142 51.226 53.5816 52.4004C54.0306 53.6001 54.9155 54.7438 56.6005 55.1571C61.7204 56.413 67.7322 54.9526 72.7339 51.7176C77.7409 48.4791 81.8072 43.4169 82.9829 37.3724C84.7002 28.5438 80.0999 20.2026 73.2593 15.3894C66.4153 10.5738 57.2167 9.21545 49.6961 14.5055C44.4497 18.196 40.63 24.1905 39.7754 30.8405C38.9187 37.5075 41.0465 44.8032 47.6393 51.0578C48.3809 51.7613 49.2714 52.6639 50.0737 53.6177C50.881 54.5775 51.5761 55.5623 51.9519 56.4321C52.3379 57.3257 52.3202 57.9285 52.0135 58.3048C51.6796 58.7145 50.8384 59.0835 48.9927 59.0548L24.1549 58.6691C23.2456 58.655 22.4179 59.1883 22.0597 60.019C21.4258 61.489 22.5107 63.1243 24.1199 63.1243H99.4955C101.429 63.1243 102.996 64.682 102.996 66.6036V70.5799C102.996 72.5014 101.429 74.0592 99.4955 74.0592H6.47589C5.64729 74.0592 4.97557 73.3916 4.97557 72.568V5.46746C4.97557 4.64393 5.64729 3.97633 6.47589 3.97633H115.562Z" fill="#C7000B"/>
</svg>
