<svg width="105" height="100" viewBox="0 0 105 100" fill="none" xmlns="http://www.w3.org/2000/svg">
<path fill-rule="evenodd" clip-rule="evenodd" d="M22.2013 7.53601C24.3513 1.59449 30.8831 -1.46899 36.7904 0.693544L36.7938 0.694809L83.151 18.2204C83.499 18.352 83.4842 18.8493 83.1289 18.9599C83.0454 18.9859 82.9556 18.9831 82.8737 18.952L36.5503 1.35704L36.5484 1.35637C31.006 -0.671498 24.8782 2.20303 22.8609 7.7775L1.34922 67.2231C-0.668252 72.7982 2.18971 78.9627 7.73266 80.9918L7.74222 80.9953L7.75157 80.9994L8.07327 81.1383C8.32276 81.246 8.74917 81.4298 9.45673 81.7345C10.8718 82.3438 13.4114 83.4363 17.9092 85.3694C22.8593 87.4969 26.2167 90.2813 28.2504 92.3803C29.0569 93.2128 29.6555 93.9376 30.0629 94.4713C30.7552 95.2245 31.6024 96.0562 32.5583 96.8144C34.2973 98.1935 36.3514 99.2939 38.4599 99.2939H93.6175C99.5162 99.2939 104.298 94.4844 104.298 88.5515V33.0741C104.298 27.1413 99.5162 22.3317 93.6175 22.3317H38.4599C32.5613 22.3317 27.7794 27.1413 27.7794 33.0741V74.43C27.7795 79.5874 28.1552 83.1244 28.7094 85.3742C28.987 86.5009 29.3043 87.2833 29.6266 87.7819C29.9524 88.2856 30.2442 88.4434 30.4607 88.4581C30.6775 88.4728 30.9555 88.3531 31.2752 87.9776C31.5905 87.6072 31.9018 87.0357 32.1759 86.2836C32.7228 84.7833 33.0946 82.6392 33.0946 80.1648V42.2988C33.0946 35.3266 38.9078 29.6951 46.0531 29.6951H85.0215C92.1668 29.6951 97.98 35.3266 97.98 42.2988V80.1648C97.98 81.4331 97.7238 83.3473 97.3086 85.1803C96.8958 87.0025 96.3117 88.8092 95.6276 89.8287C95.5525 89.9407 95.4244 90.0082 95.2831 89.9988C95.1763 89.9916 95.0976 89.9425 95.0607 89.9169C94.9808 89.8613 94.9083 89.7794 94.8491 89.7056C94.7222 89.5475 94.5618 89.3047 94.3755 88.9989C93.9997 88.382 93.4878 87.4571 92.8768 86.306C91.6535 84.0014 90.0204 80.7663 88.2597 77.2173C85.7689 72.1969 83.0189 66.541 80.807 61.9918C79.8916 60.1092 79.0684 58.4161 78.3938 57.036C77.8082 55.8378 76.0959 55.7872 75.4097 56.9596C74.1998 59.0268 72.57 61.7543 70.7501 64.8C69.5275 66.8459 68.2192 69.0353 66.8948 71.2647L79.402 84.2545C81.465 86.3972 79.9606 90.0376 76.9981 90.0896C71.5727 90.1847 64.5429 90.2866 59.076 90.1195C57.3639 90.0672 56.3289 88.2443 57.1521 86.734C59.5748 82.2891 62.9764 76.4839 66.2771 70.9277L65.9802 71.2327L60.7789 66.1084L60.7763 66.1059C59.7748 65.0986 58.9644 64.3511 58.2611 63.8609C57.5577 63.3705 57.0002 63.1653 56.4989 63.1825C56.0032 63.1995 55.4922 63.4367 54.8863 63.9894C54.2773 64.5448 53.604 65.39 52.7877 66.563L52.785 66.5669C48.2236 73.121 42.2531 81.6997 37.234 88.2624C37.1158 88.4169 36.8954 88.4459 36.7417 88.327C36.5881 88.2081 36.5593 87.9864 36.6775 87.8319C41.6861 81.283 47.6483 72.7163 52.2126 66.1581C53.0348 64.9768 53.7448 64.0774 54.4147 63.4664C55.0874 62.8527 55.7506 62.5016 56.4749 62.4768C57.1936 62.4521 57.9021 62.7515 58.661 63.2806C59.4198 63.8095 60.2677 64.5958 61.2714 65.6053L61.2727 65.6066L66.4237 70.6812C67.708 68.5201 68.9746 66.4004 70.1597 64.4171C71.9762 61.3771 73.6012 58.6578 74.8047 56.6014C75.7616 54.9667 78.1806 54.9994 79.0238 56.7245C79.6995 58.1069 80.5235 59.8016 81.4394 61.6853C83.6509 66.2337 86.3984 71.8843 88.8878 76.9021C90.6481 80.4501 92.2776 83.6779 93.4961 85.9735C94.1059 87.1224 94.6097 88.0319 94.9741 88.63C95.0854 88.8128 95.181 88.9619 95.2606 89.0779C95.7832 88.1253 96.2623 86.621 96.6242 85.0234C97.0327 83.2198 97.278 81.3617 97.278 80.1648V42.2988C97.278 35.7393 91.8021 30.4011 85.0215 30.4011H46.0531C39.2725 30.4011 33.7966 35.7393 33.7966 42.2988V80.1648C33.7966 82.702 33.4164 84.9316 32.835 86.5266C32.5451 87.3222 32.1982 87.9789 31.8084 88.4368C31.4229 88.8897 30.9489 89.1988 30.4135 89.1626C29.8779 89.1263 29.4175 88.7535 29.0382 88.1668C28.6554 87.575 28.3146 86.7073 28.028 85.544C27.4634 83.2518 27.0899 79.7286 27.0778 74.6822L27.0774 33.0741C27.0774 26.7513 32.1736 21.6256 38.4599 21.6256H93.6175C99.9039 21.6256 105 26.7513 105 33.0741V88.5515C105 94.8743 99.9039 100 93.6175 100H38.4599C36.1185 100 33.9105 98.786 32.1237 97.3688C31.4492 96.8339 30.8283 96.2649 30.2757 95.7113C29.888 95.3229 29.6981 95.115 29.5253 94.9265C28.9564 94.306 28.4918 93.7399 28.1552 93.3085L28.1579 93.3064C28.0279 93.1659 27.8912 93.0213 27.7476 92.8731C25.7668 90.8287 22.484 88.1034 17.6333 86.0187C13.1355 84.0856 10.5958 82.993 9.18045 82.3836C8.4728 82.0789 8.04622 81.895 7.79652 81.7872L7.48912 81.6545L7.483 81.6518C1.582 79.4857 -1.45936 72.9199 0.689547 66.9816L22.2013 7.53601ZM66.522 71.8925C63.3386 77.2568 60.0998 82.7947 57.7676 87.0735C57.1962 88.1219 57.9097 89.3775 59.0973 89.4138C64.5448 89.5802 71.558 89.4787 76.9859 89.3836C79.3369 89.3424 80.5317 86.4427 78.8977 84.7457L66.522 71.8925ZM81.5831 39.4792C79.0076 39.4792 76.9198 41.5792 76.9198 44.1696C76.9198 46.76 79.0076 48.86 81.5831 48.86C84.1586 48.86 86.2464 46.76 86.2464 44.1696C86.2464 41.5792 84.1586 39.4792 81.5831 39.4792ZM76.2178 44.1696C76.2178 41.1892 78.6199 38.7732 81.5831 38.7732C84.5463 38.7732 86.9484 41.1892 86.9484 44.1696C86.9484 47.15 84.5463 49.566 81.5831 49.566C78.6199 49.566 76.2178 47.15 76.2178 44.1696ZM48.0809 39.7897C48.5876 39.835 49.0866 40.0753 49.536 40.5163C50.2633 41.2301 50.369 42.1736 50.14 43.007C49.9139 43.8302 49.3534 44.5897 48.6718 45.0091C48.3455 45.2099 47.9365 45.4461 47.4642 45.6847C48.6219 46.6119 50.3256 47.1235 52.0289 46.6812C52.6839 46.5111 53.2245 46.2789 53.6668 46.005C53.1126 45.5594 52.6379 44.8926 52.3033 44.2051C51.9217 43.421 51.689 42.5412 51.7679 41.844C51.8364 41.2382 52.1099 40.7701 52.5029 40.4587C52.8908 40.1515 53.3764 40.0113 53.8551 40.0182C54.8079 40.032 55.8136 40.6373 56.0531 41.8131C56.335 43.1971 56.0799 44.7777 54.8711 45.9564C55.2153 46.162 55.5267 46.3176 55.8728 46.4313C56.3453 46.5866 56.9025 46.6699 57.7149 46.6699C58.3785 46.6699 59.0028 46.569 59.5537 46.377C58.7877 45.7396 58.3566 44.8919 58.1734 43.9923C57.9656 42.972 58.0063 42.1384 58.3417 41.5171C58.6874 40.8768 59.3037 40.5366 60.0697 40.4209C60.8285 40.3063 61.4121 40.6668 61.8012 41.1407C62.1833 41.6062 62.4049 42.207 62.4748 42.688C62.6135 43.6409 62.4688 44.478 62.0969 45.1741C61.8307 45.6722 61.4543 46.0869 61.0012 46.4166C61.8417 46.7496 62.9795 46.8943 64.495 46.722C64.6876 46.7001 64.8614 46.8394 64.8832 47.0331C64.905 47.2269 64.7665 47.4017 64.5739 47.4236C62.7051 47.6361 61.2919 47.4006 60.2611 46.8506C59.5118 47.2003 58.635 47.376 57.7149 47.376C56.8543 47.376 56.2186 47.2877 55.6548 47.1025C55.1663 46.942 54.7469 46.7134 54.298 46.432C53.7394 46.827 53.0463 47.1462 52.2044 47.3648C50.1353 47.9021 48.0795 47.2056 46.7672 46.0157C45.5575 46.5528 44.0446 47.0306 42.4714 47.0306C42.2775 47.0306 42.1204 46.8726 42.1204 46.6776C42.1204 46.4826 42.2775 46.3246 42.4714 46.3246C43.8157 46.3246 45.1354 45.9414 46.2477 45.4719C45.6813 44.7834 45.3296 43.971 45.3296 43.1339C45.3296 41.8579 45.8699 40.7541 46.6833 40.1838C47.0931 39.8965 47.575 39.7445 48.0809 39.7897ZM46.9156 45.1693C47.4662 44.9028 47.9396 44.6319 48.3054 44.4068C48.8272 44.0858 49.2821 43.4786 49.4634 42.8189C49.6418 42.1693 49.5469 41.5136 49.0457 41.0217C48.6929 40.6754 48.3394 40.5217 48.0187 40.493C47.6973 40.4643 47.3769 40.5582 47.0847 40.763C46.4941 41.1772 46.0316 42.0432 46.0316 43.1339C46.0316 43.8244 46.3498 44.5427 46.9156 45.1693ZM60.2839 46.0438C60.8036 45.7411 61.2134 45.3361 61.4785 44.8398C61.7714 44.2916 61.8995 43.6103 61.7802 42.7902C61.7258 42.4161 61.5479 41.9412 61.2599 41.5903C60.9789 41.248 60.6218 41.0515 60.174 41.1192C59.5562 41.2125 59.1697 41.4632 58.9587 41.854C58.7375 42.2637 58.6677 42.9013 58.8611 43.8506C59.0387 44.7228 59.4787 45.5058 60.2839 46.0438ZM54.2568 45.5665C55.3673 44.5751 55.6195 43.2027 55.3653 41.9548C55.2037 41.1609 54.5298 40.7341 53.845 40.7242C53.505 40.7193 53.1822 40.8195 52.9373 41.0135C52.6975 41.2034 52.5136 41.4975 52.4654 41.9238C52.4078 42.4324 52.5812 43.1701 52.9338 43.8946C53.2758 44.5973 53.7549 45.2224 54.2568 45.5665Z" fill="#C7000B"/>
</svg>
