<svg width="124" height="91" viewBox="0 0 124 91" fill="none" xmlns="http://www.w3.org/2000/svg">
<path fill-rule="evenodd" clip-rule="evenodd" d="M5.58887 7.35456C5.5994 8.01894 5.59537 8.73798 5.57523 9.51503C5.39438 16.4927 5.13373 23.6361 4.87068 30.8451C4.17067 50.0294 3.45373 69.6778 4.17879 87.9016C4.20006 88.4362 4.27583 88.7465 4.36752 88.928C4.44521 89.0819 4.53781 89.1531 4.67711 89.2001C4.84808 89.2577 5.09146 89.2778 5.46714 89.273C5.5951 89.2714 5.75191 89.2662 5.92451 89.2605C6.19337 89.2516 6.50053 89.2415 6.79653 89.2415C10.0034 89.2415 13.2074 89.242 16.4092 89.2426C45.8989 89.2474 75.1954 89.2523 104.78 88.8421C105.082 88.8379 105.372 88.8359 105.65 88.834C106.17 88.8305 106.648 88.8272 107.095 88.8102C107.777 88.7842 108.332 88.7269 108.768 88.6026C109.198 88.4803 109.477 88.3038 109.656 88.063C109.837 87.8201 109.964 87.448 109.964 86.8428C109.964 85.3128 110.158 80.7687 110.404 74.9777C110.606 70.2147 110.844 64.6081 111.04 59.1411C111.217 54.2095 111.36 49.3871 111.412 45.3852H104.251C104.059 45.3852 103.917 45.3884 103.803 45.4035C103.69 45.4184 103.642 45.4406 103.623 45.4529C103.615 45.4584 103.596 45.4708 103.574 45.5284C103.547 45.5984 103.521 45.7259 103.521 45.9482C103.521 48.0253 103.525 50.1034 103.529 52.1824C103.54 57.8889 103.551 63.6013 103.48 69.3128C103.477 69.5897 103.481 69.7939 103.485 69.9801C103.488 70.1055 103.491 70.2227 103.491 70.3485C103.49 70.5866 103.484 70.9053 103.33 71.1591C103.134 71.4801 102.805 71.5653 102.53 71.5886C102.261 71.6112 101.905 71.5861 101.475 71.5503C96.5497 71.1406 90.3824 71.2131 84.5009 71.3424L84.4939 72.3112L84.494 72.3153L84.4951 72.3551C84.496 72.3895 84.4971 72.4396 84.4981 72.503C84.5002 72.6299 84.5019 72.8107 84.5005 73.0283C84.4976 73.4624 84.4823 74.0478 84.432 74.6455C84.3821 75.2374 84.296 75.8669 84.1429 76.378C84.0666 76.6326 83.9664 76.8833 83.8289 77.0905C83.6965 77.2899 83.4986 77.4943 83.212 77.5772C82.7484 77.7401 82.1278 77.82 81.4484 77.8569C80.7495 77.8948 79.9453 77.8889 79.1053 77.8615C78.1523 77.8304 77.1153 77.7695 76.1232 77.7112C75.3916 77.6683 74.6844 77.6267 74.0534 77.5996C73.8739 77.5919 73.7334 77.5914 73.5993 77.5908C73.5192 77.5905 73.4413 77.5902 73.3588 77.5884C73.1747 77.5843 72.94 77.5734 72.7293 77.4817C72.4753 77.3711 72.3144 77.1742 72.2192 76.9304C72.1351 76.7149 72.0963 76.4483 72.071 76.1493C71.9985 75.2933 71.9172 74.064 71.9601 73.011C71.9814 72.488 72.0342 71.9793 72.146 71.5729C72.2019 71.37 72.2791 71.1673 72.3922 70.9959C72.5062 70.823 72.679 70.6495 72.931 70.5755C72.9767 70.5621 73.0241 70.5553 73.0718 70.5553C75.5628 70.5553 78.4648 70.4864 81.5351 70.4136C82.1864 70.3981 82.8452 70.3825 83.5093 70.3673C83.5148 69.5605 83.5214 68.5534 83.528 67.4448C83.5443 64.7021 83.5606 61.339 83.5606 58.8498C83.5485 58.5419 83.4127 58.3453 83.17 58.1918C82.8985 58.0201 82.4975 57.9108 82.0152 57.8555C81.5415 57.8011 81.0375 57.8038 80.5928 57.8217C80.5157 57.8248 80.4376 57.8286 80.3604 57.8326C80.5061 60.3844 80.6242 62.9368 80.6748 65.4863L80.6748 65.4879L80.675 65.4925L80.676 65.5086C80.6769 65.5222 80.6783 65.5392 80.6801 65.5603C80.683 65.5926 80.6865 65.6292 80.6905 65.6715L80.6947 65.7154C80.7061 65.835 80.7199 65.9857 80.7276 66.1379C80.7352 66.287 80.7382 66.4555 80.7232 66.6078C80.7157 66.6839 80.7024 66.7709 80.6765 66.8563C80.6527 66.9344 80.6048 67.0577 80.4994 67.163C80.2774 67.3846 79.949 67.5464 79.6108 67.6711C79.2593 67.8007 78.8393 67.9106 78.3849 68.0019C77.4749 68.1847 76.3843 68.3011 75.3359 68.3397C74.2912 68.3782 73.2612 68.3405 72.4786 68.2038C72.092 68.1363 71.7297 68.0387 71.4508 67.8923C71.19 67.7555 70.8533 67.4912 70.8533 67.0443C70.8533 66.0164 70.8156 64.9808 70.7773 63.9294C70.7576 63.3904 70.7378 62.8472 70.7229 62.2988C70.6843 60.884 70.6791 59.4527 70.8004 58.0378C70.6926 58.0409 70.5849 58.0439 70.477 58.047C68.9409 58.0906 67.3954 58.1344 65.8473 58.168C65.8742 59.0558 65.8978 59.9441 65.9171 60.8249C66.0082 64.9847 66.0023 68.9932 65.7799 72.0018C65.6689 73.5024 65.5025 74.7792 65.2589 75.7085C65.1376 76.1709 64.99 76.5766 64.8025 76.8868C64.6204 77.1883 64.3483 77.4835 63.9488 77.5547C60.605 78.1507 56.3445 78.3459 51.4403 78.3942C48.5808 78.4224 45.4842 78.4006 42.2107 78.3775C39.8728 78.361 37.4447 78.3438 34.9484 78.3438C34.8292 78.3438 34.7139 78.3013 34.6235 78.2239C34.4941 78.1132 34.4329 77.9725 34.4018 77.8807C34.3679 77.7805 34.3491 77.6754 34.3376 77.5805C34.3148 77.3899 34.3142 77.1735 34.3207 76.9769C34.3273 76.7768 34.342 76.5777 34.3544 76.4184L34.3587 76.3627C34.3697 76.2219 34.376 76.1415 34.376 76.1074C34.376 69.8035 34.7058 63.5136 35.0348 57.2393L35.0351 57.2344C35.1952 54.1802 35.3552 51.1297 35.4772 48.0801C32.998 48.0395 30.5299 48.126 29.0591 48.3684C28.2994 48.4936 28.1679 48.6316 28.1185 48.7148C28.0832 48.7743 28.0492 48.8754 28.024 49.0839C28.0061 49.2317 27.9959 49.3959 27.9832 49.6015C27.9775 49.6935 27.9713 49.7937 27.9637 49.9044C27.9401 50.2467 27.9121 50.6333 27.8818 51.0535C27.7145 53.369 27.4732 56.7084 27.4732 59.3176C27.4732 59.6524 27.4855 59.9282 27.4966 60.1783C27.502 60.3002 27.5071 60.4161 27.5105 60.5296C27.5194 60.8364 27.5198 61.1817 27.3941 61.4711C27.2406 61.8246 26.9469 62.0118 26.5936 62.1047C26.2708 62.1897 25.8458 62.2114 25.3205 62.2114C24.6984 62.2114 23.5741 62.062 22.2861 61.8816C22.0935 61.8546 21.8965 61.8268 21.6957 61.7985C21.5608 61.7794 21.4242 61.7602 21.2862 61.7408C21.3748 62.7389 21.4816 63.7267 21.6089 64.7013C21.8212 66.3258 22.2862 73.5627 22.0846 76.9556C22.0639 77.3047 22.0452 77.6167 22.0059 77.8726C21.967 78.1261 21.8995 78.3912 21.738 78.6135C21.5625 78.8551 21.32 78.9882 21.048 79.058C20.7931 79.1233 20.4903 79.1389 20.152 79.1365C16.8185 79.1134 14.4179 78.9753 13.1289 78.8796C12.3629 78.8228 11.7674 78.5807 11.3941 78.0236C11.0527 77.514 10.9624 76.8249 10.9359 76.0588C10.9243 75.7232 10.9122 75.3875 10.9001 75.0519C10.7348 70.4629 10.5694 65.8725 11.6811 61.2747C11.798 60.7916 12.2038 60.5252 12.5971 60.3779C12.9999 60.2271 13.5112 60.1519 14.0671 60.1201C15.186 60.0561 16.6336 60.1616 18.1078 60.3243C18.7995 60.4007 19.5038 60.4905 20.1907 60.583C19.6434 53.1505 20.0233 45.2392 20.3723 37.973C20.39 37.6048 20.4076 37.2383 20.425 36.8736C20.4357 36.6489 20.4921 36.4365 20.6127 36.2526C20.7345 36.0668 20.8996 35.9443 21.0715 35.8657C21.3873 35.7216 21.7639 35.7124 22.043 35.7124C23.1353 35.7124 24.2281 35.6763 25.3273 35.6375C25.4104 35.6345 25.4935 35.6316 25.5767 35.6286C26.5911 35.5925 27.6114 35.5562 28.6296 35.547C30.8338 35.527 33.0544 35.6331 35.2668 36.1491C35.8942 36.2954 36.3392 36.557 36.549 37.0578C36.6417 37.279 36.6722 37.5122 36.6842 37.7278C36.6934 37.8931 36.6926 38.0781 36.6918 38.262C36.6916 38.3137 36.6913 38.3652 36.6913 38.4163C36.6913 41.3161 36.6215 44.2131 36.514 47.1073C36.7863 47.1155 37.0566 47.1252 37.3236 47.1363C38.8444 47.1996 40.2757 47.3094 41.3725 47.4585C41.9192 47.5329 42.396 47.6187 42.7638 47.7173C42.947 47.7665 43.1167 47.8223 43.2597 47.8876C43.3876 47.9461 43.5593 48.0405 43.6762 48.1983C43.7272 48.2672 43.7595 48.348 43.7701 48.4331C44.0598 50.7607 44.0794 54.9426 44.0201 59.0997C43.9903 61.1851 43.9404 63.2747 43.8933 65.137C43.8849 65.4674 43.8767 65.7904 43.8686 66.105C43.8312 67.5657 43.7986 68.8432 43.7832 69.8129C43.7709 70.5921 43.8717 70.9436 44.0429 71.13C44.2068 71.3084 44.558 71.463 45.4424 71.4682C45.8762 71.4707 46.3053 71.4775 46.7307 71.4842C48.6357 71.5143 50.4651 71.5432 52.2936 71.1854C52.5482 71.1355 52.7294 71.0944 52.8665 71.0466C53.0006 71 53.0545 70.9594 53.0791 70.9335C53.1143 70.8965 53.202 70.7706 53.1439 70.1904C52.9362 68.1175 52.9397 65.9624 52.943 63.8941C52.9435 63.6354 52.9439 63.3781 52.9439 63.1225C52.9439 62.2026 52.8795 61.2899 52.8134 60.3588L52.8125 60.3451C52.7568 59.5606 52.7002 58.7628 52.6847 57.9571C51.4586 57.8665 50.2435 57.7491 49.0428 57.5993C48.7131 57.5582 48.5162 57.3154 48.4105 57.1372C48.2969 56.9455 48.2133 56.7043 48.1475 56.4486C48.0143 55.9315 47.923 55.2295 47.86 54.4248C47.7334 52.8079 47.7146 50.6792 47.745 48.5599C47.7988 44.802 48.0089 41.0137 48.0605 40.083C48.0671 39.964 48.0711 39.8917 48.0718 39.8722C48.0822 39.6047 48.3025 39.3932 48.5707 39.3932C49.946 39.3932 51.3126 39.3427 52.6805 39.2746V38.8034C52.6805 38.2615 52.6538 37.7056 52.6261 37.1288C52.6113 36.8216 52.5962 36.5084 52.5848 36.1883C52.5525 35.2863 52.5509 34.3555 52.6863 33.4767C52.7384 33.139 52.9891 32.9394 53.1833 32.8309C53.3873 32.717 53.6378 32.6404 53.8904 32.5849C54.4013 32.4728 55.0521 32.4199 55.6899 32.3966C56.7647 32.3573 57.8871 32.4003 58.393 32.4196C58.4898 32.4233 58.5641 32.4261 58.6111 32.4274C58.8028 32.4324 59.0211 32.4499 59.2173 32.4656C59.3284 32.4745 59.4324 32.4828 59.5204 32.488C59.8017 32.5045 60.0079 32.4982 60.1626 32.4563C60.2958 32.4203 60.3786 32.3623 60.4429 32.2544C60.5192 32.1265 60.595 31.8838 60.595 31.4305C60.595 31.4178 60.5954 31.4051 60.5964 31.3925C60.7838 28.9464 60.6577 25.1096 60.5974 24.5024C60.5964 24.4919 60.5956 24.4814 60.5953 24.4709C60.5951 24.465 60.595 24.4591 60.595 24.4533C60.595 23.7077 60.6323 22.8471 60.8723 22.1793C60.9946 21.8392 61.184 21.506 61.4884 21.2702C61.7989 21.0296 62.1818 20.927 62.6151 20.9647C65.1001 20.9647 67.0937 20.9646 70.5752 20.9312C71.2227 20.925 71.7505 21.0999 72.1257 21.493C72.4864 21.871 72.6352 22.379 72.696 22.8875C72.7573 23.3997 72.7369 23.9837 72.699 24.5757C72.6851 24.7914 72.6691 25.007 72.653 25.2238C72.6236 25.6202 72.5938 26.0208 72.5766 26.434C72.0843 38.2613 71.858 44.7189 71.852 57.01C74.3626 56.9405 76.8546 56.8806 79.3043 56.8768C79.2188 55.4443 79.1261 54.0102 79.0333 52.5741C79.0049 52.135 78.9765 51.6956 78.9483 51.2561C78.6427 46.4926 78.3595 41.7101 78.3595 36.9265V35.758C78.3595 35.5782 78.3863 35.3822 78.4873 35.2069C78.5987 35.0133 78.7665 34.9027 78.936 34.8469C79.0863 34.7973 79.2399 34.7901 79.3521 34.7887C79.4041 34.7881 79.4881 34.7894 79.5645 34.7906C79.6181 34.7915 79.6679 34.7922 79.7001 34.7922C79.8432 34.7922 80.1371 34.7972 80.5409 34.804C81.6759 34.8232 83.6791 34.8571 85.6438 34.8366C86.969 34.8228 88.25 34.7841 89.1966 34.7007C89.6736 34.6586 90.044 34.607 90.2871 34.5477C90.3148 34.5409 90.3393 34.5344 90.3609 34.5283C90.3742 34.1643 90.3852 33.835 90.3918 33.5264C89.5883 33.5081 88.6196 33.5542 87.6053 33.6276C86.7872 33.6868 85.9536 33.7626 85.164 33.8344C84.8139 33.8663 84.4724 33.8973 84.1447 33.9258C83.0981 34.0168 82.1661 34.0842 81.6016 34.0511C81.5907 34.0504 81.5798 34.0494 81.569 34.0481C81.4082 34.028 81.2822 33.9534 81.1966 33.8872C81.1084 33.819 81.0335 33.7368 80.9709 33.6562C80.8457 33.495 80.7321 33.2909 80.633 33.0738C80.4336 32.6367 80.2607 32.0751 80.1689 31.5175C80.0791 30.9713 80.0564 30.3658 80.2139 29.8708C80.2946 29.6169 80.4316 29.3646 80.6586 29.1749C80.8926 28.9794 81.1838 28.8827 81.508 28.8827C82.0328 28.8827 82.6748 28.8745 83.3715 28.8656C84.5789 28.8502 85.9507 28.8327 87.1616 28.8521C88.1195 28.8675 89.0067 28.906 89.661 28.9903C89.9834 29.0318 90.2805 29.0881 90.5084 29.1713C90.6204 29.2121 90.7498 29.2714 90.8596 29.3637C90.9649 29.4522 91.0854 29.6021 91.1048 29.8129C91.3014 30.9237 91.3776 31.7393 91.3936 32.5927C91.6428 32.6222 91.874 32.663 92.0788 32.7187C92.4083 32.8081 92.7782 32.9634 92.9877 33.2771C93.0646 33.3922 93.0915 33.5261 93.1032 33.5868C93.1194 33.6712 93.1311 33.7688 93.1402 33.8713C93.1586 34.0779 93.1694 34.344 93.1752 34.6471C93.1869 35.2555 93.1791 36.0474 93.1637 36.8829C93.1515 37.5465 93.1346 38.2363 93.1186 38.8891C93.094 39.8927 93.0716 40.8088 93.0716 41.4076C93.0716 45.1747 93.0408 48.3866 93.0101 51.5966L93.0101 51.6001C92.9794 54.8034 92.9488 58.0049 92.9486 61.7579C92.9578 61.7575 92.9674 61.7571 92.9774 61.7566C93.0579 61.7528 93.1655 61.7478 93.2688 61.7478H95.9025C95.9398 61.7478 95.9821 61.7508 96.0103 61.753C96.0418 61.7553 96.0833 61.7588 96.12 61.7617C96.1932 61.7675 96.2715 61.7731 96.3464 61.7754C96.3495 61.7074 96.3494 61.6217 96.344 61.5162C96.3388 61.4136 96.3301 61.3107 96.3212 61.2038C96.3196 61.1842 96.3179 61.1645 96.3163 61.1446C96.3063 61.0237 96.2958 60.8896 96.2958 60.7709C96.2958 54.5264 96.4606 49.1028 96.6441 43.0631C96.7188 40.6041 96.7966 38.0428 96.8677 35.2825C96.8715 34.9491 97.1113 34.7565 97.2564 34.6697C97.4158 34.5743 97.613 34.5103 97.8093 34.4629C98.2099 34.366 98.7564 34.304 99.3807 34.2649C100.638 34.1863 102.312 34.1954 104.004 34.2492C105.7 34.3031 107.427 34.4025 108.797 34.507C109.482 34.5592 110.079 34.6129 110.54 34.6632C110.982 34.7112 111.344 34.7605 111.523 34.8114C111.681 34.8564 111.785 34.9551 111.847 35.031C111.91 35.1081 111.954 35.1926 111.985 35.2665C112.049 35.4142 112.097 35.5956 112.135 35.7891C112.213 36.1815 112.271 36.7226 112.315 37.379C112.403 38.6971 112.437 40.5496 112.432 42.7628C112.431 43.2848 112.428 43.8274 112.422 44.3884H116.42C116.531 32.9335 116.587 21.4795 116.443 10.0067C116.441 9.86181 116.44 9.72961 116.439 9.60831C116.437 9.29063 116.435 9.04775 116.42 8.84666C116.399 8.5615 116.357 8.48419 116.342 8.46498C116.339 8.46181 116.332 8.45301 116.305 8.44015C116.271 8.42434 116.21 8.40405 116.101 8.38753C115.874 8.35318 115.54 8.34792 115.022 8.35678C100.049 8.61288 85.0557 8.00835 70.0785 7.40447C66.4882 7.25971 62.8988 7.11498 59.3109 6.98216C41.3715 6.31807 23.4589 5.9509 5.58887 7.35456ZM4.59145 7.43475C4.60048 8.06503 4.59625 8.74872 4.57706 9.48925C4.39683 16.4428 4.13672 23.5713 3.87399 30.7716C3.1735 49.9688 2.45438 69.6765 3.18107 87.9412C3.20445 88.5288 3.28914 89.0069 3.4759 89.3767C3.67665 89.7742 3.98048 90.0173 4.35774 90.1444C4.70333 90.2609 5.09664 90.2746 5.47994 90.2697C5.66146 90.2673 5.83121 90.2614 6.00563 90.2553C6.24605 90.2469 6.49534 90.2382 6.79653 90.2382C10.0035 90.2382 13.2076 90.2388 16.4096 90.2393C45.8983 90.2442 75.2019 90.249 104.793 89.8388C105.079 89.8348 105.36 89.8329 105.634 89.831C106.166 89.8273 106.671 89.8238 107.133 89.8062C107.834 89.7795 108.486 89.7194 109.042 89.5612C109.605 89.401 110.106 89.13 110.457 88.6578C110.807 88.1879 110.963 87.5816 110.963 86.8428C110.963 85.3298 111.154 80.832 111.399 75.0781C111.601 70.3121 111.841 64.6842 112.038 59.1768C112.215 54.2391 112.359 49.4025 112.411 45.3852H116.41C116.37 49.4305 116.323 53.476 116.276 57.5226C116.149 68.5019 116.022 79.4891 116.022 90.5016C116.022 90.7769 116.246 91 116.521 91C116.797 91 117.021 90.7769 117.021 90.5016C117.021 79.5164 117.147 68.5368 117.274 57.5584C117.321 53.5006 117.368 49.4429 117.408 45.3852H123.501C123.776 45.3852 124 45.162 124 44.8868C124 44.6116 123.776 44.3884 123.501 44.3884H117.418C117.529 32.9261 117.585 21.463 117.442 9.99428C117.44 9.87008 117.439 9.75017 117.438 9.63515C117.436 9.30211 117.434 9.01007 117.416 8.77349C117.393 8.46246 117.34 8.12375 117.132 7.85516C116.906 7.56375 116.579 7.45185 116.25 7.40205C115.928 7.35317 115.511 7.35153 115.005 7.36019C100.064 7.61575 85.106 7.01272 70.1312 6.40899C66.5378 6.26412 62.9433 6.1192 59.3479 5.9861C41.4196 5.32242 23.4755 4.95311 5.56062 6.35696C5.5181 5.33679 5.43685 4.46545 5.32411 3.72706C5.1111 2.33189 4.77825 1.35779 4.33622 0.756104C4.11054 0.448914 3.8417 0.218952 3.52736 0.0964845C3.20746 -0.0281518 2.88115 -0.0253668 2.57658 0.0666197C1.99525 0.242197 1.49733 0.737492 1.11645 1.29538C0.349676 2.41851 -0.179473 4.14908 0.0568245 5.52572C0.177849 6.2308 0.511672 6.89605 1.17616 7.29319C1.82519 7.68109 2.69174 7.75392 3.75923 7.50453C4.03663 7.48083 4.31403 7.45758 4.59145 7.43475ZM4.56456 6.43685C4.52376 5.43052 4.44484 4.58354 4.337 3.87724C4.13186 2.53359 3.82944 1.75175 3.53102 1.34555C3.38648 1.14879 3.2588 1.06182 3.16432 1.02501C3.07541 0.990368 2.9806 0.98596 2.86574 1.02065C2.60822 1.09843 2.27406 1.36969 1.94156 1.85671C1.28159 2.82341 0.858822 4.2961 1.04099 5.35739C1.1292 5.87128 1.3472 6.23368 1.68908 6.43801C2.03888 6.64707 2.62063 6.75238 3.56342 6.52651C3.58771 6.52069 3.61241 6.51669 3.6373 6.51456C3.94638 6.48812 4.25546 6.46222 4.56456 6.43685ZM111.424 44.3884C111.429 43.8264 111.432 43.2831 111.434 42.7606C111.438 40.5528 111.404 38.7282 111.318 37.4452C111.275 36.801 111.22 36.3107 111.155 35.982C111.135 35.8764 111.114 35.7969 111.097 35.7396C110.958 35.7168 110.737 35.6873 110.432 35.654C109.985 35.6054 109.399 35.5526 108.721 35.5009C107.365 35.3974 105.652 35.2989 103.973 35.2454C102.29 35.1919 100.653 35.1841 99.4431 35.2597C98.8339 35.2978 98.3579 35.3557 98.0444 35.4316C97.9657 35.4506 97.9057 35.4688 97.8613 35.4847C97.7912 38.1882 97.7149 40.6982 97.6417 43.1076C97.4584 49.1405 97.2943 54.5423 97.2943 60.7709C97.2943 60.8423 97.301 60.9367 97.3114 61.0626C97.3128 61.0803 97.3144 61.0985 97.3159 61.1172C97.3249 61.2237 97.3351 61.3452 97.3412 61.4656C97.3543 61.7211 97.3601 62.0995 97.217 62.4011C97.1394 62.5647 97.0069 62.6465 96.9275 62.6842C96.8444 62.7236 96.7623 62.7423 96.7017 62.7526C96.5795 62.7733 96.4476 62.7749 96.3426 62.7724C96.2324 62.7698 96.1237 62.7619 96.0409 62.7553C95.9964 62.7518 95.9648 62.7491 95.9355 62.7469C95.9198 62.7457 95.9102 62.7451 95.9052 62.7448C95.9008 62.7446 95.9012 62.7445 95.9012 62.7445H93.2688C93.1887 62.7445 93.125 62.7476 93.0557 62.7509C93.0174 62.7527 92.9774 62.7547 92.9319 62.7562C92.8316 62.7596 92.6723 62.7631 92.5176 62.7177C92.3272 62.6618 92.1565 62.5369 92.0542 62.3294C91.9686 62.1557 91.9501 61.9609 91.9501 61.786C91.9501 58.016 91.9809 54.8023 92.0116 51.5916C92.0424 48.3802 92.0731 45.1707 92.0731 41.4076C92.0731 40.7987 92.0961 39.8579 92.1209 38.8412C92.1368 38.1911 92.1535 37.5099 92.1654 36.8645C92.1807 36.0308 92.1882 35.2547 92.1769 34.6663C92.1712 34.371 92.1609 34.1316 92.1456 33.9592C92.1398 33.8938 92.1338 33.8435 92.128 33.8066C92.0876 33.7787 91.9976 33.7296 91.8168 33.6805C91.6956 33.6476 91.5526 33.6197 91.389 33.597C91.3807 33.9651 91.3665 34.359 91.3501 34.7992C91.3378 35.1315 91.0758 35.2981 90.9734 35.3544C90.8401 35.4278 90.6795 35.478 90.5241 35.5159C90.2054 35.5936 89.7742 35.6504 89.2844 35.6936C88.2977 35.7805 86.9849 35.8194 85.6542 35.8333C83.6703 35.854 81.5865 35.8188 80.4642 35.7998C80.0884 35.7935 79.8205 35.789 79.7001 35.789C79.6322 35.789 79.5672 35.7877 79.5117 35.7866C79.4539 35.7856 79.4069 35.7849 79.3646 35.7854C79.3624 35.7854 79.3602 35.7855 79.358 35.7855V36.9265C79.358 41.6747 79.6391 46.4284 79.9448 51.1924C79.973 51.6323 80.0014 52.0723 80.0299 52.5124C80.123 53.9532 80.2162 55.3951 80.3022 56.8373C80.38 56.8333 80.4634 56.8293 80.5525 56.8257C81.0173 56.807 81.5805 56.8023 82.1292 56.8653C82.6692 56.9272 83.2457 57.0598 83.7044 57.3498C84.1898 57.6569 84.5364 58.1399 84.5589 58.8246L84.5591 58.8409C84.5591 61.3342 84.5428 64.7045 84.5265 67.4507C84.52 68.5464 84.5134 69.5428 84.508 70.3449C90.4015 70.2162 96.6133 70.1457 101.558 70.557C102.011 70.5947 102.277 70.6096 102.446 70.5954C102.459 70.5942 102.471 70.593 102.482 70.5917C102.487 70.5477 102.492 70.4719 102.492 70.3475C102.492 70.2746 102.49 70.174 102.488 70.0554C102.484 69.8427 102.478 69.5722 102.482 69.3005C102.552 63.5967 102.541 57.8948 102.531 52.1906C102.527 50.1102 102.523 48.0295 102.523 45.9482C102.523 45.3856 102.649 44.897 103.078 44.6181C103.271 44.4924 103.483 44.4402 103.672 44.4153C103.859 44.3906 104.062 44.3884 104.251 44.3884H111.424ZM90.3935 32.5294C90.3757 31.7753 90.3065 31.0562 90.1412 30.0989C90.0171 30.0573 89.8163 30.0153 89.5332 29.9788C88.9377 29.9021 88.0975 29.864 87.1456 29.8487C85.9434 29.8294 84.6104 29.8466 83.4168 29.862C82.7138 29.871 82.0592 29.8795 81.508 29.8795C81.3904 29.8795 81.3337 29.9107 81.2996 29.9392C81.2585 29.9735 81.2072 30.0415 81.1656 30.1724C81.0782 30.447 81.0742 30.8693 81.1542 31.356C81.2324 31.8313 81.3807 32.3077 81.5417 32.6606C81.6229 32.8385 81.6994 32.9674 81.76 33.0455C81.7644 33.0511 81.7684 33.0562 81.7723 33.0609C82.2642 33.0752 83.0678 33.0189 84.0581 32.9328C84.3777 32.905 84.7144 32.8744 85.0619 32.8428C85.8557 32.7706 86.7055 32.6933 87.5331 32.6334C88.5433 32.5603 89.5421 32.5113 90.3935 32.5294ZM90.4913 34.4816C90.504 34.4746 90.5021 34.4741 90.4913 34.4816V34.4816ZM79.3626 57.8735C76.8962 57.8764 74.3666 57.9384 71.8052 58.0096C71.6787 59.4031 71.6817 60.8291 71.721 62.2717C71.7354 62.8 71.7548 63.3331 71.7743 63.8676C71.8121 64.9065 71.85 65.9503 71.8518 66.9725C71.8661 66.9823 71.8867 66.995 71.9155 67.0101C72.0591 67.0855 72.3028 67.1612 72.6507 67.222C73.3369 67.3418 74.2894 67.3808 75.2991 67.3436C76.3052 67.3065 77.341 67.1949 78.1879 67.0247C78.6119 66.9396 78.9779 66.8419 79.2648 66.7361C79.4936 66.6517 79.6424 66.5727 79.7294 66.5108C79.7372 66.4319 79.7372 66.3207 79.7304 66.1887C79.7238 66.0599 79.7119 65.9279 79.7007 65.8095C79.6994 65.796 79.698 65.782 79.6967 65.7679C79.6877 65.6742 79.6778 65.5713 79.6765 65.5059C79.6261 62.9656 79.5082 60.422 79.3626 57.8735ZM71.8225 66.9482C71.8225 66.9482 71.8249 66.9501 71.828 66.9543C71.8237 66.9504 71.8225 66.9482 71.8225 66.9482ZM70.8534 57.0381C70.8592 44.7094 71.086 38.2362 71.579 26.3926C71.5968 25.9653 71.6288 25.533 71.659 25.1252C71.6748 24.9128 71.69 24.7071 71.7025 24.5121C71.7401 23.9246 71.7541 23.4198 71.7046 23.0057C71.6546 22.588 71.5474 22.3321 71.4027 22.1805C71.2725 22.0441 71.0456 21.9235 70.5848 21.9279C67.0876 21.9614 65.0887 21.9614 62.592 21.9614C62.5754 21.9614 62.5589 21.9606 62.5424 21.959C62.3188 21.9367 62.1898 21.9885 62.1006 22.0576C61.9989 22.1364 61.8974 22.2788 61.8121 22.5159C61.639 22.9977 61.5944 23.6893 61.5935 24.43C61.6599 25.162 61.781 28.9753 61.5934 31.4499C61.5914 31.9845 61.5037 32.4244 61.3008 32.7645C61.0834 33.1288 60.7657 33.3259 60.4238 33.4183C60.1036 33.505 59.7602 33.5006 59.4617 33.483C59.324 33.4749 59.2017 33.4648 59.085 33.4552C58.9165 33.4413 58.7596 33.4284 58.5848 33.4238C58.5294 33.4223 58.4464 33.4192 58.3408 33.4152C57.8216 33.3955 56.7558 33.3551 55.7265 33.3927C55.1047 33.4154 54.5261 33.4659 54.105 33.5584C53.8916 33.6053 53.7505 33.6563 53.6707 33.7009C53.6675 33.7027 53.6645 33.7044 53.6616 33.706C53.5525 34.4673 53.552 35.2942 53.5827 36.1527C53.5931 36.4454 53.6075 36.7452 53.6219 37.0466C53.6503 37.6398 53.679 38.2392 53.679 38.8034V39.2224C54.0593 39.2016 54.4399 39.1802 54.821 39.1587C55.2745 39.1331 55.7287 39.1075 56.1839 39.083C58.7268 38.9464 61.2947 38.8464 63.905 38.9996C64.374 39.0272 64.7484 39.211 64.9548 39.5956C65.1239 39.9107 65.1331 40.2934 65.1358 40.5733C65.1474 41.8134 65.2556 44.127 65.3912 47.025C65.416 47.5567 65.4418 48.1081 65.4681 48.6761C65.5881 51.2688 65.7179 54.2005 65.8157 57.1713C67.3316 57.1381 68.8475 57.0951 70.3585 57.0521C70.5235 57.0474 70.6885 57.0428 70.8534 57.0381ZM64.8174 57.1916C64.7198 54.2326 64.5905 51.3107 64.4707 48.7221C64.4445 48.1569 64.4188 47.6072 64.394 47.0762C64.2585 44.1814 64.1491 41.8432 64.1373 40.5827C64.136 40.4389 64.1312 40.326 64.1185 40.2329C64.1057 40.1397 64.0878 40.0908 64.0747 40.0664C64.0658 40.0499 64.0596 40.044 64.0458 40.0364C64.0255 40.0252 63.9695 40.0019 63.8464 39.9947C61.2957 39.8449 58.775 39.942 56.2376 40.0783C55.7882 40.1025 55.3379 40.1279 54.8869 40.1533C54.4849 40.176 54.0823 40.1987 53.679 40.2206V57.0268C57.3324 57.2573 61.071 57.2616 64.8174 57.1916ZM53.6848 58.0251C53.7021 58.774 53.7552 59.5236 53.8095 60.2884L53.8097 60.2913C53.8752 61.216 53.9424 62.1626 53.9424 63.1225C53.9424 63.3796 53.942 63.6372 53.9416 63.8953C53.9384 65.9702 53.9352 68.0721 54.1374 70.0912C54.1979 70.6944 54.1687 71.2358 53.803 71.62C53.6272 71.8047 53.4097 71.9132 53.1953 71.9878C52.984 72.0614 52.7396 72.1138 52.4857 72.1635C50.5442 72.5435 48.5875 72.5117 46.6774 72.4808C46.2614 72.474 45.8475 72.4673 45.4365 72.4649C44.5142 72.4595 43.7753 72.3133 43.307 71.8037C42.846 71.302 42.7724 70.578 42.7848 69.7971C42.8003 68.8221 42.8331 67.5383 42.8705 66.0775C42.8785 65.7634 42.8868 65.4411 42.8951 65.1119C42.9422 63.2501 42.992 61.1651 43.0217 59.0855C43.0793 55.0461 43.0601 51.0656 42.8053 48.7772C42.7336 48.7478 42.6346 48.7148 42.5047 48.6799C42.196 48.5971 41.7666 48.5181 41.2377 48.4462C40.1834 48.3028 38.786 48.1948 37.282 48.1322C37.0155 48.1211 36.7463 48.1115 36.4756 48.1033C36.3532 51.1652 36.1928 54.2237 36.0326 57.2788L36.0322 57.2865C35.7029 63.5668 35.3745 69.8323 35.3745 76.1074C35.3745 76.1841 35.3644 76.3118 35.3545 76.436C35.353 76.456 35.3514 76.4759 35.3499 76.4955C35.3376 76.6532 35.3245 76.8334 35.3187 77.0096C35.3145 77.1355 35.3145 77.2502 35.3196 77.3472C37.7019 77.3488 40.0105 77.3651 42.2333 77.3808C45.4966 77.4039 48.575 77.4257 51.4304 77.3976C56.3292 77.3493 60.5178 77.1537 63.7733 76.5734C63.7566 76.5764 63.826 76.5731 63.9475 76.3719C64.0638 76.1795 64.1822 75.8784 64.2929 75.4561C64.5132 74.6161 64.6744 73.4116 64.7841 71.9284C65.0028 68.9696 65.0098 65.0004 64.9189 60.8467C64.8996 59.9655 64.8759 59.0766 64.8489 58.1881C61.1031 58.2572 57.35 58.2528 53.6848 58.0251ZM52.6805 56.9579V40.2726C51.474 40.3322 50.2617 40.3782 49.0437 40.388C48.9754 41.6367 48.793 45.1079 48.7434 48.5742C48.7131 50.6863 48.7326 52.7776 48.8554 54.3472C48.9172 55.1358 49.0033 55.7687 49.1145 56.2005C49.1691 56.4124 49.2227 56.5473 49.2658 56.6225C50.3932 56.7614 51.5322 56.8716 52.6805 56.9579ZM35.5157 47.0839C35.6231 44.1949 35.6928 41.3065 35.6928 38.4163C35.6928 38.3526 35.6931 38.2929 35.6933 38.2365C35.694 38.0598 35.6946 37.9159 35.6872 37.7832C35.6777 37.612 35.6563 37.5102 35.6279 37.4424C35.5954 37.365 35.5211 37.2319 35.0396 37.1197C32.9392 36.6298 30.8091 36.524 28.6386 36.5437C27.6345 36.5528 26.6272 36.5886 25.6103 36.6248C25.5278 36.6277 25.4453 36.6306 25.3626 36.6336C24.2642 36.6724 23.1551 36.7092 22.043 36.7092C21.9054 36.7092 21.7889 36.7129 21.689 36.7248C21.5881 36.7368 21.5247 36.7549 21.4868 36.7722C21.4545 36.787 21.4492 36.7968 21.4481 36.7985C21.4457 36.8022 21.4266 36.8322 21.4223 36.921C21.4054 37.2754 21.3883 37.6313 21.3712 37.9886C21.0178 45.3512 20.6364 53.2961 21.2023 60.7224C21.4181 60.7527 21.6304 60.7826 21.8383 60.8119C22.0383 60.8402 22.2341 60.8678 22.4249 60.8945C23.7464 61.0796 24.7857 61.2146 25.3205 61.2146C25.847 61.2146 26.1546 61.1895 26.339 61.1409C26.4247 61.1184 26.4581 61.097 26.4674 61.0899L26.4683 61.0892C26.4714 61.087 26.4732 61.0856 26.478 61.0747C26.5027 61.0177 26.5221 60.8905 26.5124 60.5587C26.5098 60.4697 26.5053 60.3672 26.5002 60.2532C26.4888 59.9932 26.4747 59.6736 26.4747 59.3176C26.4747 56.6681 26.7194 53.2829 26.8866 50.9712C26.9167 50.5544 26.9443 50.1724 26.9675 49.836C26.9736 49.7473 26.9791 49.6594 26.9844 49.5733C26.9981 49.3519 27.0111 49.1427 27.0327 48.9645C27.0632 48.7116 27.1177 48.4454 27.2596 48.2065C27.5646 47.693 28.1426 47.5093 28.8964 47.385C30.4551 47.128 33.0009 47.0419 35.5157 47.0839ZM20.2717 61.5999C19.523 61.4979 18.7529 61.3984 17.9981 61.315C16.5321 61.1532 15.1546 61.0563 14.1243 61.1152C13.6056 61.1449 13.2114 61.2125 12.9477 61.3112C12.6746 61.4135 12.6531 61.5033 12.6518 61.5086C11.5735 65.9679 11.7335 70.4272 11.8991 75.0444C11.9108 75.3703 11.9225 75.697 11.9338 76.0245C11.9601 76.7845 12.0539 77.2154 12.2241 77.4695C12.3625 77.676 12.6062 77.8413 13.2029 77.8856C14.4715 77.9798 16.8497 78.1169 20.1589 78.1398C20.4803 78.142 20.6757 78.1243 20.7995 78.0926C20.9026 78.0661 20.9219 78.0393 20.929 78.0293L20.9297 78.0283C20.9504 77.9998 20.9878 77.9245 21.0189 77.7216C21.0497 77.5213 21.0662 77.2612 21.0878 76.8966C21.2848 73.5824 20.8253 66.4107 20.6188 64.8302C20.4799 63.7674 20.3653 62.6894 20.2717 61.5999ZM83.5023 71.365C82.8762 71.3794 82.2544 71.3941 81.6388 71.4088C78.6092 71.4808 75.7287 71.5493 73.2211 71.552C73.1882 71.6046 73.1478 71.6956 73.1088 71.837C73.027 72.1343 72.978 72.5542 72.9578 73.0515C72.9176 74.0388 72.9941 75.2163 73.0659 76.0654C73.0902 76.3514 73.1211 76.4955 73.1496 76.5684C73.1504 76.5705 73.1519 76.5742 73.1519 76.5742C73.1607 76.576 73.1722 76.5781 73.1871 76.5801C73.2325 76.5862 73.2934 76.59 73.3808 76.5919C73.431 76.593 73.4943 76.5933 73.5668 76.5937C73.7158 76.5945 73.9035 76.5956 74.0963 76.6038C74.7697 76.6327 75.4854 76.675 76.2162 76.7181C77.1851 76.7753 78.1803 76.834 79.1379 76.8653C79.9659 76.8923 80.7373 76.8973 81.3942 76.8616C82.0615 76.8254 82.5693 76.7489 82.8923 76.6328C82.9036 76.6288 82.9151 76.6251 82.9267 76.6218C82.9347 76.6163 82.9593 76.5961 82.9965 76.54C83.0583 76.447 83.1242 76.2996 83.1862 76.0925C83.3097 75.68 83.3891 75.131 83.437 74.562C83.4845 73.9987 83.4992 73.4408 83.502 73.0218C83.5033 72.8129 83.5017 72.6397 83.4997 72.5192C83.4988 72.459 83.4977 72.412 83.4969 72.3804L83.4959 72.3447L83.4956 72.3341C83.4954 72.3273 83.4953 72.3201 83.4953 72.3132L83.4953 72.3117L83.5023 71.365Z" fill="#C7000B"/>
</svg>
