<svg width="348" height="22" fill="none" xmlns="http://www.w3.org/2000/svg"><g clip-path="url(#clip0)" fill="#000"><path d="M13.348 1.432v8.176h-9.25V1.432H0V21.7h4.097v-8.232h9.25v8.23h4.098V1.432h-4.097zM36.427 13.031c0 3.295-1.63 5.055-4.59 5.055-2.977 0-4.616-1.807-4.616-5.194V1.447h-4.097V13.03c0 5.7 3.155 8.97 8.658 8.97 5.555 0 8.74-3.33 8.74-9.137V1.432h-4.095v11.6zM83.775 15.366L79.19 1.43h-3.343l-4.585 13.936-4.46-13.924h-4.36l7.036 20.255h3.393l4.592-13.306 4.59 13.306h3.421l7.02-20.255h-4.249l-4.47 13.924zM99.838 12.976h7.452v-3.69h-7.452V5.137h10.817V1.447H95.797v20.237h15.247v-3.69H99.838v-5.018zM119.971 1.431h-4.041V21.67h4.041V1.43zM57.862 17.467l1.813 4.218h4.294L55.105 1.433h-3.61L42.6 21.686h4.181l1.84-4.218h9.24zm-4.63-10.906l3.107 7.253h-6.195l3.087-7.253zM132.146 1.475h11.018l-.281 2.241h-8.218v6.417h7.697v2.158h-7.697v9.34h-2.519V1.475zM145.82 10.455c0-.835-.035-2.089-.107-3.76h2.276c.054.417.102.92.146 1.51.044.588.075 1.055.093 1.399.342-.585.727-1.144 1.152-1.671.368-.45.818-.825 1.325-1.107a3.521 3.521 0 011.74-.424c.444-.005.887.056 1.314.181l-.348 2.269a4.038 4.038 0 00-1.071-.14 3.344 3.344 0 00-2.102.704 9.587 9.587 0 00-1.954 2.275v9.94h-2.463l-.001-11.176zM166.213 14.254h-9.598c.017 1.865.425 3.264 1.224 4.196.8.933 1.953 1.4 3.461 1.4a9.21 9.21 0 004.057-.96l.575 1.836c-.728.384-1.499.679-2.296.88-.923.217-1.87.32-2.818.306a6.986 6.986 0 01-3.661-.905 5.68 5.68 0 01-2.276-2.61 9.915 9.915 0 01-.769-4.099 10.27 10.27 0 01.802-4.246 6.136 6.136 0 012.243-2.714 5.957 5.957 0 013.313-.932 5.247 5.247 0 013.22.96 5.657 5.657 0 011.907 2.527 9.226 9.226 0 01.616 3.403v.958zm-2.477-1.81a5.252 5.252 0 00-1.01-3.097 2.914 2.914 0 00-2.35-1.037 3.125 3.125 0 00-2.416 1.051 5.628 5.628 0 00-1.238 3.083h7.014zM180.287 14.254h-9.598c.017 1.865.425 3.264 1.225 4.196.799.933 1.953 1.4 3.46 1.4a9.21 9.21 0 004.057-.96l.575 1.836c-.728.384-1.499.679-2.296.88-.923.217-1.869.32-2.818.306a6.987 6.987 0 01-3.661-.909 5.68 5.68 0 01-2.276-2.61 9.915 9.915 0 01-.769-4.099 10.255 10.255 0 01.803-4.246 6.134 6.134 0 012.242-2.714 5.959 5.959 0 013.313-.932 5.247 5.247 0 013.22.96 5.651 5.651 0 011.908 2.527 9.205 9.205 0 01.615 3.403v.962zm-2.477-1.81a5.252 5.252 0 00-1.01-3.097 2.927 2.927 0 00-2.35-1.037 3.12 3.12 0 00-2.416 1.051 5.635 5.635 0 00-1.238 3.083h7.014zM194.027 11.63a4.787 4.787 0 011.6 1.774c.401.788.602 1.663.584 2.548a5.589 5.589 0 01-.783 2.958 5.224 5.224 0 01-2.287 2.002 8.367 8.367 0 01-3.622.717h-5.787V1.475h5.368c1.973 0 3.465.406 4.477 1.218a4.083 4.083 0 011.52 3.376 4.67 4.67 0 01-.931 2.944 5.07 5.07 0 01-2.481 1.72c.835.129 1.634.435 2.343.897h-.001zm-7.816-1.733h2.433a4.277 4.277 0 002.075-.489 3.472 3.472 0 001.861-3.13 2.335 2.335 0 00-.968-2.047 4.878 4.878 0 00-2.818-.684h-2.583v6.35zm6.385 8.7a3.418 3.418 0 001.108-2.743 3.511 3.511 0 00-1.244-2.91c-.83-.668-2.022-1.002-3.575-1.001h-2.676v7.614h3.012c1.508 0 2.633-.32 3.374-.96M200.249 20.496c-.728-.941-1.091-2.36-1.091-4.252v-9.55h2.423v9.41c0 1.3.226 2.242.676 2.826a2.354 2.354 0 001.988.88 4.27 4.27 0 002.283-.676 8.407 8.407 0 001.988-1.733V6.695h2.463v11.191c0 1.04.04 2.288.121 3.744h-2.209a12.06 12.06 0 01-.175-1.106c-.053-.45-.094-.838-.12-1.163a11.213 11.213 0 01-2.302 1.852 5.3 5.3 0 01-2.745.696c-1.473 0-2.573-.471-3.3-1.413zM224.223 21.63a20.627 20.627 0 01-.254-1.865 6.27 6.27 0 01-1.955 1.566 5.458 5.458 0 01-2.53.577 4.935 4.935 0 01-2.85-.81 4.954 4.954 0 01-1.876-2.3 9.857 9.857 0 01-.75-4.127c-.033-1.5.236-2.992.791-4.385a6.343 6.343 0 012.282-2.874 6.187 6.187 0 013.552-1.01 9.019 9.019 0 011.693.167c.527.098 1.048.228 1.56.391V.278L226.352 0v17.858c0 1.225.035 2.483.107 3.772h-2.236zm-1.995-2.415a5.272 5.272 0 001.659-1.385V8.922a12.927 12.927 0 00-1.545-.397 7.945 7.945 0 00-1.493-.16 3.727 3.727 0 00-2.269.704 4.444 4.444 0 00-1.48 2.094 9.758 9.758 0 00-.522 3.41c0 1.829.319 3.158.957 3.988a2.988 2.988 0 002.47 1.246 4.49 4.49 0 002.223-.592zM231.042 21.652a8.114 8.114 0 01-1.928-.675l.615-1.907a7.915 7.915 0 001.752.62 8.44 8.44 0 001.968.243 3.667 3.667 0 002.316-.626 2.066 2.066 0 00.789-1.712 1.838 1.838 0 00-.354-1.148 3.066 3.066 0 00-1.022-.821c-.446-.237-1.107-.532-1.982-.884a12.278 12.278 0 01-2.094-1.08 4.08 4.08 0 01-1.286-1.343 3.723 3.723 0 01-.461-1.904 3.99 3.99 0 01.555-2.13 3.593 3.593 0 011.627-1.392 6.21 6.21 0 012.583-.489 9.691 9.691 0 014.257 1.017l-.481 1.837a9.653 9.653 0 00-1.854-.696 7.174 7.174 0 00-1.814-.25 3.012 3.012 0 00-1.868.507 1.61 1.61 0 00-.661 1.343c-.01.362.111.716.341.995.266.305.589.554.95.733.406.214 1.029.496 1.868.849.745.316 1.469.678 2.169 1.086.542.331.998.787 1.332 1.33.375.647.558 1.388.528 2.136.02.853-.2 1.695-.635 2.429a4.22 4.22 0 01-1.874 1.615 7.045 7.045 0 01-2.992.577 10.46 10.46 0 01-2.343-.257M248 1.475h4.873c2.357 0 4.155.504 5.395 1.51 1.24 1.007 1.86 2.466 1.861 4.378a6.772 6.772 0 01-.876 3.487 5.93 5.93 0 01-2.457 2.31 7.775 7.775 0 01-3.615.815 11.41 11.41 0 01-2.663-.32v7.975H248V1.475zm8.347 9.222a4.194 4.194 0 001.252-3.236c0-1.365-.409-2.353-1.225-2.966-.817-.612-2.001-.918-3.553-.918h-2.303v8.045c.724.146 1.459.226 2.196.237 1.59 0 2.801-.387 3.635-1.162M262.771 10.455c0-.835-.035-2.089-.106-3.76h2.275c.054.417.102.92.146 1.51.045.588.076 1.055.094 1.399.342-.585.727-1.144 1.152-1.671a4.615 4.615 0 011.325-1.107 3.522 3.522 0 011.741-.424c.444-.005.887.056 1.314.181l-.35 2.27a4.036 4.036 0 00-1.07-.14 3.343 3.343 0 00-2.102.704 9.593 9.593 0 00-1.955 2.275v9.939h-2.464V10.455zM274.281 21.012a6.159 6.159 0 01-2.363-2.61 9.06 9.06 0 01-.857-4.093 9.594 9.594 0 01.857-4.182c.407-.827.98-1.56 1.683-2.155a6.643 6.643 0 015.122-1.516 6.64 6.64 0 012.579.894 6.324 6.324 0 012.356 2.707 9.415 9.415 0 01.843 4.113 9.155 9.155 0 01-.875 4.155 6.313 6.313 0 01-2.416 2.665 6.693 6.693 0 01-3.495.919 6.573 6.573 0 01-3.433-.898h-.001zm6.647-2.61c.669-.976 1.004-2.326 1.005-4.051 0-1.8-.355-3.235-1.065-4.302a3.51 3.51 0 00-3.127-1.6A3.454 3.454 0 00274.643 10a7.443 7.443 0 00-1.022 4.155 8.473 8.473 0 00.495 3.062c.28.787.788 1.47 1.46 1.963.685.468 1.5.707 2.329.683a3.418 3.418 0 003.026-1.46"/></g><defs><clipPath id="clip0"><path fill="#fff" d="M0 0h348v22H0z"/></clipPath></defs></svg>