<svg width="348" height="22" fill="none" xmlns="http://www.w3.org/2000/svg"><path d="M137.431 8.267a31.31 31.31 0 01-.723-1.938 43.449 43.449 0 01-.622-1.929c0 .514.064 1.25.091 2.195.028.947 0 1.838 0 2.71V21.66h-2.325V1.451h3.341l5.126 12.658a35.329 35.329 0 011.592 4.538 43.155 43.155 0 011.685-4.5L150.84 1.45h3.259v20.21h-2.508V9.286c0-1.145.064-2.78.192-4.905a46.831 46.831 0 01-1.547 4.271l-5.418 13.035h-1.987l-5.4-13.42zM167.389 21.66a13.777 13.777 0 01-.22-2.076 6.781 6.781 0 01-2.178 1.672 6.39 6.39 0 01-2.966.68 5.26 5.26 0 01-2.316-.496 3.857 3.857 0 01-1.62-1.488 4.61 4.61 0 01-.604-2.416 4.304 4.304 0 011.556-3.463c1.044-.876 2.768-1.31 5.172-1.305.961.003 1.921.068 2.874.193v-.376a4.512 4.512 0 00-.916-3.243 3.515 3.515 0 00-2.608-.919 9.12 9.12 0 00-2.316.322c-.732.19-1.446.444-2.133.762l-.439-1.965a11.874 11.874 0 012.252-.754c.979-.24 1.984-.36 2.993-.358a7.118 7.118 0 013.057.597 4.204 4.204 0 011.959 2.04 8.93 8.93 0 01.704 3.876v5.888c0 .625 0 1.57.11 2.83h-2.361zm-2.252-2.37a5.806 5.806 0 001.95-1.497v-3.215a23.72 23.72 0 00-2.572-.147 5.477 5.477 0 00-3.451.808 2.673 2.673 0 00-.961 2.214 2.442 2.442 0 00.686 1.91 2.65 2.65 0 001.831.616 5.585 5.585 0 002.499-.624M175.004 20.852a5.072 5.072 0 01-1.098-3.61V8.699h-1.968l.347-1.745 1.703-.248.201-3.473 2.243-.358v3.83h4.448l-.348 1.994h-4.064v8.267a3.483 3.483 0 00.559 2.177 2.135 2.135 0 001.739.68 6.982 6.982 0 002.142-.432l.439 1.837a7.66 7.66 0 01-1.474.515 7.416 7.416 0 01-1.83.202 4.097 4.097 0 01-3.067-1.084M194.71 14.275h-9.958c-.099 1.508.353 3 1.272 4.198a4.57 4.57 0 003.588 1.405 9.819 9.819 0 004.21-.964l.595 1.837c-.758.38-1.556.673-2.379.872-.961.219-1.944.324-2.929.313a7.44 7.44 0 01-3.799-.919 5.748 5.748 0 01-2.361-2.618 9.67 9.67 0 01-.797-4.106 9.89 9.89 0 01.833-4.244 6.19 6.19 0 012.325-2.755 6.391 6.391 0 013.442-.92 5.593 5.593 0 013.34.92 5.737 5.737 0 011.95 2.608 9.075 9.075 0 01.641 3.408l.027.965zm-2.572-1.837a5.078 5.078 0 00-1.052-3.105 3.089 3.089 0 00-2.435-1.038 3.29 3.29 0 00-2.508 1.056 5.52 5.52 0 00-1.281 3.087h7.276zM208.577 11.648a4.832 4.832 0 011.638 1.773c.412.786.617 1.665.595 2.553a5.53 5.53 0 01-.796 2.967 5.399 5.399 0 01-2.352 2.003 8.817 8.817 0 01-3.726.716h-5.94V1.451h5.492a7.3 7.3 0 014.576 1.222 4.03 4.03 0 011.565 3.38 4.602 4.602 0 01-.942 2.977 5.172 5.172 0 01-2.545 1.717 6.268 6.268 0 012.407.919l.028-.018zm-8.064-1.718h2.508a4.502 4.502 0 002.124-.487 3.487 3.487 0 001.912-3.142 2.32 2.32 0 00-.997-2.048 5.14 5.14 0 00-2.865-.698h-2.654l-.028 6.375zm6.563 8.708a3.38 3.38 0 001.135-2.756 3.504 3.504 0 00-.286-1.61 3.47 3.47 0 00-.987-1.302 5.822 5.822 0 00-3.661-1h-2.746v7.623h3.094a5.285 5.285 0 003.469-.964M216.128 21.045a6.217 6.217 0 01-2.425-2.618 8.863 8.863 0 01-.916-4.097 9.403 9.403 0 01.916-4.189 6.475 6.475 0 012.453-2.756 7.2 7.2 0 017.175-.036 6.422 6.422 0 012.417 2.755c.602 1.29.9 2.701.869 4.125a8.934 8.934 0 01-.915 4.161 6.293 6.293 0 01-2.48 2.664 7.346 7.346 0 01-7.112 0l.018-.01zm6.81-2.61a6.932 6.932 0 001.025-4.05 7.484 7.484 0 00-1.071-4.28 4.024 4.024 0 00-6.407-.055 7.36 7.36 0 00-1.043 4.16 8.288 8.288 0 00.503 3.069c.29.792.814 1.478 1.501 1.965.707.47 1.542.708 2.389.68a3.56 3.56 0 003.112-1.46M231.706 21.045a6.217 6.217 0 01-2.425-2.618 8.875 8.875 0 01-.915-4.097 9.402 9.402 0 01.915-4.189 6.475 6.475 0 012.453-2.756 7.203 7.203 0 017.157-.036 6.422 6.422 0 012.417 2.755c.602 1.29.9 2.701.869 4.125a8.933 8.933 0 01-.915 4.161 6.293 6.293 0 01-2.48 2.664 7.346 7.346 0 01-7.112 0l.036-.01zm6.792-2.61a6.932 6.932 0 001.025-4.05 7.486 7.486 0 00-1.053-4.28 4.035 4.035 0 00-3.19-1.615 4.023 4.023 0 00-3.217 1.56 7.372 7.372 0 00-1.052 4.16 8.312 8.312 0 00.512 3.069 4.173 4.173 0 001.501 1.965c.707.47 1.542.708 2.389.68a3.559 3.559 0 003.112-1.46M245.079.276L247.605 0v13.742l6.434-7.036h2.893l-5.803 6.228 6.361 8.726h-3.02l-5.053-7.091-1.812 1.57v5.521h-2.526V.276zM13.308 9.645H4.082V1.488H0v20.209h4.082v-8.203h9.226v8.203H17.4V1.488h-4.092v8.157zM36.328 13.053c0 3.288-1.63 5.043-4.577 5.043s-4.576-1.837-4.576-5.18V1.496h-4.11v11.556c0 5.686 3.14 8.947 8.632 8.947 5.491 0 8.713-3.316 8.713-9.112v-11.4h-4.082v11.565zM83.548 15.386L78.97 1.488H75.64l-4.567 13.898-4.449-13.889h-4.347l7.01 20.2h3.387l4.577-13.264 4.576 13.264h3.414l7.002-20.2h-4.238l-4.457 13.89zM99.566 12.998h7.432V9.324h-7.432V5.18h10.791V1.506H95.538v20.182h15.203v-3.684H99.566v-5.006zM119.647 1.488h-4.027V21.67h4.027V1.49zM57.663 17.453l1.831 4.207h4.302L54.917 1.488h-3.56l-8.87 20.209h4.193l1.83-4.244h9.153zM53.087 6.605l3.103 7.229h-6.178l3.075-7.23zM274.121 11.363l-6.068-9.884h2.929l4.539 7.817 4.732-7.817h2.81l-6.022 9.755 6.526 10.426h-2.984l-5.007-8.47-5.199 8.47h-2.819l6.563-10.297z" fill="#231815"/></svg>