<svg width="348" height="22" fill="none" xmlns="http://www.w3.org/2000/svg"><path fill-rule="evenodd" clip-rule="evenodd" d="M346.927 18.051a6.666 6.666 0 01-2.505 2.831 6.73 6.73 0 01-3.595.98 6.628 6.628 0 01-3.561-.968 6.51 6.51 0 01-2.442-2.787 9.821 9.821 0 01-.876-4.312 10.21 10.21 0 01.876-4.371 6.794 6.794 0 012.463-2.904 6.548 6.548 0 013.639-1.025 6.476 6.476 0 013.583 1.01 6.753 6.753 0 012.448 2.867 9.98 9.98 0 01.876 4.321 9.775 9.775 0 01-.906 4.358zm-1.469-7.792a5.325 5.325 0 00-1.782-2.419 4.67 4.67 0 00-2.852-.869 4.633 4.633 0 00-2.817.848 5.064 5.064 0 00-1.731 2.359 9.71 9.71 0 00-.576 3.472 9.387 9.387 0 00.625 3.59c.361.937.99 1.745 1.809 2.323a4.888 4.888 0 002.831.81c.988.03 1.96-.251 2.781-.803a4.864 4.864 0 001.731-2.278 9.355 9.355 0 00.583-3.45 9.845 9.845 0 00-.605-3.582l.003-.001zm-14.482-3.141a3.408 3.408 0 00-1.578.369 4.87 4.87 0 00-1.37 1.09 17.816 17.816 0 00-1.462 1.917V21.57h-1.675V9.82c0-.6-.014-1.258-.042-1.976-.029-.717-.049-1.189-.057-1.415l-.029-.616h1.519c.059.423.108.93.149 1.519.041.59.072 1.096.092 1.519.396-.63.835-1.232 1.316-1.8a4.977 4.977 0 011.39-1.12 3.732 3.732 0 011.81-.427c.467-.002.931.067 1.377.206l-.27 1.578a4.448 4.448 0 00-1.17-.167v-.003zm-12.9 5.293a8.173 8.173 0 01-3.846.87 13.274 13.274 0 01-3.069-.37v8.656h-1.732V.217h4.796a8.396 8.396 0 015.457 1.549 5.532 5.532 0 011.88 4.541 7.166 7.166 0 01-.91 3.648 6.269 6.269 0 01-2.575 2.459l-.001-.003zm-3.903-10.648h-3.009v9.672c.909.168 1.83.256 2.754.264a7.297 7.297 0 003.228-.648 4.47 4.47 0 002.001-1.848c.466-.867.698-1.84.675-2.823 0-3.073-1.883-4.609-5.648-4.609l-.001-.008zm-15.783 19.83h-12.765v-1.38l2.135-2.101c2.159-2.154 3.782-3.839 4.871-5.053a17.866 17.866 0 002.539-3.54 7.475 7.475 0 00.905-3.512 4.865 4.865 0 00-.58-2.49 3.62 3.62 0 00-1.562-1.469 5.039 5.039 0 00-2.228-.477 5.533 5.533 0 00-2.686.661 9.387 9.387 0 00-2.361 1.895l-.75-1.425a8.249 8.249 0 012.61-1.968 7.566 7.566 0 013.301-.704 6.644 6.644 0 013.019.683 5.171 5.171 0 012.171 2.042 6.29 6.29 0 01.806 3.27 8.049 8.049 0 01-1.025 3.855 19.4 19.4 0 01-2.708 3.768c-1.121 1.244-2.762 2.938-4.92 5.083l-1.228 1.232h10.741l-.285 1.63zM268.363 1.91v19.7h-1.736v-19.7h-6.505l.296-1.572h14.468l-.31 1.572h-6.213zm-17.115 19.994a9.577 9.577 0 01-5.21-1.359 8.536 8.536 0 01-3.259-3.784 13.354 13.354 0 01-1.103-5.583 12.975 12.975 0 011.294-6.001 9.03 9.03 0 013.585-3.827A10.387 10.387 0 01251.801.04c1.122-.005 2.24.143 3.323.44 1.011.276 1.988.666 2.913 1.16l-.665 1.514a14.271 14.271 0 00-2.686-1.101 10.122 10.122 0 00-2.856-.397 8.362 8.362 0 00-4.328 1.11 7.542 7.542 0 00-2.941 3.255 11.51 11.51 0 00-1.061 5.142c-.027 1.605.261 3.2.848 4.693a7.1 7.1 0 002.616 3.262 7.717 7.717 0 004.426 1.197c.92-.002 1.837-.101 2.736-.294a13.48 13.48 0 002.581-.808v-5.538h-5.612v-1.631h7.324v8.08a15.51 15.51 0 01-3.499 1.315c-1.2.304-2.431.461-3.668.468l-.004-.005zM229.422 11.32h-12.213v10.254h-1.725V.302h1.725v9.416h12.216V.302h1.711v21.273h-1.711l-.003-10.254zm-27.065 7.771a7.632 7.632 0 004.369 1.175 10.3 10.3 0 002.631-.338 12.638 12.638 0 002.616-1.028l.526 1.513c-.875.45-1.794.81-2.742 1.073-1.043.276-2.118.41-3.196.396a9.72 9.72 0 01-5.224-1.314 8.044 8.044 0 01-3.157-3.71 13.977 13.977 0 01-1.046-5.627 14.977 14.977 0 011.061-5.825 8.835 8.835 0 013.146-3.973 8.676 8.676 0 015.055-1.44c2.032.002 4.03.534 5.797 1.543l-.679 1.513a14.185 14.185 0 00-2.496-1.065 8.654 8.654 0 00-2.58-.375 6.947 6.947 0 00-4.093 1.175 7.142 7.142 0 00-2.524 3.305 13.411 13.411 0 00-.848 4.98 12.815 12.815 0 00.827 4.783 6.907 6.907 0 002.56 3.244l-.003-.005zM190.253 1.88v19.7h-1.739V1.88h-6.504l.298-1.572h14.468l-.312 1.572h-6.211zm-8.042 19.7l-2.644-6.742h-9.306l-2.559 6.743h-1.878l8.33-21.273h1.403l8.54 21.273h-1.886zm-6.225-15.954a57.397 57.397 0 01-1.132-3.026c-.225.666-.579 1.65-1.06 2.953l-2.955 7.728h8.116l-2.969-7.655zm-17.211 15.955l-3.72-12.722a169.92 169.92 0 01-1.01-3.526c-.25-.92-.488-1.885-.714-2.894a160.377 160.377 0 01-1.724 6.336l-3.677 12.81h-1.739L140.478.313h1.796l3.648 13.706c.593 2.232.984 3.951 1.173 5.157.274-1.107.514-2.057.722-2.85.207-.794.462-1.704.764-2.729l3.845-13.28h1.754l4.034 13.574c.35 1.167.628 2.164.834 2.992.205.829.365 1.595.48 2.3.282-1.283.702-2.958 1.258-5.025L164.462.319h1.765l-5.713 21.272-1.739-.01zM123.077.179h4.291v21.472h-4.291V.18zm-21.375.016h15.775V4.11H105.99v4.4h7.912v3.917h-7.912v5.322h11.897v3.915h-16.181l-.004-21.47zm-14.59 21.483L82.238 7.562l-4.874 14.116H73.76L66.291.191h4.63l4.734 14.773L80.523.18h3.55l4.868 14.784L93.687.191h4.51l-7.454 21.487h-3.631zm-23.763-.012l-1.93-4.474h-9.796l-1.953 4.474h-4.44L54.675.181h3.833l9.41 21.485H63.35zM56.509 5.62l-3.277 7.696h6.576L56.51 5.62zM33.739 22c-5.842 0-9.193-3.468-9.193-9.515V.192h4.349v12.144c0 3.592 1.74 5.51 4.902 5.51 3.142 0 4.872-1.867 4.872-5.362V.18h4.35v12.127C43.022 18.467 39.64 22 33.741 22h-.004zM14.17 12.947H4.35v8.731H-.001V.18h4.35v8.673h9.82V.18h4.35v21.5h-4.35v-8.732z" fill="#000"/></svg>