<svg width="876" height="192" fill="none" xmlns="http://www.w3.org/2000/svg"><path d="M233.179 168.111c-.12.238-.209.446-.299.595-2.685 4.494-5.759 8.691-9.43 12.441-3.79 3.809-8.027 6.934-13.07 8.928-3.522 1.369-7.133 2.054-10.923 1.905-2.477-.089-4.804-.714-7.072-1.637-3.79-1.518-7.401-3.423-10.952-5.417-9.012-5.148-17.637-10.922-26.142-16.874-.417-.298-.865-.596-1.283-.923-.447-.327-.627-.744-.507-1.161.119-.387.537-.625 1.104-.625.567 0 1.134.03 1.731.06 2.775.089 5.521.178 8.296.297 4.118.149 8.236.298 12.384.417 4.118.149 8.237.298 12.385.417 4.118.148 8.236.297 12.384.416 4.148.149 8.296.298 12.444.417 4.118.149 8.236.298 12.385.417 2.088.059 4.148.148 6.207.238.059.059.179.059.358.089z" fill="url(#paint0_radial)"/><path d="M23.36 168.052c1.015-.03 1.94-.09 2.865-.12 3.7-.119 7.4-.267 11.071-.386 2.179-.06 4.327-.119 6.506-.209l9.878-.357a501.6 501.6 0 016.714-.208l9.788-.357c2.09-.06 4.208-.119 6.297-.209 3.76-.119 7.52-.268 11.31-.416 3.312-.119 6.625-.209 9.937-.328 1.194-.03 2.388-.089 3.581-.119h.925c.388.03.687.209.806.595.119.358 0 .655-.269.923l-.447.357c-9.072 6.399-18.263 12.589-27.932 18.036-3.163 1.786-6.386 3.452-9.729 4.821-3.491 1.459-7.132 2.024-10.922 1.756-3.432-.268-6.684-1.25-9.788-2.768-3.82-1.875-7.192-4.404-10.236-7.351-3.999-3.869-7.31-8.274-10.116-13.065a1.995 1.995 0 00-.239-.595z" fill="url(#paint1_radial)"/><path d="M132.015 87.903c0-2.768-.06-5.535 0-8.274.149-5.208.298-10.416.537-15.625.149-3.273.418-6.547.716-9.82.448-5.18 1.044-10.358 1.85-15.507 1.194-7.678 2.746-15.297 5.014-22.767 1.253-4.048 2.685-8.036 4.595-11.846.597-1.19 1.313-2.321 1.94-3.482.269-.476.597-.565 1.104-.476 3.193.625 6.386 1.19 9.55 1.816 2.626.535 5.192 1.25 7.669 2.291 6.655 2.768 11.967 7.203 15.995 13.155 2.537 3.75 4.387 7.857 5.372 12.292.477 2.113.656 4.285.686 6.458.149 7.053-1.074 13.928-3.103 20.654-1.97 6.548-4.596 12.857-7.431 19.078-3.879 8.452-8.266 16.666-12.862 24.761-8.206 14.375-17.099 28.334-26.5 41.964-.149.209-.298.447-.477.625-.239.268-.507.417-.895.298a.951.951 0 01-.657-.684c-.089-.358-.119-.744-.149-1.131-.298-3.393-.627-6.786-.895-10.149-.329-4.077-.657-8.155-.955-12.232a275.168 275.168 0 01-.478-8.631c-.209-4.375-.358-8.75-.537-13.125-.03-1.012-.03-2.054-.06-3.066-.029-2.202-.089-4.374-.119-6.577h.09z" fill="url(#paint2_radial)"/><path d="M124.584 89.064c-.119 4.434-.209 8.899-.328 13.333-.09 3.006-.209 6.042-.388 9.048a848.803 848.803 0 01-.806 12.321 370.046 370.046 0 01-.627 8.125c-.238 2.857-.537 5.744-.805 8.601-.06.625-.12 1.28-.179 1.905-.06.625-.269.923-.687 1.042-.537.119-.865-.149-1.134-.566a569.956 569.956 0 01-3.64-5.297c-8.117-12.024-15.846-24.286-23.038-36.905-3.581-6.28-6.983-12.619-10.177-19.077-3.282-6.697-6.326-13.482-8.773-20.536-1.552-4.464-2.835-9.018-3.73-13.69-.448-2.322-.687-4.643-.806-7.024-.12-2.351-.06-4.702.18-7.054.506-4.702 1.88-9.107 4.207-13.243 3.61-6.4 8.594-11.37 15.16-14.733 3.163-1.636 6.505-2.738 9.967-3.422 2.864-.566 5.699-1.101 8.564-1.667.478-.09.955-.119 1.403-.208.418-.06.686.03.895.416.716 1.28 1.492 2.56 2.149 3.87 2.566 5.267 4.327 10.803 5.819 16.458 1.462 5.506 2.566 11.071 3.432 16.696.567 3.81 1.074 7.62 1.492 11.458.418 3.9.746 7.828 1.014 11.727.269 3.987.448 7.976.567 11.964.12 3.333.15 6.666.209 10 .03 2.143 0 4.285 0 6.428.03.03.03.03.06.03z" fill="url(#paint3_radial)"/><path d="M217.303 33.856c.985.982 1.91 1.875 2.805 2.827 4.655 4.97 8.744 10.387 11.996 16.37 2.179 3.987 3.94 8.154 4.984 12.559 1.85 7.887 1.283 15.595-2.178 22.976-2.328 4.97-5.581 9.285-9.729 12.916-2.268 1.994-4.506 4.048-6.834 5.953-5.162 4.196-10.653 7.976-16.234 11.607-11.131 7.262-22.65 13.869-34.378 20.119-6.625 3.541-13.339 6.904-19.994 10.357-.179.089-.388.208-.597.268-.716.208-1.283-.238-1.163-.983.029-.297.179-.595.298-.863 1.522-3.184 3.014-6.369 4.536-9.523a528.368 528.368 0 0116.622-31.191 612.43 612.43 0 0119.308-31.309c6.833-10.357 13.936-20.536 21.426-30.446 2.775-3.69 5.67-7.292 8.505-10.953.179-.148.358-.357.627-.684z" fill="url(#paint4_radial)"/><path d="M39.296 33.856c.865 1.071 1.7 2.083 2.507 3.125 7.788 9.851 15.16 20.03 22.232 30.387 8.773 12.827 17.04 25.952 24.769 39.434 4.297 7.44 8.415 15 12.354 22.619 3.193 6.22 6.297 12.5 9.221 18.839.09.208.179.387.269.595.209.685-.299 1.28-1.015 1.101-.268-.059-.537-.208-.776-.327a653.307 653.307 0 01-23.515-12.262c-8.684-4.732-17.278-9.672-25.664-14.91-7.192-4.524-14.265-9.227-20.92-14.494-2.476-1.965-4.834-4.048-7.132-6.161-1.7-1.577-3.372-3.155-4.834-4.97-3.91-4.851-6.625-10.268-7.789-16.399-1.014-5.446-.686-10.833.836-16.16 1.492-5.15 3.82-9.941 6.655-14.465 3.491-5.565 7.58-10.684 12.175-15.357.21-.178.388-.357.627-.595z" fill="url(#paint5_radial)"/><path d="M254.277 98.856c.089.267.179.476.269.714a43.377 43.377 0 011.88 9.94c.507 7.232-.508 14.256-3.194 20.982-2.208 5.506-5.461 10.387-9.579 14.703a46.281 46.281 0 01-12.175 9.136c-3.372 1.756-6.924 2.917-10.594 3.81-2.984.714-6.028 1.22-9.132 1.19-1.939 0-3.849.09-5.789.09-17.368.029-34.706.029-52.074.029h-.776c-.358-.029-.657-.208-.776-.565-.149-.357-.06-.714.209-.982.179-.179.418-.328.627-.476 5.371-3.453 10.743-6.935 16.174-10.298 11.37-7.053 22.918-13.75 34.557-20.387 15.547-8.869 31.214-17.529 46.971-26.041.925-.506 1.85-.982 2.775-1.488.149-.12.358-.209.627-.357z" fill="url(#paint6_radial)"/><path d="M2.322 99.004c1.104.596 2.118 1.102 3.103 1.667 17.667 9.494 35.214 19.167 52.611 29.166 11.37 6.518 22.68 13.155 33.782 20.119 3.939 2.471 7.818 5.03 11.727 7.56.209.149.448.298.597.476.448.536.179 1.28-.507 1.429-.179.029-.388.029-.567.029-3.193 0-6.386 0-9.61.03-4.326.03-8.623.03-12.95.06-2.895 0-5.79.029-8.655.029-5.998 0-11.996.03-17.964.03-2.925 0-5.82.03-8.744-.089-5.312-.179-10.475-1.191-15.428-3.125-10.773-4.226-18.8-11.518-24.351-21.607-2.507-4.583-4.059-9.464-4.835-14.613-.537-3.631-.686-7.262-.358-10.893a44.463 44.463 0 011.88-9.643c.09-.208.15-.357.269-.625z" fill="url(#paint7_radial)"/><path d="M450.31 161.492c-1.669-.267-3.406-.467-5.076-.734-6.345-1.002-12.29-3.073-17.567-6.947-6.612-4.876-10.687-11.555-12.891-19.37-1.469-5.143-2.004-10.353-2.004-15.697V65.51v-1.536c1.27-.401 17.5-.468 19.437-.067v55.038c0 3.807.535 7.547 1.871 11.154 2.738 7.348 8.215 11.355 15.83 12.491 3.941.601 7.881.4 11.755-.601 6.145-1.67 10.353-5.478 12.691-11.422 1.47-3.807 1.937-7.882 1.937-11.956V65.844v-1.87c1.269-.401 17.5-.535 19.304-.134 0 .468.066 1.002.066 1.536 0 18.034.067 36.002 0 54.036 0 6.479-1.068 12.758-3.473 18.769-4.475 11.288-12.758 18.369-24.38 21.441-2.671.735-5.477.935-8.215 1.403-.601.066-1.136.2-1.737.334-2.404.133-4.943.133-7.548.133zM724.164 63.773h19.905c-.134.601-.267 1.202-.468 1.67-3.473 9.952-6.946 19.971-10.42 29.924-7.213 20.772-14.427 41.545-21.708 62.318-.868 2.605-.333 2.271-3.206 2.338h-12.356c-1.47 0-1.47 0-2.004-1.47-6.947-19.971-13.826-39.942-20.773-59.914-.2-.467-.401-.935-.735-1.87-.334.802-.534 1.27-.734 1.737-3.273 9.484-6.613 18.969-9.886 28.454-3.607 10.42-7.214 20.906-10.82 31.326-.602 1.803-.334 1.803-2.472 1.803h-12.691c-1.603 0-1.603 0-2.137-1.536-10.821-31.059-21.641-62.185-32.528-93.244-.134-.4-.268-.801-.401-1.335h20.572c7.013 21.841 14.094 43.749 21.107 65.724h.334c.133-.4.334-.801.467-1.269 6.947-20.906 13.827-41.88 20.773-62.786.134-.334.267-.734.334-1.068.134-.602.601-.869 1.203-.869 4.809 0 9.618 0 14.427.067.134 0 .334.067.601.2 7.214 21.775 14.427 43.683 21.641 65.592.735-.267.735-.869.935-1.336 1.871-5.678 3.674-11.355 5.477-17.032 4.943-15.363 9.886-30.659 14.829-46.021.334-.535.534-.935.734-1.403zM302.364 159.689V63.84h19.303c0 .601.067 1.203.067 1.804v36.803h44.284c.067-.668.133-1.336.133-2.004V65.844 63.84h19.17c.334 1.069.468 93.778.134 95.849-1.336.401-17.634.401-19.304-.067v-38.606c-1.536-.401-42.747-.401-44.351 0v38.606c-1.669.468-17.967.468-19.436.067zM832.838 142.523v17.032c-1.335.334-70.6.401-72.27.067-.401-1.269-.401-94.112-.067-95.715 1.202-.334 68.797-.4 70.534-.067v17.032c-.735.067-1.469.134-2.204.134H779.537v19.838h35.067c.534 1.402.601 15.763.067 17.5h-34.933c-.401 1.536-.468 22.509 0 24.112 17.566.067 35.2.067 53.1.067zM607.744 159.756c-.735.067-1.203.066-1.67.066-5.678 0-11.355-.066-16.966.067-1.336 0-1.87-.467-2.338-1.603-2.337-5.61-4.809-11.154-7.146-16.765-.535-1.202-1.136-1.67-2.472-1.67-13.626.067-27.252.067-40.877 0-1.27 0-1.871.334-2.405 1.536-2.338 5.611-4.876 11.155-7.281 16.699-.267.534-.467 1.069-.734 1.603h-19.704c.267-.601.4-1.136.601-1.603 8.416-19.036 16.765-38.072 25.181-57.175a19201.329 19201.329 0 0015.83-35.935c.468-1.002.935-1.47 2.137-1.47 4.676.067 9.418.067 14.094 0 1.336 0 1.87.468 2.404 1.603 6.279 14.36 12.558 28.655 18.836 42.948 7.281 16.498 14.494 33.063 21.775 49.561.134.735.401 1.336.735 2.138zm-36.403-37.471c-.133-.401-.2-.802-.401-1.136-1.002-2.338-2.003-4.742-3.005-7.08-3.474-8.149-7.014-16.23-10.554-24.38-.2-.467-.267-1.135-1.002-1.47-4.876 11.356-9.685 22.644-14.561 33.999 1.603.4 27.987.467 29.523.067zM856.684 63.64h18.568l.201.2c.066.067.066.067.066.134.067 31.259.067 62.518.067 93.778 0 .534 0 1.068-.067 1.603 0 .067-.066.2-.2.334H856.55c.134-31.994.134-63.922.134-96.05z" fill="#000"/><defs><radialGradient id="paint0_radial" cx="0" cy="0" r="1" gradientUnits="userSpaceOnUse" gradientTransform="rotate(120.721 73.174 58.675) scale(193.354 197.922)"><stop stop-color="#F7BFA4"/><stop offset=".234" stop-color="#E76C44"/><stop offset=".421" stop-color="#E50012"/><stop offset=".704" stop-color="#CA000C"/><stop offset=".96" stop-color="#A00000"/></radialGradient><radialGradient id="paint1_radial" cx="0" cy="0" r="1" gradientUnits="userSpaceOnUse" gradientTransform="rotate(120.721 73.174 58.675) scale(193.354 197.922)"><stop stop-color="#F7BFA4"/><stop offset=".234" stop-color="#E76C44"/><stop offset=".421" stop-color="#E50012"/><stop offset=".704" stop-color="#CA000C"/><stop offset=".96" stop-color="#A00000"/></radialGradient><radialGradient id="paint2_radial" cx="0" cy="0" r="1" gradientUnits="userSpaceOnUse" gradientTransform="rotate(120.721 73.174 58.675) scale(193.354 197.922)"><stop stop-color="#F7BFA4"/><stop offset=".234" stop-color="#E76C44"/><stop offset=".421" stop-color="#E50012"/><stop offset=".704" stop-color="#CA000C"/><stop offset=".96" stop-color="#A00000"/></radialGradient><radialGradient id="paint3_radial" cx="0" cy="0" r="1" gradientUnits="userSpaceOnUse" gradientTransform="rotate(120.721 73.174 58.675) scale(193.354 197.922)"><stop stop-color="#F7BFA4"/><stop offset=".234" stop-color="#E76C44"/><stop offset=".421" stop-color="#E50012"/><stop offset=".704" stop-color="#CA000C"/><stop offset=".96" stop-color="#A00000"/></radialGradient><radialGradient id="paint4_radial" cx="0" cy="0" r="1" gradientUnits="userSpaceOnUse" gradientTransform="rotate(120.721 73.174 58.675) scale(193.354 197.922)"><stop stop-color="#F7BFA4"/><stop offset=".234" stop-color="#E76C44"/><stop offset=".421" stop-color="#E50012"/><stop offset=".704" stop-color="#CA000C"/><stop offset=".96" stop-color="#A00000"/></radialGradient><radialGradient id="paint5_radial" cx="0" cy="0" r="1" gradientUnits="userSpaceOnUse" gradientTransform="rotate(120.721 73.174 58.675) scale(193.354 197.922)"><stop stop-color="#F7BFA4"/><stop offset=".234" stop-color="#E76C44"/><stop offset=".421" stop-color="#E50012"/><stop offset=".704" stop-color="#CA000C"/><stop offset=".96" stop-color="#A00000"/></radialGradient><radialGradient id="paint6_radial" cx="0" cy="0" r="1" gradientUnits="userSpaceOnUse" gradientTransform="rotate(120.721 73.174 58.675) scale(193.354 197.922)"><stop stop-color="#F7BFA4"/><stop offset=".234" stop-color="#E76C44"/><stop offset=".421" stop-color="#E50012"/><stop offset=".704" stop-color="#CA000C"/><stop offset=".96" stop-color="#A00000"/></radialGradient><radialGradient id="paint7_radial" cx="0" cy="0" r="1" gradientUnits="userSpaceOnUse" gradientTransform="rotate(120.721 73.174 58.675) scale(193.354 197.922)"><stop stop-color="#F7BFA4"/><stop offset=".234" stop-color="#E76C44"/><stop offset=".421" stop-color="#E50012"/><stop offset=".704" stop-color="#CA000C"/><stop offset=".96" stop-color="#A00000"/></radialGradient></defs></svg>