<svg width="14" height="16" fill="none" xmlns="http://www.w3.org/2000/svg"><path fill-rule="evenodd" clip-rule="evenodd" d="M7 1.333a5.333 5.333 0 00-5.333 5.334c0 2.065 1.344 4.07 2.818 5.624A19.622 19.622 0 007 14.515a19.62 19.62 0 002.516-2.224c1.473-1.555 2.817-3.559 2.817-5.624a5.333 5.333 0 00-5.333-5.334zm0 14l-.37.555-.001-.002-.005-.002-.015-.01a7.106 7.106 0 01-.256-.181 20.935 20.935 0 01-2.836-2.484C1.99 11.597.334 9.268.334 6.667a6.667 6.667 0 1113.333 0c0 2.601-1.656 4.93-3.182 6.542a20.932 20.932 0 01-3.037 2.626l-.056.038-.015.01-.004.004H7.37l-.37-.554zm0 0l.37.555a.667.667 0 01-.74 0l.37-.555z" fill="#595757"/><path fill-rule="evenodd" clip-rule="evenodd" d="M7 5.333A1.333 1.333 0 107 8a1.333 1.333 0 000-2.667zM4.335 6.667a2.667 2.667 0 115.333 0 2.667 2.667 0 01-5.333 0z" fill="#595757"/></svg>