<svg width="16" height="16" viewBox="0 0 16 16" fill="none" xmlns="http://www.w3.org/2000/svg">
<path d="M12.3638 8.26117C12.6079 8.50525 12.6079 8.901 12.3638 9.14508L8.70711 12.8018C8.31658 13.1923 7.68342 13.1923 7.29289 12.8018L3.63617 9.14508C3.39208 8.901 3.39208 8.50525 3.63617 8.26117C3.88025 8.01708 4.276 8.01708 4.52008 8.26117L7.375 11.1161V0.625C7.375 0.279822 7.65482 0 8 0C8.34518 0 8.625 0.279822 8.625 0.625V11.1161L11.4799 8.26117C11.724 8.01708 12.1197 8.01708 12.3638 8.26117ZM16 15.375C16 15.0298 15.7202 14.75 15.375 14.75H0.625C0.279822 14.75 0 15.0298 0 15.375C0 15.7202 0.279822 16 0.625 16H15.375C15.7202 16 16 15.7202 16 15.375Z" fill="white"/>
</svg>
