<svg width="18" height="20" fill="none" xmlns="http://www.w3.org/2000/svg"><path fill-rule="evenodd" clip-rule="evenodd" d="M11.058 3.686c-.03.146-.015.238.014.294.071.138.283.27.671.352.371.078.835.094 1.294.064.458-.03.896-.104 1.213-.197a1.589 1.589 0 00.354-.141 2.718 2.718 0 00-.237-.305c-.193-.219-.465-.49-.772-.782-.43-.407-.92-.844-1.347-1.216l-.131.16c-.343.424-.662.868-.864 1.259a2.03 2.03 0 00-.195.512zm.813-2.257l-.151.184c-.35.433-.694.907-.918 1.342-.112.217-.2.435-.24.639-.04.202-.038.416.059.605.18.351.6.525 1.016.612.432.09.947.105 1.433.073.488-.031.964-.11 1.326-.216.178-.052.342-.115.466-.19a.708.708 0 00.174-.14.381.381 0 00.098-.249.45.45 0 00-.043-.18 1.03 1.03 0 00-.083-.15 3.183 3.183 0 00-.258-.324 13.625 13.625 0 00-.802-.814c-.44-.418-.944-.865-1.377-1.242a21.24 21.24 0 01.944-1.001l.024-.024.006-.006.002-.002-.178-.173L13.19 0l-.002.002-.007.007-.026.026a21.033 21.033 0 00-.96 1.018L12.08.955a2.269 2.269 0 00-1.476-.537H2.27C1.016.418 0 1.404 0 2.62v15.176C0 19.014 1.016 20 2.27 20H13.37c1.254 0 2.27-.986 2.27-2.203v-2.448h-.505v2.448c0 .946-.79 1.713-1.765 1.713H2.27c-.975 0-1.766-.767-1.766-1.713V2.621c0-.947.791-1.714 1.766-1.714h8.334c.422 0 .828.146 1.142.415l.125.107zm2.84 5.342c-.7-.025-1.461.228-2.173.918l-7.063 6.854-.356-.346 7.063-6.854c.801-.778 1.696-1.092 2.547-1.061.846.03 1.625.4 2.208.948.583.548.981 1.285 1.052 2.068.07.79-.193 1.612-.91 2.308-.932.904-1.794 1.763-2.563 2.529-.271.27-.53.529-.778.774-.943.935-1.71 1.68-2.226 2.097-1.228.994-2.637.729-3.451-.07a2.214 2.214 0 01-.683-1.509c-.016-.582.219-1.187.768-1.72l4.54-4.406c.802-.778 1.795-.96 2.364-.517.294.228.42.59.34 1.003-.077.404-.347.857-.834 1.33l-4.036 3.916-.356-.346 4.035-3.917c.446-.432.643-.8.695-1.072.05-.263-.032-.433-.159-.532-.271-.21-.967-.222-1.692.482l-4.54 4.406c-.46.446-.632.924-.62 1.36.012.44.213.858.537 1.177.644.633 1.757.857 2.77.039.492-.398 1.239-1.123 2.188-2.064l.775-.77c.77-.768 1.635-1.63 2.569-2.536.611-.594.822-1.274.764-1.919-.058-.652-.393-1.283-.9-1.76-.506-.475-1.17-.785-1.875-.81z" fill="#C7000B"/></svg>