<svg width="13" height="13" fill="none" xmlns="http://www.w3.org/2000/svg"><path d="M11.805 2.752A6.487 6.487 0 006.5 0h-.038a6.49 6.49 0 00-5.268 2.752A6.462 6.462 0 000 6.5a6.46 6.46 0 001.506 4.155 6.49 6.49 0 004.956 2.344H6.5a6.488 6.488 0 005.305-2.751A6.462 6.462 0 0012.999 6.5a6.462 6.462 0 00-1.194-3.748zM4.6.845c-.598.577-1.094 1.42-1.436 2.43a6.2 6.2 0 01-1.227-.61A5.982 5.982 0 014.6.845zM1.624 3.072c.404.27.872.506 1.388.7a10.36 10.36 0 00-.356 2.673H.534a5.932 5.932 0 011.09-3.373zM.554 6.978h2.113c.034.799.155 1.556.345 2.25-.517.194-.984.43-1.388.7a5.926 5.926 0 01-1.07-2.95zm1.385 3.356a6.233 6.233 0 011.224-.61c.342 1.012.84 1.854 1.437 2.43a5.98 5.98 0 01-2.661-1.82zm4.294 2.113c-1.094-.15-2.039-1.272-2.574-2.889a9.858 9.858 0 012.574-.394v3.283zm0-3.816c-.979.024-1.902.175-2.724.427a9.888 9.888 0 01-.308-2.08h3.032v1.653zm0-2.186H3.19c.004-.896.121-1.742.322-2.503.82.252 1.743.403 2.72.427v2.076h.001zm0-2.61a9.844 9.844 0 01-2.573-.393C4.196 1.826 5.14.702 6.233.552v3.284zm6.231 2.61h-2.152c-.005-.95-.131-1.85-.353-2.662a6.84 6.84 0 001.416-.71 5.932 5.932 0 011.09 3.372zm-1.402-3.78a6.224 6.224 0 01-1.254.62C9.462 2.26 8.958 1.408 8.352.83a5.983 5.983 0 012.71 1.836zM6.767.557C7.849.724 8.78 1.845 9.31 3.45a9.86 9.86 0 01-2.544.386V.556zm0 3.812a10.175 10.175 0 002.692-.417c.2.758.315 1.6.32 2.493H6.767V4.37zm0 2.61h3a9.93 9.93 0 01-.305 2.07 10.176 10.176 0 00-2.695-.418V6.978zm0 5.464V9.164c.917.023 1.78.16 2.545.386-.53 1.605-1.463 2.726-2.545 2.893zm1.585-.272c.607-.579 1.111-1.43 1.457-2.456.468.173.89.382 1.252.62a5.984 5.984 0 01-2.71 1.836zm3.023-2.243a6.823 6.823 0 00-1.416-.711c.187-.69.308-1.444.341-2.238h2.145a5.918 5.918 0 01-1.07 2.949z" fill="#9FA0A0"/></svg>