<?xml version="1.0" encoding="utf-8"?>
<svg viewBox="0 -130 1024 1024"  xmlns="http://www.w3.org/2000/svg"><path d="M455.87829 403.858005H36.263705c-20.017565 0-36.263705 16.24614-36.263705 36.263705V859.736295C0 879.75386 16.24614 896 36.263705 896h419.614585c20.017565 0 36.263705-16.24614 36.263705-36.263705v-419.614585c0-20.017565-16.24614-36.263705-36.263705-36.263705zM72.52741 476.385415h347.087175V823.47259H72.52741v-347.087175zM987.736295 403.858005H568.12171c-20.017565 0-36.263705 16.24614-36.263705 36.263705V859.736295c0 20.017565 16.24614 36.263705 36.263705 36.263705h419.614585c20.017565 0 36.263705-16.24614 36.263705-36.263705v-419.614585c0-20.017565-16.24614-36.263705-36.263705-36.263705z m-383.35088 72.52741h347.087175V823.47259H604.385415v-347.087175zM455.87829-128H36.263705c-20.017565 0-36.263705 16.24614-36.263705 36.263705V327.87829c0 20.017565 16.24614 36.263705 36.263705 36.263705h419.614585c20.017565 0 36.263705-16.24614 36.263705-36.263705v-419.614585c0-20.017565-16.24614-36.263705-36.263705-36.263705zM72.52741-55.47259h347.087175V291.614585H72.52741v-347.087175zM987.736295-128H568.12171c-20.017565 0-36.263705 16.24614-36.263705 36.263705V327.87829c0 20.017565 16.24614 36.263705 36.263705 36.263705h419.614585c20.017565 0 36.263705-16.24614 36.263705-36.263705v-419.614585c0-20.017565-16.24614-36.263705-36.263705-36.263705z m-383.35088 72.52741h347.087175V291.614585H604.385415v-347.087175z"/></svg>
