<svg width="19" height="19" viewBox="0 0 19 19" fill="none" xmlns="http://www.w3.org/2000/svg">
<path fill-rule="evenodd" clip-rule="evenodd" d="M11.0625 0.125H16.7917C17.9423 0.125 18.875 1.05774 18.875 2.20833V16.7917C18.875 17.9423 17.9423 18.875 16.7917 18.875H11.0625C10.7749 18.875 10.5417 18.6418 10.5417 18.3542V17.3125C10.5417 17.0249 10.7749 16.7917 11.0625 16.7917H16.7917V2.20833H11.0625C10.7749 2.20833 10.5417 1.97515 10.5417 1.6875V0.645833C10.5417 0.358185 10.7749 0.125 11.0625 0.125ZM14.7083 9.30206V9.6979C14.7082 9.90503 14.6257 10.1036 14.4792 10.25L9.125 15.5937C9.0272 15.6923 8.89408 15.7478 8.75521 15.7478C8.61633 15.7478 8.48321 15.6923 8.38542 15.5937L7.64583 14.8646C7.54723 14.7668 7.49177 14.6336 7.49177 14.4948C7.49177 14.3559 7.54723 14.2228 7.64583 14.125L11.2396 10.5416H0.645833C0.358185 10.5416 0.125 10.3085 0.125 10.0208V8.97915C0.125 8.6915 0.358185 8.45831 0.645833 8.45831H11.2396L7.64583 4.87498C7.54785 4.77898 7.49263 4.64758 7.49263 4.5104C7.49263 4.37322 7.54785 4.24182 7.64583 4.14581L8.38542 3.40623C8.48321 3.30763 8.61633 3.25217 8.75521 3.25217C8.89408 3.25217 9.0272 3.30763 9.125 3.40623L14.4792 8.74998C14.6238 8.89761 14.7059 9.09538 14.7083 9.30206Z" fill="#E60012"/>
</svg>
