<svg width="16" height="25" viewBox="0 0 16 25" fill="none" xmlns="http://www.w3.org/2000/svg">
<path d="M1.17873 13.4322C0.571859 14.6251 1.2609 15.1953 2.83301 16.1695C4.1695 16.9952 6.01585 17.2971 7.20186 17.4179C6.71577 17.8852 8.94326 15.7428 2.52809 21.9134C1.16784 23.2173 3.35771 25.3091 4.71697 24.033L8.39679 20.4839C9.80555 21.8392 11.1559 23.1381 12.0766 24.038C13.4369 25.319 15.6257 23.245 14.2803 21.9184C14.1794 21.8224 9.29372 17.1357 9.59171 17.4228C10.7926 17.302 12.6112 16.9823 13.9319 16.1744L13.9309 16.1735C15.503 15.1943 16.192 14.6251 15.5941 13.4322C15.2327 12.755 14.2586 12.1887 12.9617 13.1678C12.9617 13.1678 11.2104 14.5093 8.3859 14.5093C5.56045 14.5093 3.81014 13.1678 3.81014 13.1678C2.51423 12.1838 1.53612 12.755 1.17873 13.4322Z" fill="white"/>
<path d="M8.3839 12.7005C11.8271 12.7005 14.6387 10.0097 14.6387 6.6972C14.6387 3.37081 11.8271 0.68 8.3839 0.68C4.9397 0.68 2.12812 3.37081 2.12812 6.6972C2.12812 10.0097 4.9397 12.7005 8.3839 12.7005ZM8.3839 3.7282C10.0758 3.7282 11.4559 5.05578 11.4559 6.6972C11.4559 8.32475 10.0758 9.65233 8.3839 9.65233C6.692 9.65233 5.31194 8.32475 5.31194 6.6972C5.31095 5.05479 6.69101 3.7282 8.3839 3.7282Z" fill="white"/>
</svg>
