<svg width="14" height="16" fill="none" xmlns="http://www.w3.org/2000/svg"><path fill-rule="evenodd" clip-rule="evenodd" d="M2.334 3.333A.667.667 0 001.667 4v9.333c0 .368.299.667.667.667h9.333a.667.667 0 00.667-.667V4a.667.667 0 00-.667-.667H2.334zM.334 4a2 2 0 012-2h9.333a2 2 0 012 2v9.333a2 2 0 01-2 2H2.334a2 2 0 01-2-2V4z" fill="#595757"/><path fill-rule="evenodd" clip-rule="evenodd" d="M9.667.667c.369 0 .667.298.667.666V4a.667.667 0 01-1.333 0V1.333c0-.368.298-.666.666-.666zM4.334.667c.368 0 .667.298.667.666V4a.667.667 0 01-1.334 0V1.333c0-.368.299-.666.667-.666zM.334 6.667c0-.369.298-.667.667-.667h12a.667.667 0 010 1.333H1a.667.667 0 01-.667-.666z" fill="#595757"/></svg>