<svg width="30" height="30" viewBox="0 0 30 30" fill="none" xmlns="http://www.w3.org/2000/svg">
<g clip-path="url(#clip0)">
<path d="M3.77115 3.77262C6.20397 1.3398 9.43852 0 12.879 0C16.3194 0 19.554 1.3398 21.9867 3.77262C24.4195 6.20537 25.7593 9.43992 25.7593 12.8803C25.7593 16.0258 24.6388 18.9987 22.5875 21.3446L29.7408 28.498C30.0844 28.8416 30.0844 29.3987 29.7408 29.7423C29.569 29.914 29.3439 30 29.1188 30C28.8936 30 28.6684 29.9141 28.4967 29.7422L21.3433 22.5889C18.9974 24.6401 16.0245 25.7607 12.879 25.7607C9.43846 25.7607 6.20403 24.4209 3.77121 21.9881C1.33846 19.5554 -0.00134468 16.3208 -0.00134468 12.8804C-0.00134468 9.43992 1.3384 6.20537 3.77115 3.77262ZM5.01545 20.7439C9.35145 25.0798 16.4064 25.0798 20.7424 20.7439C25.0784 16.4079 25.0784 9.35285 20.7424 5.01691C18.5742 2.84871 15.727 1.76496 12.8789 1.76496C10.0315 1.76496 7.18313 2.84924 5.01539 5.01691C0.679573 9.35279 0.679573 16.4079 5.01545 20.7439Z" fill="#9FA0A0"/>
</g>
<defs>
<clipPath id="clip0">
<rect width="30" height="30" fill="white" transform="matrix(-1 0 0 1 30 0)"/>
</clipPath>
</defs>
</svg>
