<svg width="20" height="20" viewBox="0 0 20 20" fill="none" xmlns="http://www.w3.org/2000/svg">
<path fill-rule="evenodd" clip-rule="evenodd" d="M15.4137 13.8366L19.8573 18.2856C20.0558 18.5063 20.046 18.8442 19.8351 19.053L19.0575 19.8316C18.9532 19.9369 18.8112 19.9961 18.6631 19.9961C18.515 19.9961 18.3731 19.9369 18.2688 19.8316L13.8251 15.3826C13.7022 15.2595 13.5907 15.1255 13.4919 14.9822L12.6587 13.87C11.2801 14.9722 9.56822 15.5722 7.80405 15.5717C4.16875 15.5844 1.0098 13.0736 0.197408 9.52598C-0.614988 5.97831 1.13598 2.34053 4.41369 0.766304C7.6914 -0.807923 11.6211 0.10154 13.8762 2.95626C16.1314 5.81099 16.1102 9.84909 13.8251 12.6799L14.936 13.4473C15.1095 13.5585 15.2698 13.6891 15.4137 13.8366ZM2.24951 7.78601C2.24951 10.8574 4.73635 13.3472 7.80402 13.3472C9.27717 13.3472 10.69 12.7613 11.7317 11.7184C12.7733 10.6754 13.3585 9.26093 13.3585 7.78601C13.3585 4.71464 10.8717 2.2248 7.80402 2.2248C4.73635 2.2248 2.24951 4.71464 2.24951 7.78601Z" fill="#E60012"/>
</svg>
