<svg width="14" height="12" viewBox="0 0 14 12" fill="none" xmlns="http://www.w3.org/2000/svg">
<path d="M9.34875 0.00252326V0H10.0048L10.2445 0.047942C10.4043 0.0790664 10.5494 0.119855 10.6798 0.17032C10.8102 0.220785 10.9363 0.279666 11.0583 0.346949C11.1802 0.414231 11.2908 0.482788 11.3901 0.552594C11.4885 0.621568 11.5768 0.694742 11.655 0.772118C11.7324 0.850339 11.8531 0.870525 12.0171 0.832676C12.1811 0.794827 12.3578 0.742255 12.547 0.674973C12.7362 0.60769 12.9234 0.531992 13.1084 0.447879C13.2935 0.363766 13.4062 0.310361 13.4466 0.287652C13.4861 0.26411 13.5071 0.251494 13.5096 0.249803L13.5122 0.246018L13.5248 0.23971L13.5374 0.233402L13.55 0.227094L13.5626 0.220785L13.5651 0.217001L13.5689 0.214477L13.5727 0.211954L13.5752 0.208169L13.5879 0.204384L13.6005 0.201861L13.598 0.220785L13.5942 0.23971L13.5879 0.258634L13.5815 0.277559L13.5752 0.290175L13.5689 0.302791L13.5626 0.321716C13.5584 0.334332 13.5542 0.35115 13.55 0.372181C13.5458 0.393213 13.5058 0.477313 13.4301 0.624507C13.3545 0.771702 13.2598 0.920991 13.1463 1.07239C13.0327 1.22378 12.931 1.33816 12.841 1.41555C12.7501 1.49377 12.69 1.54844 12.6605 1.57956C12.6311 1.61152 12.5954 1.64095 12.5533 1.66788L12.4902 1.70951L12.4776 1.71582L12.465 1.72213L12.4625 1.72591L12.4587 1.72843L12.4549 1.73096L12.4524 1.73474L12.4398 1.74105L12.4271 1.74736L12.4246 1.75114L12.4208 1.75367L12.4171 1.75619L12.4145 1.75998L12.412 1.76376L12.4082 1.76628L12.4044 1.76881L12.4019 1.77259H12.465L12.8183 1.69689C13.0538 1.64643 13.2788 1.58545 13.4932 1.51396L13.8339 1.40041L13.8717 1.38779L13.8906 1.38149L13.9033 1.37518L13.9159 1.36887L13.9285 1.36256L13.9411 1.35625L13.9663 1.35247L13.9916 1.34995V1.37518L13.9853 1.3777L13.979 1.38149L13.9765 1.38527L13.9727 1.38779L13.9689 1.39032L13.9663 1.3941L13.9638 1.39789L13.96 1.40041L13.9563 1.40293L13.9537 1.40672L13.9512 1.4105L13.9474 1.41303L13.9411 1.42564L13.9348 1.43826L13.931 1.44078C13.9293 1.44331 13.8759 1.51479 13.7708 1.65526C13.6657 1.79656 13.6089 1.86805 13.6005 1.86974C13.5921 1.87226 13.5803 1.88488 13.5651 1.90759C13.5508 1.93113 13.4617 2.02492 13.2977 2.18893C13.1337 2.35294 12.973 2.49886 12.8157 2.62672C12.6576 2.7554 12.5777 2.91352 12.576 3.10109C12.5735 3.28781 12.5638 3.49893 12.547 3.73443C12.5302 3.96994 12.4986 4.22436 12.4524 4.49771C12.4061 4.77107 12.3346 5.08017 12.2379 5.42501C12.1412 5.76985 12.0234 6.10629 11.8846 6.43432C11.7459 6.76234 11.6008 7.05672 11.4494 7.31746C11.298 7.5782 11.1592 7.79899 11.033 7.97982C10.9069 8.16065 10.7786 8.33097 10.6482 8.49078C10.5179 8.65059 10.353 8.83058 10.1537 9.03075C9.9535 9.23009 9.84417 9.33944 9.82566 9.35878C9.80632 9.37729 9.7239 9.44626 9.57837 9.56569C9.43371 9.68596 9.2781 9.80623 9.11156 9.92651C8.94587 10.046 8.79363 10.1456 8.65485 10.2255C8.51606 10.3054 8.3487 10.3967 8.15271 10.4993C7.95759 10.6027 7.74646 10.6986 7.51937 10.7869C7.29227 10.8753 7.05256 10.9573 6.80024 11.033C6.54791 11.1087 6.30399 11.1675 6.06848 11.2096C5.83299 11.2516 5.56594 11.2874 5.26734 11.3168L4.81946 11.361V11.3673H3.9994V11.361L3.89216 11.3547C3.82067 11.3505 3.76179 11.3463 3.71553 11.3421C3.66928 11.3379 3.49474 11.3147 3.19195 11.2727C2.88915 11.2306 2.65155 11.1886 2.47912 11.1465C2.30671 11.1045 2.05016 11.0245 1.70952 10.9068C1.36888 10.7891 1.07744 10.67 0.835205 10.5498C0.593816 10.4303 0.442419 10.3546 0.381015 10.3227C0.320456 10.2915 0.252328 10.2529 0.176629 10.2066L0.063082 10.1372L0.0605713 10.1334L0.0567738 10.1309L0.0529888 10.1284L0.0504656 10.1246L0.0378492 10.1183L0.0252328 10.112L0.0227221 10.1082L0.0189246 10.1057L0.0151397 10.1031L0.0126164 10.0994L0.0101057 10.0956L0.0063082 10.093H0V10.0678L0.0126164 10.0703L0.0252328 10.0741L0.0820066 10.0804C0.119856 10.0846 0.222894 10.0909 0.391108 10.0994C0.559335 10.1078 0.738059 10.1078 0.927305 10.0994C1.11655 10.0909 1.31001 10.072 1.50766 10.0426C1.70532 10.0131 1.93872 9.96268 2.20787 9.89119C2.47703 9.81969 2.72431 9.73474 2.94973 9.63634C3.1743 9.5371 3.3341 9.46308 3.42915 9.41429C3.52334 9.36635 3.66717 9.27719 3.86062 9.14682L4.15079 8.95127L4.15332 8.94749L4.1571 8.94496L4.1609 8.94244L4.16341 8.93865L4.16593 8.93487L4.16972 8.93235L4.17352 8.92982L4.17603 8.92604L4.18864 8.92225L4.20126 8.91973L4.20378 8.90711L4.20757 8.8945L4.21136 8.89197L4.21387 8.88819L4.11294 8.88188C4.04566 8.87768 3.98047 8.87347 3.91739 8.86927C3.85431 8.86506 3.75548 8.84614 3.6209 8.81249C3.48634 8.77884 3.34125 8.72838 3.18564 8.6611C3.03004 8.59381 2.87864 8.5139 2.73145 8.42139C2.58427 8.32887 2.47786 8.2519 2.41225 8.19051C2.34749 8.12994 2.26338 8.04416 2.15993 7.93314C2.05732 7.82128 1.96816 7.70646 1.89246 7.58871C1.81676 7.47096 1.74443 7.33511 1.67547 7.1812L1.57074 6.95159L1.56443 6.93266L1.55812 6.91374L1.55434 6.90112L1.55182 6.8885L1.57074 6.89103L1.58967 6.89481L1.72845 6.91374C1.82097 6.92635 1.96606 6.93055 2.16371 6.92635C2.36137 6.92215 2.49805 6.91374 2.57374 6.90112C2.64944 6.8885 2.69571 6.88009 2.71252 6.87589L2.73776 6.86958L2.7693 6.86327L2.80084 6.85696L2.80336 6.85318L2.80715 6.85066L2.81094 6.84813L2.81346 6.84435L2.78822 6.83804L2.76299 6.83173L2.73776 6.82542L2.71252 6.81912L2.68729 6.81281C2.67047 6.80861 2.64104 6.80019 2.59898 6.78757C2.55693 6.77496 2.44338 6.72869 2.25833 6.6488C2.0733 6.5689 1.92611 6.49109 1.81676 6.41539C1.70714 6.33948 1.60262 6.25645 1.50387 6.16685C1.40547 6.07601 1.29739 5.9591 1.17963 5.81612C1.06188 5.67314 0.956751 5.50702 0.864223 5.31777C0.771707 5.12853 0.702317 4.9477 0.656052 4.77527C0.609974 4.60386 0.579574 4.42861 0.565227 4.2517L0.542505 3.98675L0.555121 3.98928L0.567738 3.99306L0.580354 3.99937L0.59297 4.00568L0.605587 4.01199L0.618203 4.01829L0.813757 4.10661C0.944135 4.16549 1.10604 4.21595 1.29949 4.258C1.49295 4.30005 1.60859 4.32319 1.64644 4.32739L1.70321 4.3337H1.81676L1.81425 4.32992L1.81045 4.32739L1.80667 4.32487L1.80414 4.32109L1.80163 4.3173L1.79784 4.31478L1.79405 4.31225L1.79153 4.30847L1.77891 4.30216L1.76629 4.29585L1.76378 4.29207L1.75999 4.28955L1.7562 4.28702L1.75368 4.28324L1.74106 4.27693L1.72845 4.27062L1.72593 4.26684C1.72341 4.26515 1.68724 4.23823 1.61742 4.18609C1.54845 4.1331 1.47612 4.06456 1.40042 3.98045C1.32472 3.89633 1.24902 3.80802 1.17332 3.7155C1.09749 3.62278 1.02994 3.52357 0.971462 3.41902C0.912594 3.31389 0.850345 3.18014 0.78474 3.01782C0.71998 2.85633 0.670776 2.69358 0.637128 2.52957C0.603492 2.36556 0.584568 2.20365 0.580354 2.04384C0.576153 1.88403 0.580354 1.74736 0.59297 1.63381C0.605587 1.52027 0.63082 1.392 0.668669 1.24901C0.706518 1.10603 0.761197 0.954638 0.832682 0.794827L0.939921 0.555118L0.946229 0.536193L0.952538 0.517269L0.956335 0.514745L0.958846 0.510961L0.961369 0.507176L0.965154 0.504652L0.968952 0.507176L0.971462 0.510961L0.973985 0.514745L0.97777 0.517269L0.981568 0.519792L0.984079 0.523577L0.986602 0.527362L0.990387 0.529885L0.996695 0.542501L1.003 0.555118L1.0068 0.557641L1.00931 0.561426L1.17963 0.75067C1.29318 0.876833 1.42776 1.01772 1.58336 1.17332C1.73897 1.32891 1.82518 1.40966 1.84199 1.41555C1.85882 1.42227 1.87984 1.44162 1.90508 1.47359C1.93031 1.50471 2.01442 1.57915 2.1574 1.69689C2.3004 1.81464 2.48754 1.95133 2.71883 2.10692C2.95014 2.26252 3.20667 2.41602 3.48843 2.56742C3.77021 2.71881 4.073 2.85549 4.39681 2.97745C4.72064 3.09941 4.94773 3.17931 5.0781 3.21716C5.20848 3.25501 5.43136 3.30337 5.74677 3.36225C6.06218 3.42113 6.29979 3.45898 6.45959 3.47579C6.6194 3.49261 6.72875 3.50229 6.78762 3.50481L6.87593 3.50733L6.87342 3.48841L6.86963 3.46949L6.84439 3.31178C6.82758 3.20665 6.81916 3.05945 6.81916 2.87021C6.81916 2.68097 6.83388 2.50644 6.86332 2.34663C6.89276 2.18682 6.93692 2.02492 6.99579 1.86091C7.05467 1.69689 7.11229 1.56526 7.16863 1.46602C7.22584 1.36761 7.30069 1.25532 7.39321 1.12916C7.48573 1.003 7.60559 0.872632 7.75277 0.738054C7.89997 0.603476 8.06818 0.483621 8.25743 0.378489C8.44667 0.273358 8.62121 0.193446 8.78101 0.138779C8.94082 0.0841129 9.0754 0.0483583 9.18473 0.0315408C9.29408 0.0147232 9.34875 0.00504652 9.34875 0.00252326Z" fill="white"/>
</svg>
