<svg width="14" height="8" viewBox="0 0 14 8" fill="none" xmlns="http://www.w3.org/2000/svg">
<path fill-rule="evenodd" clip-rule="evenodd" d="M12.0489 5.07621C12.5133 5.52961 13.0034 5.9562 13.4199 6.45533C13.6039 6.67713 13.7781 6.90602 13.9114 7.16342C14.1002 7.52934 13.9292 7.93201 13.6011 7.95386L11.5615 7.95294C11.0355 7.99659 10.6158 7.78482 10.263 7.42516C9.98061 7.13753 9.71911 6.83141 9.44758 6.53408C9.33627 6.41255 9.21975 6.2982 9.08056 6.20781C8.80214 6.02708 8.56046 6.08242 8.40135 6.37281C8.2393 6.66816 8.20255 6.99521 8.18664 7.32437C8.16479 7.80464 8.01962 7.93091 7.53719 7.95289C6.50618 8.00151 5.52771 7.84553 4.61874 7.32543C3.81736 6.86692 3.19593 6.21963 2.65504 5.48684C1.60191 4.05992 0.795422 2.49198 0.0705827 0.880112C-0.0925728 0.516956 0.0267464 0.322015 0.427436 0.315116C1.0928 0.30219 1.75807 0.30311 2.42422 0.314196C2.69464 0.318152 2.87366 0.473257 2.97808 0.728732C3.33806 1.61388 3.77854 2.45601 4.33144 3.2366C4.47868 3.44442 4.62882 3.65224 4.84262 3.79852C5.07914 3.96048 5.25922 3.9068 5.37049 3.64332C5.4411 3.47625 5.47201 3.29631 5.48792 3.11737C5.54064 2.50178 5.54758 1.88724 5.45513 1.27381C5.39837 0.890968 5.18273 0.643129 4.80071 0.570682C4.60577 0.533745 4.6348 0.461206 4.72918 0.349937C4.89312 0.158032 5.04731 0.0385742 5.35467 0.0385742H7.65968C8.02256 0.110193 8.10315 0.273211 8.15283 0.638345L8.1548 3.19875C8.15085 3.3401 8.22541 3.75956 8.48001 3.85312C8.68378 3.91972 8.8181 3.7567 8.94036 3.62749C9.49225 3.04175 9.88613 2.34953 10.238 1.63274C10.3942 1.31756 10.5284 0.990232 10.6586 0.663184C10.755 0.420498 10.9063 0.301086 11.1796 0.306376L13.3981 0.308354C13.4639 0.308354 13.5304 0.30932 13.5941 0.320221C13.968 0.383929 14.0704 0.544739 13.9549 0.909781C13.773 1.48251 13.4191 1.95978 13.073 2.43927C12.703 2.95118 12.3073 3.44557 11.9405 3.96052C11.6034 4.43076 11.6301 4.66779 12.0489 5.07621Z" fill="white"/>
</svg>
