<svg width="14" height="10" fill="none" xmlns="http://www.w3.org/2000/svg"><path d="M13.405.964c-.38-.702-.792-.831-1.631-.88C10.936.024 8.828 0 7.002 0c-1.83 0-3.939.025-4.776.083C1.389.133.976.26.592.963.202 1.666 0 2.873 0 4.998v.008C0 7.12.201 8.337.592 9.03c.384.702.796.829 1.633.888.838.051 2.947.081 4.777.081 1.826 0 3.934-.03 4.773-.08.839-.06 1.251-.186 1.63-.888.396-.694.595-1.91.595-4.027v-.004-.003c0-2.126-.2-3.333-.595-4.034zM5.25 7.727V2.273L9.625 5 5.25 7.727z" fill="#fff"/></svg>