<svg width="58" height="60" fill="none" xmlns="http://www.w3.org/2000/svg"><path fill-rule="evenodd" clip-rule="evenodd" d="M27.995 26.18a1.522 1.522 0 012.522-.015l10.137 14.752 2.602-3.2a1.522 1.522 0 012.444.107l12.03 17.72c.694 1.022-.032 2.407-1.26 2.407h-4.175c.34.958-.353 2.049-1.443 2.049H1.53C.3 60-.426 58.609.273 57.589l13.574-19.82a1.521 1.521 0 012.407-.141l2.287 2.63.23-.331.002-.004 9.222-13.744zm-8.757 14.148L8.436 55.884c-.425.612.01 1.452.752 1.452h42.005L40.546 41.84a1.52 1.52 0 01-1.763-.222L34.23 37.4a.88.88 0 00-1.162-.044c-.524.431-1.195 1.007-1.695 1.51-.098.098-.217.215-.352.346-.395.387-.92.9-1.384 1.426.051.081.1.162.148.243.156.265.291.53.384.779.09.244.15.498.131.733a.794.794 0 01-.367.631c-.219.138-.506.182-.834.165-.326-.016-.605-.085-.808-.237a.771.771 0 01-.312-.65c.003-.232.087-.471.2-.696.114-.23.272-.47.451-.708.076-.102.157-.204.24-.307-.536-.776-1.201-1.556-1.593-2.016a84.58 84.58 0 00-1.319-1.512.898.898 0 00-1.145-.165l-5.575 3.431zm10.046-.216c.463-.513.964-1.003 1.33-1.36.128-.125.24-.234.326-.322.523-.526 1.214-1.117 1.741-1.551a1.488 1.488 0 011.962.067l4.554 4.22c.28.26.674.31.997.164l-10.18-14.815a.913.913 0 00-1.513.008L20.064 39.1l4.43-2.727a1.507 1.507 0 011.918.279c.358.4.813.917 1.253 1.434l.08.095c.367.43.998 1.17 1.539 1.932zm-.062 1.02l-.104.135c-.166.222-.301.43-.394.615-.095.19-.133.33-.134.426 0 .078.021.116.065.149.063.047.2.103.475.117.272.013.412-.03.477-.072.047-.03.077-.07.084-.16.008-.105-.018-.26-.095-.467a4.444 4.444 0 00-.374-.744zm11.794.311l10.92 15.893h4.534c.737 0 1.172-.831.756-1.444l-12.031-17.72a.913.913 0 00-1.466-.065l-2.713 3.336zm10.6 16.508H9.188c-1.236 0-1.96-1.4-1.253-2.42l10.246-14.755-2.387-2.743a.913.913 0 00-1.444.084L.776 57.937c-.42.613.016 1.448.754 1.448h49.322c.734 0 1.168-.823.764-1.434z" fill="#C7000B"/><path fill-rule="evenodd" clip-rule="evenodd" d="M29.475.615a1.14 1.14 0 00-1.136 1.144v24.794h-.611V1.759C27.728.788 28.51 0 29.475 0c.965 0 1.747.788 1.747 1.759v.547c.598-.488 1.29-.613 1.857-.613h9.469c.843 0 1.527.689 1.527 1.538v4.51h8.569c1.193 0 1.925 1.314 1.304 2.339l-2.813 4.642a.929.929 0 00-.013.94l2.328 4.083c.58 1.018-.139 2.29-1.306 2.3-3.497.034-8.541.057-10.668-.022-1.684-.063-2.705-1.083-2.809-2.215a2.029 2.029 0 01-.001-.358v-5.047h-6.12a1.942 1.942 0 01-1.935-1.948V4.802c-.07.407-.11.88-.11 1.432l.004 2.156c.01 4.09.028 12.578-.004 17.802l-.611-.004c.032-5.22.013-13.7.004-17.792l-.004-2.162c0-1.49.277-2.526.72-3.23V1.76A1.14 1.14 0 0029.476.615zm1.747 2.579v9.26c0 .737.593 1.334 1.324 1.334h8.941c.661 0 1.16.267 1.48.687.312.41.435.94.411 1.45a2.59 2.59 0 01-.019.212 5.38 5.38 0 00.07-.579c.035-.474.035-1.035.035-1.704V3.23a.92.92 0 00-.916-.922h-9.47c-.552 0-1.178.138-1.67.66a2.28 2.28 0 00-.186.225zm10.265 14.222c.74 0 1.242-.696 1.28-1.52.02-.399-.08-.776-.286-1.046-.198-.26-.513-.447-.994-.447h-2.21v3.773l.033-.031c.485-.452 1.218-.729 2.177-.729zm-2.21 2.063c.033-.322.18-.633.448-.883.346-.322.917-.564 1.762-.564.593 0 1.073-.078 1.452-.261.39-.189.654-.48.824-.858.165-.366.24-.81.276-1.31.036-.498.036-1.082.036-1.74V8.356h8.569c.715 0 1.155.789.782 1.404l-2.813 4.642c-.29.48-.299 1.08-.02 1.567l2.327 4.083c.349.611-.084 1.372-.782 1.378-3.502.033-8.53.056-10.64-.022-1.433-.054-2.144-.884-2.221-1.643v-.286z" fill="#C7000B"/></svg>