<svg width="60" height="60" fill="none" xmlns="http://www.w3.org/2000/svg"><path fill-rule="evenodd" clip-rule="evenodd" d="M18.549 1.623C33.26-2.898 49.874 2.23 56.211 14.45c.945 1.823 1.323 3.18 1.24 4.12-.042.48-.207.873-.5 1.152-.29.277-.675.409-1.094.433-.823.048-1.856-.31-2.9-.93-1.056-.624-2.163-1.538-3.142-2.66-.946-1.084-1.797-2.118-2.6-3.093-3.436-4.174-5.991-7.278-11.362-8.675-6.149-1.599-10.984 4.37-9.348 9.319a22.299 22.299 0 012.715-.271c3.016-.135 4.955.374 6.03 1.185.544.409.872.9.99 1.423a2.097 2.097 0 01-.247 1.508c-1.053 1.852-4.566 2.662-8.007-.492-.87-.798-1.492-1.693-1.889-2.634-1.514.316-2.425.794-2.912 1.33-.494.543-.585 1.182-.367 1.898.223.732.77 1.529 1.539 2.312.763.778 1.726 1.522 2.746 2.15 1.603.985 4.227 3.588 6.03 6.81 1.804 3.222 2.832 7.15 1.088 10.737-1.644 3.38-1.742 5.592-1.16 6.873.564 1.243 1.825 1.711 3.227 1.481 1.407-.23 2.895-1.165 3.768-2.648.867-1.471 1.142-3.505.084-5.968-.414-.963-.863-2.099-1.313-3.238l-.06-.152-.015-.038c-.224-.357-.443-.71-.653-1.054-.757-1.238-1.412-2.37-1.858-3.232-.223-.43-.397-.801-.506-1.088a2.423 2.423 0 01-.118-.39.867.867 0 01-.018-.18.537.537 0 01.396-.497c.17-.04.319.022.419.087.188.124.364.36.526.622.337.545.733 1.405 1.154 2.4.392.928.811 1.989 1.23 3.048 1.377 2.192 2.97 4.568 4.26 6.322a.495.495 0 00.776.036c1.486-1.715 3.477-4.335 5.07-7.095.8-1.384 1.492-2.789 1.973-4.123a5.939 5.939 0 01-2.151 1.073c-1.295.345-2.87.315-4.79-.273h-.001a7.02 7.02 0 01-1.629-.777c-.934.174-1.925.2-2.864.074-1.203-.16-2.347-.573-3.182-1.266-.845-.703-1.363-1.688-1.295-2.946.145-2.664 1.625-4.465 3.19-5.612 1.555-1.142 3.22-1.659 3.822-1.762 1.882-.322 4.364-.001 6.417 1.204 2.068 1.214 3.697 3.325 3.827 6.547.017.407-.006.831-.062 1.268.761-1.294 1.156-2.7 1.41-3.605l.028-.095c.538-1.912 1.15-3.093 1.814-3.654.344-.29.72-.428 1.108-.388.38.04.718.244 1.008.531.574.568 1.045 1.544 1.378 2.679.337 1.144.544 2.49.564 3.836.179 11.942-4.896 19.816-11.291 24.695-6.382 4.868-14.069 6.75-19.144 6.75-.841 0-1.648-.038-2.419-.109-.474.408-1.16.592-1.83.592-2.456 0-5.885-.847-12.753-5.668a27.51 27.51 0 01-.611-.441c-1.198.205-2.36.36-3.298.443-.487.042-.919.065-1.267.064-.333 0-.635-.023-.832-.096l.224-.591c.077.028.273.055.61.056.322 0 .732-.02 1.209-.062a39.307 39.307 0 002.668-.341C3.506 47.21 0 37.598 0 28.077c0-2.066.588-5.844 1.139-7.613.13-.42.264-.82.412-1.21a36.76 36.76 0 01-.53-1.318c-.742-1.948-.302-4.428 1.022-6.43 1.33-2.012 3.577-3.582 6.501-3.68a8.72 8.72 0 01.186-.005c2.647-2.754 5.915-4.998 9.819-6.198zM8.159 8.481c-2.49.214-4.414 1.6-5.585 3.372-1.24 1.876-1.612 4.144-.959 5.86.091.238.185.476.28.713.437-.957 1.017-1.908 1.924-3.034a8.563 8.563 0 012.16-1.898c.067-.403.162-.813.282-1.223.103-.35.392-1.113.795-1.936.304-.62.68-1.291 1.104-1.854zM6.7 13.114c.049-.22.106-.442.172-.667.09-.307.364-1.036.756-1.836.382-.78.863-1.599 1.376-2.157 2.633.054 4.809 1.407 6.191 3.22 1.466 1.923 2.006 4.314 1.31 6.17-1.292 3.445-5.208 9.485-7.233 12.351a.509.509 0 01-.847-.028c-2.422-3.782-4.603-7.27-6.187-10.926.444-1.11 1.033-2.157 2.077-3.455.41-.51.955-1.036 1.566-1.47-.055.793.01 1.538.216 2.176.19.589.503 1.098.963 1.46.463.364 1.051.56 1.756.56.747 0 1.345-.2 1.8-.54.453-.338.745-.796.908-1.28.163-.482.2-.996.14-1.46-.06-.462-.22-.9-.477-1.214-.572-.7-1.233-1.1-1.937-1.255-.698-.155-1.412-.065-2.085.167a5.59 5.59 0 00-.465.184zm-.136.774c-.12.911-.076 1.746.138 2.412.161.498.414.89.753 1.157.337.264.781.424 1.36.424.628 0 1.088-.167 1.42-.414.333-.249.557-.592.686-.976.13-.384.16-.801.112-1.179-.05-.381-.178-.698-.34-.896-.49-.6-1.031-.915-1.581-1.037-.555-.123-1.146-.056-1.739.147a5.314 5.314 0 00-.81.362zM1.924 20.1c1.581 3.49 3.678 6.836 5.964 10.405.436.68 1.43.724 1.904.052 2.022-2.861 5.984-8.962 7.309-12.494.793-2.114.158-4.73-1.398-6.77C14.32 9.48 12.184 8.08 9.587 7.853c2.507-2.499 5.546-4.514 9.13-5.62.87-.142 1.982-.23 2.957.167.954.387 1.838 1.26 2.2 3.185.434 2.306-.024 4.512-.776 6.234-.376.86-.823 1.595-1.26 2.155-.444.567-.86.931-1.168 1.084-.807.4-1.17 1.02-1.274 1.746-.1.694.037 1.486.188 2.262l.058.295c.139.696.276 1.388.299 2.06.026.759-.098 1.457-.515 2.063-1.176 1.705-1.611 3.065-1.494 4.204.119 1.148.792 1.995 1.655 2.686.71.57 1.584 1.058 2.43 1.53.17.096.34.19.506.285 1.013.575 1.934 1.15 2.546 1.864 1.503 1.752 1.851 2.818 1.704 3.52-.148.699-.814 1.19-1.833 1.71-.258.132-.535.264-.824.401-.796.379-1.67.794-2.404 1.335-1.024.754-1.831 1.787-1.911 3.371-.257 5.1 2.424 7.84 4.925 10.396.452.463.9.92 1.322 1.384.651.715.942 1.292 1.02 1.731.062.359-.014.635-.173.848-6.835-.714-10.733-4.044-12.072-5.435a25.81 25.81 0 002.291-.634 9.337 9.337 0 001.046-.414c.287-.138.538-.29.708-.459.791-.785.768-1.97.238-2.84-.54-.886-1.624-1.488-2.996-1.14-.45.114-.796-.04-1.12-.38-.338-.356-.615-.884-.892-1.44l-.065-.13a17.249 17.249 0 00-.34-.664 3.454 3.454 0 00-.45-.662c-.167-.181-.382-.34-.654-.372-.28-.032-.543.078-.786.276-.496.402-.722 1.005-.772 1.675-.05.67.074 1.44.309 2.234.448 1.516 1.323 3.187 2.324 4.559-.513.107-1.036.207-1.554.298C4.226 47.235.636 37.641.636 28.077c0-2.003.58-5.718 1.11-7.427.059-.187.118-.37.178-.55zM12.81 53.736l.114.08c6.824 4.79 10.122 5.552 12.386 5.552.252 0 .492-.03.71-.088-6.994-.965-10.827-4.592-11.914-5.805-.426.092-.86.179-1.296.26zm1.534-.96a26.7 26.7 0 002.565-.695c.383-.128.71-.257.972-.383.267-.128.442-.243.536-.337.536-.533.56-1.384.144-2.066-.405-.665-1.212-1.13-2.295-.857-.738.187-1.307-.103-1.739-.557-.415-.436-.73-1.052-1-1.594l-.067-.135c-.113-.228-.22-.442-.326-.636a2.853 2.853 0 00-.362-.539c-.116-.126-.2-.164-.258-.17-.05-.006-.147.004-.31.136-.315.257-.498.668-.54 1.234-.041.566.062 1.255.285 2.01.446 1.506 1.348 3.203 2.374 4.56l-.062.047.062-.046.021.027zm13.244 6.036c.633.048 1.29.074 1.971.074 4.948 0 12.496-1.844 18.756-6.62 6.246-4.764 11.219-12.453 11.043-24.184a14.08 14.08 0 00-.538-3.67c-.323-1.098-.757-1.952-1.217-2.408-.227-.225-.438-.33-.625-.35-.178-.018-.387.036-.63.241-.508.43-1.08 1.446-1.614 3.343l-.033.118c-.33 1.173-.932 3.32-2.337 4.957-.479 1.733-1.358 3.59-2.382 5.363-1.618 2.8-3.634 5.453-5.14 7.192-.48.555-1.343.51-1.773-.075a96.68 96.68 0 01-2.503-3.604l.158.373c1.13 2.63.857 4.876-.12 6.535-.97 1.646-2.62 2.691-4.213 2.953-1.597.261-3.195-.267-3.912-1.846-.7-1.541-.5-3.976 1.168-7.407 1.612-3.316.69-7.008-1.07-10.155-1.76-3.146-4.314-5.662-5.81-6.58-1.056-.65-2.061-1.425-2.867-2.247-.802-.817-1.427-1.7-1.692-2.57-.27-.885-.167-1.766.504-2.504.605-.664 1.639-1.175 3.163-1.505-1.715-5.393 3.52-11.77 10.138-10.05 5.587 1.453 8.289 4.74 11.74 8.938.792.964 1.625 1.977 2.541 3.027.939 1.075 1.994 1.944 2.987 2.532 1.003.595 1.903.879 2.538.842.31-.018.536-.111.692-.26.154-.147.273-.381.306-.75.066-.754-.24-1.977-1.172-3.776C49.822 3.511 34.98-1.654 21.125 1.582c.265.052.53.128.79.233 1.186.482 2.19 1.555 2.584 3.654.463 2.456-.027 4.79-.818 6.601a10.72 10.72 0 01-1.341 2.291c-.468.598-.954 1.048-1.385 1.262-.602.299-.851.729-.93 1.27-.081.572.03 1.262.184 2.052l.057.29c.138.691.286 1.438.31 2.165.029.838-.105 1.685-.626 2.44-1.136 1.65-1.48 2.859-1.385 3.783.094.914.626 1.623 1.421 2.26.666.533 1.483.99 2.328 1.463.174.097.35.195.524.295 1.009.572 2.022 1.194 2.716 2.002 1.51 1.761 2.056 3.039 1.841 4.06-.216 1.024-1.168 1.634-2.164 2.142-.292.15-.592.292-.893.435-.779.37-1.566.745-2.247 1.246-.918.676-1.587 1.55-1.655 2.896-.242 4.806 2.226 7.336 4.715 9.889.461.472.923.946 1.368 1.435.694.76 1.07 1.444 1.175 2.047.067.382.024.725-.105 1.019zm24.2-28.804c.235-.885.353-1.722.323-2.482-.12-2.989-1.616-4.914-3.515-6.03-1.915-1.123-4.244-1.423-5.986-1.124-.511.087-2.082.567-3.553 1.647-1.463 1.074-2.8 2.718-2.932 5.139-.056 1.04.363 1.84 1.068 2.426.716.595 1.735.975 2.86 1.125a8.56 8.56 0 002.051.021 5.717 5.717 0 01-.886-.914c-.432-.567-.741-1.232-.789-1.977-.048-.749.17-1.547.74-2.368.67-.964 1.509-1.457 2.366-1.565.85-.107 1.68.17 2.33.672 1.299 1.006 1.923 2.968.568 4.74-.627.821-1.612 1.391-2.712 1.726.326.17.644.302.93.39 1.829.56 3.28.575 4.435.267 1.139-.304 2.016-.926 2.703-1.693zm-8.823.581c.158-.035.315-.074.469-.119 1.062-.306 1.954-.828 2.493-1.533 1.113-1.457.614-3.034-.454-3.86-.534-.414-1.198-.627-1.858-.544-.654.082-1.341.459-1.922 1.296-.5.722-.667 1.381-.63 1.97.039.591.285 1.142.662 1.636.34.445.778.834 1.24 1.154zm-5.87 1.763a13.661 13.661 0 00-.66-1.307c.095.214.219.47.37.762.089.171.186.353.29.545zm-.884-1.829c.006-.01.007-.011.003-.007 0 .003-.002.005-.003.007zm-.155.029zM26.74 14.717c.362.81.912 1.586 1.678 2.288 3.271 2.998 6.25 2.003 7.023.646a1.47 1.47 0 00.178-1.06c-.079-.354-.307-.723-.752-1.058-.9-.678-2.658-1.19-5.617-1.057-.955.042-1.788.125-2.51.241z" fill="#C7000B"/></svg>