<svg width="60" height="60" fill="none" xmlns="http://www.w3.org/2000/svg"><path fill-rule="evenodd" clip-rule="evenodd" d="M51.334 32.171a2.006 2.006 0 01-1.912 1.355c-.721 0-1.021.9-.437 1.313.704.5.999 1.384.73 2.192-.223.67.562 1.226 1.146.812.704-.499 1.658-.499 2.363 0 .583.414 1.369-.143 1.146-.812a1.933 1.933 0 01.73-2.191c.584-.414.283-1.314-.438-1.314-.87 0-1.642-.547-1.911-1.355-.223-.669-1.194-.669-1.417 0zm2.018-.19c-.412-1.238-2.207-1.238-2.62 0a1.375 1.375 0 01-1.31.928c-1.334 0-1.889 1.665-.81 2.43.483.342.685.948.501 1.501-.412 1.238 1.04 2.267 2.12 1.502a1.406 1.406 0 011.619 0c1.08.765 2.532-.264 2.12-1.502a1.325 1.325 0 01.5-1.501c1.079-.765.524-2.43-.81-2.43a1.374 1.374 0 01-1.31-.928z" fill="#C7000B"/><path fill-rule="evenodd" clip-rule="evenodd" d="M52.042 42.226c4.046 0 7.325-3.198 7.325-7.144 0-3.945-3.28-7.144-7.325-7.144-4.046 0-7.325 3.199-7.325 7.144 0 3.946 3.28 7.144 7.325 7.144zm0 .617c4.395 0 7.958-3.475 7.958-7.76 0-4.287-3.563-7.762-7.958-7.762s-7.958 3.475-7.958 7.761 3.563 7.761 7.958 7.761z" fill="#C7000B"/><path fill-rule="evenodd" clip-rule="evenodd" d="M44.89 4.043c-1.663-2.549-4.381-4.12-6.903-3.114-2.904 1.158-4.722 2.67-6.858 4.446-.212.175-.426.354-.645.534 1.258.67 2.05 1.719 2.558 2.828.52 1.135.75 2.347.88 3.311.465.102.857.452 1.154.926.088-.127.188-.247.304-.354.34-.314.788-.507 1.36-.522a295.16 295.16 0 018.556-.08c1.7-2.238 1.222-5.479-.406-7.976zm1.17 7.976c1.605-2.491.984-5.823-.636-8.308-1.726-2.646-4.727-4.53-7.676-3.353-3.004 1.198-4.9 2.775-7.036 4.552-.281.234-.566.471-.859.712-1.43-.56-3.36-.784-5.221-.12-.238-.215-.51-.475-.816-.768-.177-.169-.365-.349-.564-.536a31.34 31.34 0 00-2.065-1.81c-1.5-1.184-3.281-2.255-5.072-2.296-4.394-.1-6.893 2.499-7.907 5.365-.505 1.427-.646 2.93-.475 4.216.126.944.426 1.803.905 2.425H3.69c-2.038 0-3.69 1.61-3.69 3.598v2.53h.633v-2.53c0-1.646 1.368-2.982 3.057-2.982h11.423c.986 0 1.75.051 2.34.159.59.107.986.269 1.258.475.088.067.166.14.234.223-.18.49-.294 1.105-.294 1.866 0 1.19.047 2.17.118 2.88.036.354.078.647.125.867.023.11.05.207.079.289a.65.65 0 00.144.245.369.369 0 00.503.017.588.588 0 00.158-.26c.055-.162.098-.41.133-.73.072-.654.119-1.697.119-3.186 0-.812-.071-1.507-.374-2.055.045-.093.092-.178.14-.254.267-.424.556-.583.695-.616H33.64c.316 0 .7.25 1.022.885.025.048.049.098.072.15l-.029.086c-.263.825-.262 1.79-.262 2.394v.016c0 1.218.046 2.133.118 2.746.036.305.079.547.13.719a.954.954 0 00.113.255c-5.023.006-10.13.009-14.8-.003-5.145-.013-9.759-.043-13.145-.103-1.525-.027-2.799-.06-3.76-.1-.061-.705-.261-1.198-.572-1.5-.401-.389-.916-.396-1.325-.225-.395.165-.737.511-.854.914a.968.968 0 00.033.657c.095.221.274.406.524.546a.93.93 0 00.28.084c.1.017.227.033.375.047.241.024.552.045.927.065V56.41c0 1.987 1.65 3.6 3.69 3.591 5.044-.022 11.417-.091 13.928-.235.235-.014.418-.145.552-.301.134-.155.244-.362.34-.597a4.65 4.65 0 00.099-.27c.062.14.132.264.208.376.217.316.49.521.822.642.321.117.682.15 1.069.15h9.823c.331 0 .536-.244.66-.49.054.096.115.183.187.257a.719.719 0 00.52.233h14.25c1.882 0 3.475-1.396 3.428-3.271-.008-.316-.018-.636-.028-.962a72.812 72.812 0 01-.05-2.381c0-.206-.033-.401-.132-.561a.665.665 0 00-.46-.307 1.238 1.238 0 00-.527.04 3.629 3.629 0 00-.555.205c-.366.165-.79.398-1.232.642l-.075.04c-.476.262-.98.537-1.49.774a.402.402 0 01-.429-.041.485.485 0 01-.181-.44c.027-.278.053-.558.076-.839a1.605 1.605 0 001.953.094l2.245-1.556a.97.97 0 011.038-.04l2.97 1.739c1.054.616 2.395-.124 2.395-1.323V40.782h-.633v10.796c0 .72-.804 1.164-1.437.794l-2.97-1.738a1.615 1.615 0 00-1.73.065l-2.245 1.556c-.6.415-1.429.037-1.484-.673l-.012-.152c.133-2.15.155-4.284.11-5.99-.029-1.13-.087-2.078-.163-2.725a5.182 5.182 0 00-.13-.759.766.766 0 00-.122-.262.361.361 0 00-.542-.038.561.561 0 00-.137.258 1.96 1.96 0 00-.048.272 8.206 8.206 0 00-.042.778c-.01.625.011 1.465.052 2.413.08 1.838.235 4.103.388 6.057a55.594 55.594 0 01-.162 2.01c-.04.4.133.764.422.984.292.223.699.294 1.089.113a25.363 25.363 0 001.53-.793l.063-.035c.454-.25.856-.47 1.198-.624.178-.08.33-.138.455-.17a.626.626 0 01.247-.029c.025.005.027.01.033.018v.001c.015.024.042.091.042.242 0 .853.026 1.654.05 2.411.01.324.02.639.028.947.037 1.488-1.227 2.64-2.796 2.64h-14.25s-.019.002-.06-.041a.9.9 0 01-.163-.278 3.574 3.574 0 01-.178-.62l.027-.164c.154-.993.24-2.47.287-4.418.064-2.693.055-6.32.042-10.879-.005-2.044-.011-4.277-.011-6.696 0-5.46-.086-9.383-.208-11.901-.062-1.257-.132-2.17-.208-2.75a4.112 4.112 0 00-.123-.655.855.855 0 00-.045-.114.46.46 0 00-.09-.128l-.001-.002c2.906-.003 5.798-.008 8.575-.013 3.253-.006 6.348-.011 9.124-.014v6.967h.633v-6.988c1.123-.15 1.989-1.09 1.989-2.228V15.61c0-1.95-1.593-3.543-3.597-3.562a703.87 703.87 0 00-4.318-.029zm-12.903 8.485c-3.91.004-7.837.005-11.536-.002.05.03.082.066.1.088.034.044.056.09.07.123.05.127.088.332.12.582.068.522.13 1.388.182 2.62.105 2.468.175 6.437.175 12.138v.003c0 4.065 0 9.895-.233 14.723-.117 2.413-.293 4.587-.558 6.17-.025.149-.051.294-.078.434.11.594.252.986.43 1.246.145.21.313.333.519.409.216.078.488.11.847.11h9.813c.015-.01.06-.048.121-.182.076-.164.148-.41.212-.751a9.315 9.315 0 01-.078-.476c-.137-1-.168-2.2-.188-3.004-.197-7.978-.31-14.912-.355-17.597l-.018-1.08c-.093-4.762-.078-8.512-.002-11.116.038-1.301.091-2.32.154-3.038.03-.358.065-.646.102-.86.018-.106.038-.2.06-.276a.652.652 0 01.116-.237.391.391 0 01.025-.027zm.516 32.791c.056-2.65.047-6.157.035-10.533-.006-2.047-.011-4.282-.011-6.71 0-5.454-.086-9.367-.208-11.87a67.662 67.662 0 00-.072-1.265 73.96 73.96 0 00-.085 2.043c-.075 2.591-.091 6.33.002 11.087.004.17.01.54.019 1.082.041 2.526.144 8.8.32 16.166zm-.5-32.398h.001s-.001-.001 0 0zm-.171 38.254l.003-.002a.012.012 0 01-.003.002zm-11.854-4.663c.106-1.124.19-2.39.255-3.738.232-4.813.232-10.63.232-14.697 0-5.698-.07-9.657-.174-12.112a78.91 78.91 0 00-.033-.698 94.297 94.297 0 00-.105 2.095c-.104 2.612-.174 6.26-.174 10.715 0 3.634-.018 6.706-.033 9.303-.024 4.13-.041 7.059.032 9.132zm.534-33.545v-.002.002m-.48-.003v-.002.002zm.064-.438l-1.264-.003c-5.145-.013-9.763-.043-13.154-.103a167.33 167.33 0 01-3.729-.1V56.41c0 1.647 1.368 2.981 3.055 2.974 5.05-.022 11.404-.091 13.894-.234.001 0 .009 0 .025-.01a.338.338 0 00.08-.072c.071-.083.152-.22.235-.426.126-.312.242-.737.348-1.263a16.037 16.037 0 01-.177-1.6c-.144-2.114-.125-5.4-.096-10.465.015-2.594.033-5.653.033-9.26 0-4.46.07-8.117.175-10.739.053-1.31.114-2.365.18-3.132.034-.384.068-.699.104-.94.033-.228.073-.426.127-.547a.468.468 0 01.081-.126.373.373 0 01.083-.067zm-18.805-.854c-.061-.57-.222-.879-.38-1.032-.178-.172-.401-.19-.63-.095-.242.101-.436.313-.494.514a.367.367 0 00.008.252c.03.071.098.159.243.242.003 0 .028.008.088.019.078.013.186.027.327.04.216.022.496.041.838.06zm32.993.236l6.772-.011c3.377-.006 6.585-.012 9.443-.014.924 0 1.673-.731 1.673-1.632V15.61c0-1.616-1.318-2.93-2.97-2.945-1.581-.016-3.371-.026-4.92-.03-3.458-.01-6.18.013-8.695.08-.423.01-.72.148-.941.352a1.757 1.757 0 00-.403.595c.258.676.408 1.53.408 2.503 0 1.188-.047 2.095-.118 2.712a4.827 4.827 0 01-.13.728 1.076 1.076 0 01-.12.279zm-.344-4.85c-.034.408-.035.805-.035 1.13 0 .813.021 1.482.056 2.01.035-.53.057-1.2.057-2.01a7.85 7.85 0 00-.078-1.13zm-14.33-3.017h12.5c-.13-.92-.35-2.014-.815-3.028-.522-1.14-1.344-2.161-2.681-2.727-1.372-.581-3.294-.824-5.104-.118a6.148 6.148 0 00-2.393 1.676c-.781.902-1.443 2.235-1.506 4.197zm-.634.084c.047-2.154.768-3.652 1.657-4.679a6.724 6.724 0 012.193-1.657c-.195-.181-.409-.385-.637-.603-.174-.167-.357-.342-.547-.52a30.714 30.714 0 00-2.023-1.774C19.305 1.696 17.666.745 16.1.708c-4.061-.092-6.35 2.28-7.294 4.95-.474 1.34-.604 2.747-.446 3.935.154 1.15.568 2.041 1.142 2.505h5.61c1.004 0 1.81.05 2.457.168.645.118 1.15.306 1.53.595.046.035.09.071.132.108l.026-.042c.263-.417.586-.694.889-.826zm-.805 2.491a5.886 5.886 0 00-.057.845c0 .893.027 1.661.07 2.279.027-.566.043-1.28.043-2.157 0-.372-.016-.692-.056-.967z" fill="#C7000B"/></svg>