<svg width="60" height="56" fill="none" xmlns="http://www.w3.org/2000/svg"><path fill-rule="evenodd" clip-rule="evenodd" d="M16.817 13.1l-.001.035c-.012.418-.04.802-.08 1.157a3 3 0 01.75.419c.582.447.997 1.12 1.151 2.014.221 1.282-.218 2.505-.956 3.392-.735.883-1.79 1.464-2.841 1.427-.775.008-2.462.006-4.16.003l-2.464-.003c-.647 0-1.07.122-1.324.28-.248.154-.328.335-.33.486-.006.313.353.757 1.078.757h7.107c.504 0 .902.146 1.177.392.276.246.411.581.403.92-.017.69-.612 1.297-1.58 1.297h-7.3c-.702 0-1.006.428-1.015.789a.679.679 0 00.221.519c.155.143.41.258.795.258h.007c.736.023 2.51.013 3.805.005.498-.003.926-.005 1.196-.005.414 0 .738.145.946.395.206.247.275.566.238.87a1.368 1.368 0 01-1.39 1.203H7.832c-.615 0-1.1.466-1.1 1.029v3.64c0 .668.036 1.23.138 1.646.104.426.257.626.434.692.185.07.504.036 1.043-.294.529-.324 1.215-.9 2.098-1.797l.002-.002.002-.002c.13-.125.81-.825 1.82-1.867 1.064-1.096 2.494-2.57 4.035-4.148 2.998-3.07 6.407-6.527 8.307-8.321a3.215 3.215 0 011.975-.874c.783-.048 1.622.224 2.366.99.676.696 1.286 1.37 1.807 1.946l.147.162c.557.614.992 1.089 1.294 1.347.366.314.742.596 1.158.668.39.068.869-.043 1.46-.652 1.26-1.297 6.12-6.443 8.408-8.87.067-.104.148-.282.172-.483a.788.788 0 00-.169-.614c-.177-.217-.43-.489-.69-.755-.495-.506-.286-1.4.41-1.581l4.815-1.259c.66-.172 1.26.444 1.088 1.12l-1.331 5.261c-.175.689-1.014.921-1.504.416l-.361-.373a1.041 1.041 0 00-1.514.01l-8.977 9.541-.052.053c-.3.312-.729.755-1.286.914-.628.18-1.347-.013-2.168-.858-.465-.48-.988-1.025-1.505-1.564-1.013-1.058-2.004-2.093-2.489-2.55-.216-.205-.488-.455-.825-.537-.308-.075-.725-.02-1.258.53-.927.953-9.442 9.796-13.584 14.098l-.003.003-.003.003a3.148 3.148 0 00-.443.535c-.127.2-.198.379-.205.518a.308.308 0 00.028.158.34.34 0 00.13.133c.153.096.443.177.954.177h5.863c.274 0 .51 0 .718-.023.225-.025.394-.075.523-.163.242-.165.444-.535.444-1.516v-4.674c0-1.151.911-2.084 2.035-2.084 1.123 0 2.034.933 2.034 2.084v5.493c0 .427.339.774.756.774a.766.766 0 00.756-.774v-8.802c0-1.24.982-2.246 2.193-2.246 1.21 0 2.193 1.006 2.193 2.246v9.18c0 .279.22.505.492.505a.499.499 0 00.493-.505v-3.16c0-1.21.958-2.192 2.14-2.192 1.182 0 2.14.981 2.14 2.192v2.998c0 .368.291.667.65.667.36 0 .652-.299.652-.667v-7.283c0-1.3 1.028-2.354 2.297-2.354 1.27 0 2.298 1.054 2.298 2.354v7.283c0 .368.292.667.651.667.36 0 .65-.299.65-.667V24.526c0-1.24.983-2.246 2.193-2.246 1.211 0 2.193 1.006 2.193 2.246v12.288c0 .6.474 1.085 1.059 1.085l3.156-.007v.5l-3.156.007c-.855 0-1.548-.71-1.548-1.585V24.526c0-.964-.763-1.745-1.704-1.745-.94 0-1.704.781-1.704 1.745v12.706c0 .645-.51 1.167-1.139 1.167-.63 0-1.14-.522-1.14-1.167v-7.283c0-1.024-.81-1.854-1.809-1.854-.999 0-1.809.83-1.809 1.854v7.283c0 .645-.51 1.167-1.14 1.167-.629 0-1.139-.522-1.139-1.167v-2.998c0-.934-.739-1.692-1.65-1.692-.913 0-1.652.758-1.652 1.692v3.16a.994.994 0 01-.982 1.005.994.994 0 01-.981-1.005v-9.18c0-.964-.763-1.745-1.704-1.745s-1.704.781-1.704 1.745v8.802c0 .704-.557 1.275-1.245 1.275-.687 0-1.244-.571-1.244-1.275v-5.493c0-.875-.693-1.584-1.546-1.584-.854 0-1.546.71-1.546 1.584v4.674c0 1.014-.202 1.62-.662 1.933-.222.15-.479.214-.74.243-.238.027-.5.026-.767.026h-5.868c-.543 0-.942-.082-1.21-.25a.833.833 0 01-.31-.332.819.819 0 01-.08-.414c.014-.268.139-.536.284-.764.149-.232.336-.449.512-.62 4.143-4.304 12.656-13.144 13.583-14.099.625-.643 1.209-.787 1.718-.663.47.114.826.45 1.032.645l.011.01c.494.467 1.503 1.52 2.524 2.585.513.536 1.03 1.075 1.486 1.545.742.765 1.287.844 1.69.729.428-.122.773-.478 1.095-.81l.026-.026.001-.002 8.972-9.535a1.522 1.522 0 012.213-.016l.361.374c.223.23.604.123.684-.19l1.331-5.26c.078-.308-.194-.588-.494-.51l-4.816 1.259c-.31.08-.425.497-.185.742.263.27.528.553.72.788.263.322.316.686.279.996a1.692 1.692 0 01-.267.724l-.01.016-.014.014c-2.28 2.42-7.162 7.587-8.427 8.89-.672.693-1.303.895-1.889.794-.56-.097-1.026-.466-1.39-.778-.33-.284-.79-.786-1.338-1.391l-.147-.162c-.521-.576-1.126-1.243-1.796-1.933-.646-.666-1.349-.883-1.99-.844-.649.04-1.25.343-1.673.743-1.891 1.785-5.293 5.235-8.293 8.307a1860.26 1860.26 0 00-4.007 4.12 236.126 236.126 0 01-1.855 1.903c-.892.906-1.61 1.514-2.189 1.868-.568.349-1.06.487-1.463.335-.412-.155-.624-.57-.74-1.04-.116-.479-.152-1.093-.152-1.768v-3.64c0-.88.746-1.53 1.589-1.53h4.418c.546 0 .859-.387.905-.764a.628.628 0 00-.124-.483c-.1-.119-.276-.22-.575-.22-.263 0-.684.003-1.177.006-1.294.007-3.087.018-3.835-.006-.478 0-.858-.145-1.12-.387a1.185 1.185 0 01-.38-.902c.016-.672.576-1.277 1.504-1.277h7.299c.761 0 1.082-.447 1.091-.81a.681.681 0 00-.235-.53c-.167-.15-.443-.268-.856-.268H7.64c-.881 0-1.579-.568-1.567-1.267.006-.354.203-.68.566-.905.357-.222.879-.352 1.577-.352.75 0 1.613 0 2.471.002 1.7.003 3.383.006 4.153-.002h.012c.868.032 1.793-.453 2.457-1.251.66-.795 1.038-1.87.847-2.981-.134-.779-.487-1.336-.962-1.7a2.489 2.489 0 00-.531-.311 7.249 7.249 0 01-.257 1.054c-.696 2.79-4.107 5.015-7.42 3.604-2.498-1.065-3.447-3.577-3.037-5.798.411-2.23 2.193-4.186 5.13-4.14.31.004.55.267.55.575v3.576c0 .224.171.402.382.407.922.02 1.999 0 2.725-.012.3-.005.539-.009.683-.009.287 0 .57.03.84.09.027-.243.047-.504.06-.782l-3.254-.155a.908.908 0 01-.854-.916c0-.766 0-1.69.012-2.423.006-.366.015-.688.03-.92.006-.116.015-.216.025-.29a.73.73 0 01.024-.112.329.329 0 01.037-.08.256.256 0 01.196-.117c1.096-.077 1.929.132 2.557.52.627.388 1.029.942 1.284 1.518.49 1.104.453 2.32.441 2.708zm-.624 1.546a3.353 3.353 0 00-.774-.087c-.132 0-.362.004-.652.009-.726.012-1.835.03-2.766.011-.485-.01-.86-.418-.86-.907v-3.575c0-.044-.034-.076-.069-.076C8.394 9.98 6.8 11.74 6.43 13.754c-.373 2.021.489 4.281 2.745 5.243 3.023 1.288 6.139-.756 6.761-3.274l.003-.01.003-.01c.101-.306.187-.656.252-1.057zM12.75 8.842a22.625 22.625 0 00-.039 1.039c-.012.728-.012 1.647-.012 2.413 0 .223.172.406.389.417l3.245.155c.006-.498-.028-1.426-.401-2.268-.225-.506-.567-.971-1.093-1.296-.493-.305-1.166-.497-2.089-.46z" fill="#C7000B"/><path fill-rule="evenodd" clip-rule="evenodd" d="M59.575 2.88C59.554 1.282 58.285 0 56.725 0H5.033a2.84 2.84 0 00-2.484 1.487C1.117 1.64 0 2.882 0 4.39v35.28c0 1.14.637 2.126 1.567 2.607.19 1.42 1.38 2.518 2.823 2.518h18.624c1.482 0 2.56 2.47 2.175 3.935-.265 1.008-1.156 2.736-2.175 2.736h-2.552c-1.223 0-2.214 1.015-2.214 2.267S19.24 56 20.462 56H39.19c1.223 0 2.214-1.015 2.214-2.267s-.991-2.267-2.214-2.267h-2.307c-1.08 0-2.008-1.813-2.212-2.9-.268-1.423.797-3.77 2.212-3.77h19.246c1.564 0 2.833-1.29 2.85-2.887a2.943 2.943 0 001.02-2.28l-.424-36.75zM58.491 41.66v-3.806h.489v3.344c.339-.425.54-.97.531-1.562l-.424-36.75C59.069 1.562 58.017.5 56.725.5H5.033c-.773 0-1.46.38-1.891.97H55.2c1.574 0 2.85 1.307 2.85 2.92v31.073c0 1.613-1.276 2.92-2.85 2.92l-7.322.015v-.5l7.322-.016c1.304 0 2.362-1.083 2.362-2.419V4.39c0-1.336-1.058-2.419-2.362-2.419H2.86a2.463 2.463 0 00-.188.902l-.643 38.955v.11c.256.098.533.151.821.151h54.3c.498 0 .96-.158 1.341-.428zm-.03.602c-.181 1.152-1.156 2.032-2.332 2.032H36.883c-1.722 0-3.017 2.634-2.692 4.366.248 1.322 1.377 3.305 2.692 3.305h2.307c.953 0 1.725.791 1.725 1.767 0 .976-.772 1.767-1.725 1.767H20.462c-.953 0-1.725-.791-1.725-1.767 0-.976.772-1.767 1.725-1.767h2.552c1.24 0 2.325-1.88 2.647-3.105.47-1.785-.843-4.566-2.647-4.566H4.39c-1.1 0-2.02-.769-2.285-1.806.238.065.487.1.745.1h54.3c.473 0 .919-.117 1.31-.326zm-56.918-.578A2.433 2.433 0 01.489 39.67V4.39c0-1.148.78-2.11 1.828-2.357-.082.262-.128.54-.134.83l-.64 38.822z" fill="#C7000B"/></svg>