<svg width="325" height="155" fill="none" xmlns="http://www.w3.org/2000/svg"><path d="M82.582 7.617a7.645 7.645 0 00-1.758.977c-.52.39-1.107.781-1.758 1.172h-1.172c-1.041 0-2.083-.26-3.125-.782-1.041-.52-1.562-1.432-1.562-2.734v-.781c.13-.26.195-.521.195-.782 0-.13-.13-.585-.39-1.367a6.916 6.916 0 012.148-1.172 5.598 5.598 0 012.54-.586c1.04 0 1.952.196 2.734.586 1.172 1.433 1.888 3.256 2.148 5.47zm.977 21.094c-.912.52-1.758.977-2.54 1.367-.78.39-1.692.586-2.734.586a52.38 52.38 0 01-2.539-1.367c-.781-.521-1.172-1.302-1.172-2.344 0-.65.195-1.302.586-1.953.521-.651.977-1.107 1.367-1.367l-.39-.977c.39.13.976.196 1.757.196h.782c.39-.13.716-.196.976-.196.651 0 1.302.196 1.954.586.65.26 1.302.456 1.953.586v4.883zm-17.383-7.813v1.563c-1.172 1.823-2.865 2.734-5.078 2.734h-1.172c-.651-.52-1.302-1.172-1.953-1.953-.521-.781-.782-1.562-.782-2.344 0-.911.391-1.562 1.172-1.953l.39-1.562h1.368c.39 0 .781-.065 1.172-.195.39-.13.781-.196 1.172-.196 1.041 0 1.888.456 2.539 1.367.781.782 1.172 1.628 1.172 2.54zm17.968 24.805c-.13 1.432-.39 2.474-.78 3.125-.261.651-.847 1.497-1.758 2.54l-.977-.587c-.26 0-.586.13-.977.39-.26.131-.586.196-.976.196-.912 0-1.693-.456-2.344-1.367-.52-.911-1.107-1.693-1.758-2.344.39-.39.651-.781.782-1.172 0-.26-.196-.716-.587-1.367.912-.52 1.368-.846 1.368-.976.13-.26.455-.716.976-1.368h1.368c.39-.13.846-.195 1.367-.195.911 0 1.562.13 1.953.39.39.131.65.326.781.587.26.26.456.586.586.976.13.39.456.782.976 1.172zm-.39 21.484c0 1.042-.26 1.889-.781 2.54-.521.52-1.042 1.106-1.563 1.757-.65-.26-1.107-.39-1.367-.39H77.504c-.39-.26-.912-.651-1.563-1.172-.65-.651-.976-1.237-.976-1.758 0-.26.13-.781.39-1.562 0-.13-.065-.26-.195-.391v-.586c0-.39.065-.716.196-.977l1.953-.78c.78-.391 1.562-.587 2.343-.587.912 0 1.823.456 2.735 1.367.911.782 1.367 1.628 1.367 2.54zM52.114 42.97c0 .781-.652 1.627-1.954 2.539-1.302.781-2.278 1.172-2.93 1.172-.52 0-.976-.065-1.367-.196-.26-.13-.65-.13-1.172 0-.26-.911-.65-1.497-1.172-1.757-.39-.391-.585-1.107-.585-2.149 0-.65.13-1.237.39-1.758l1.172-1.953.781.196c.26-.13.586-.26.977-.391.39-.13.781-.195 1.172-.195 1.172 0 2.213.455 3.125 1.367 1.041.781 1.562 1.823 1.562 3.125zm51.562 66.015a43.127 43.127 0 00-2.539 1.563c-.782.391-1.693.586-2.735.586-1.171 0-2.409-.456-3.71-1.367 0-.521-.066-.977-.196-1.368v-1.562c0-1.042.456-2.018 1.367-2.93.912-.911 1.888-1.367 2.93-1.367 1.042 0 1.953.391 2.734 1.172a16.71 16.71 0 012.149 2.148c-.13.261-.261.586-.391.977-.13.26-.195.586-.195.976l.586 1.172zM83.949 88.086c0 .39-.13.977-.39 1.758-1.433 1.432-3.19 2.148-5.274 2.148a26.541 26.541 0 00-1.758-.976c-.52-.391-1.041-.912-1.562-1.563v-2.148c0-1.302.26-2.019.781-2.149.52-.26 1.107-.846 1.758-1.758h1.562c.651 0 1.237.13 1.758.391l1.953.781c.26.651.521 1.237.782 1.758.26.521.39 1.107.39 1.758zM39.027 61.133l-.39 1.953c0 .52-.13 1.107-.39 1.758-.652.39-1.433.846-2.345 1.367-.78.52-1.497.781-2.148.781a2.856 2.856 0 01-1.758-.586c-.52-.39-.911-.781-1.172-1.172h-.781c0-1.041.065-2.083.195-3.125.26-1.172.521-2.278.782-3.32.65 0 1.237-.065 1.757-.195a9.93 9.93 0 011.953-.196c.521 0 1.172.13 1.954.391l.586 1.758c.13.39.716.586 1.757.586zm44.141 46.875c0 .911-.13 1.497-.39 1.758-.261.26-.522.781-.782 1.562l-1.562.391c-.391.13-.912.195-1.563.195-.26 0-.586-.065-.977-.195-.39-.13-.716-.196-.976-.196-.39-.651-.912-1.106-1.563-1.367-.52-.26-.976-.651-1.367-1.172.13-.26.196-.455.196-.586l.39-.781c-.13-.26-.26-.456-.39-.586-.13-.13-.26-.325-.391-.586l3.906-2.539c1.693.13 3.32.521 4.883 1.172.39 1.042.586 2.018.586 2.93zm-17.188-1.953c-.13.651-.26 1.367-.39 2.148-.13.651-.326 1.302-.586 1.953-1.302.521-2.474.782-3.516.782a9.929 9.929 0 01-2.734-.391c-.781-.391-1.432-1.042-1.953-1.953.13-1.953.65-3.776 1.562-5.469.782-.26 1.498-.391 2.149-.391 2.604 0 4.427 1.107 5.469 3.321zm17.774 24.609c-.781.781-1.628 1.302-2.54 1.563-.91.13-1.887.26-2.929.39-.65-.39-1.172-.781-1.562-1.172-.391-.39-.912-.716-1.563-.976v-2.149c0-.651.326-1.432.977-2.343.52-.261 1.106-.586 1.757-.977.652-.391 1.303-.586 1.954-.586.78 0 1.432.195 1.953.586.65.26 1.302.651 1.953 1.172v4.492zm-59.375-47.07c0 1.302-.651 2.278-1.953 2.93-1.172.52-2.344.78-3.516.78-.781 0-1.693-.39-2.734-1.171-.26-.521-.521-.977-.781-1.367a7.261 7.261 0 01-.196-1.758c0-1.302.26-2.018.781-2.149.521-.26.912-.911 1.172-1.953h1.953c.912 0 1.693.065 2.344.196.781.13 1.498.52 2.149 1.171.26.651.455 1.237.586 1.758.13.39.195.912.195 1.563zm22.656 21.679c-.13 1.693-.52 3.125-1.172 4.297-.52 1.042-1.758 1.563-3.71 1.563-.912 0-1.693-.326-2.344-.977-.651-.651-1.107-1.367-1.368-2.148.13-.391.196-.781.196-1.172v-1.367c0-.651.455-1.237 1.367-1.758 1.042-.651 1.888-.977 2.539-.977 1.042 0 1.823.326 2.344.977.52.651 1.237 1.172 2.148 1.562zm36.524 45.313c-.521.521-1.172 1.042-1.953 1.562-.652.521-1.368.782-2.149.782-1.302 0-2.409-.456-3.32-1.368-.781-.781-1.433-1.757-1.953-2.929a43.142 43.142 0 001.953-2.539c.65-1.042 1.562-1.563 2.734-1.563 2.083 0 3.32.586 3.711 1.758.52 1.172.846 2.604.977 4.297zm-54.883-43.945c0 1.302-.521 2.343-1.563 3.125-1.041.781-2.148 1.172-3.32 1.172a2.86 2.86 0 01-1.758-.586 4.302 4.302 0 00-1.758-.782c0-.651-.065-1.302-.195-1.953v-2.148l2.148-2.149c.391 0 .782.065 1.172.196h1.172c.26 0 .521-.131.781-.391.26-.391.456-.651.586-.781.391.521.717 1.041.977 1.562.39.391.846.782 1.367 1.172.26.781.39 1.302.39 1.563zM9.34 107.812a34.866 34.866 0 01-2.149 2.344c-.65.651-1.497.977-2.539.977-1.041 0-2.083-.326-3.125-.977-.911-.781-1.367-1.692-1.367-2.734 0-.781.39-1.758 1.172-2.93.911-1.302 1.888-1.953 2.93-1.953.911.26 1.692.521 2.343.781.782.261 1.498.716 2.149 1.368v1.171c0 .131.065.456.195.977.26.391.39.716.39.976zM179.652 9.18a41.904 41.904 0 00-2.148 2.343c-.651.782-1.563 1.172-2.734 1.172-.912 0-1.693-.26-2.344-.78a23.786 23.786 0 01-1.953-1.759l.39-.976c0-.26-.065-.456-.195-.586V7.03c1.172-1.562 2.604-2.343 4.297-2.343.26 0 .586.065.976.195h1.172c.782.65 1.302 1.367 1.563 2.148.26.651.586 1.367.976 2.149zm12.305 15.039l-1.953 1.172c-.521.26-1.042.586-1.563.976-1.562-.13-2.604-.26-3.125-.39-.52-.26-1.302-.912-2.343-1.954.26-1.302.39-2.148.39-2.539.13-.52.521-1.302 1.172-2.343v-.977c.781 0 1.563.065 2.344.195.781 0 1.562.065 2.344.196a7.584 7.584 0 011.757 2.734c.391.912.717 1.888.977 2.93zm11.328 18.554v1.172c-1.823 1.563-3.646 2.344-5.469 2.344-.651 0-1.171-.195-1.562-.586-.391-.39-.912-.716-1.563-.976 0-1.042.131-2.344.391-3.907.391-1.562 1.107-2.539 2.148-2.93.261-.13.586-.13.977 0h.977c.26 0 .52-.13.781-.39 1.042.651 1.823 1.367 2.344 2.148.651.782.976 1.823.976 3.125zM162.074 5.078c-.26 1.432-.846 2.474-1.758 3.125-.781.521-1.888.846-3.32.977-1.172-.782-2.083-1.498-2.734-2.149-.651-.65-1.042-1.692-1.172-3.125l1.367-1.367c.26-.26.391-.911.391-1.953h4.297a8.25 8.25 0 011.562 2.148c.391.782.846 1.563 1.367 2.344zm44.531 58.594c0 1.302-.39 2.474-1.171 3.516-.651.911-1.693 1.367-3.125 1.367h-1.368a8.243 8.243 0 00-2.148-1.563c-.781-.39-1.172-1.172-1.172-2.344 0-.65.13-1.236.391-1.757.39-.651.716-1.302.976-1.953.651 0 1.237-.066 1.758-.196.521-.26 1.107-.39 1.758-.39.521 0 1.302.455 2.344 1.367 1.172.781 1.757 1.432 1.757 1.953zm-63.671-49.61c0 1.433-.521 2.8-1.563 4.102-.391.26-.976.586-1.758.977-.781.39-1.367.586-1.758.586-1.171 0-2.083-.456-2.734-1.368-.521-.911-1.107-1.692-1.758-2.343.391-.782.977-1.693 1.758-2.735.912-1.172 1.888-1.758 2.93-1.758.521 0 1.367.326 2.539.977 1.172.651 1.953 1.172 2.344 1.563zm65.039 70.704l-2.149 4.687h-1.367c-.13-.13-.26-.195-.391-.195-.26 0-.586.13-.976.39-.391.26-.716.521-.977.782-.651-.651-1.106-1.172-1.367-1.563-.26-.52-.911-.911-1.953-1.172-.521-1.302-.781-2.278-.781-2.93v-.78c.13-.261.195-.522.195-.782.651-.52 1.367-.976 2.148-1.367.782-.52 1.498-.781 2.149-.781.26 0 .521.065.781.195h.977c.26.13.521.195.781.195l2.93 3.32zm-2.735 21.679c0 .651-.13 1.237-.39 1.758-.261.391-.391.912-.391 1.563-1.042.52-2.083.976-3.125 1.367-.911.26-1.953.456-3.125.586-.26-.651-.651-1.433-1.172-2.344-.521-.911-.781-1.758-.781-2.539 0-.912.391-1.758 1.172-2.539.781-.912 1.627-1.367 2.539-1.367.521-.261.976-.391 1.367-.391.651 0 1.237.195 1.758.586.521.391.976.781 1.367 1.172 0 .911.26 1.627.781 2.148zM128.48 33.789a2.86 2.86 0 01-.585 1.758c-.261.39-.521.846-.782 1.367-.13.26-.13.39 0 .39s.261.13.391.391h-1.563c-.781 0-1.432.26-1.953.782-1.172-.651-2.213-1.107-3.125-1.368-.781-.39-1.172-1.432-1.172-3.125 0-1.041.456-1.953 1.368-2.734.911-.781 1.823-1.172 2.734-1.172.651 0 1.237.13 1.758.39.521.261 1.107.522 1.758.782l.781 1.172c.26.39.39.846.39 1.367zm-3.71 19.727c-.131 1.302-.326 2.278-.586 2.93-.261.52-.521.91-.782 1.171l-.781.781c-.26.13-.456.456-.586.977h-1.172l-2.343-.781a10.786 10.786 0 01-2.149-.977c-.26-1.302-.521-2.278-.781-2.93a43.079 43.079 0 001.953-2.539c.781-.911 1.693-1.367 2.734-1.367.912 0 1.823.26 2.735.782.911.52 1.497 1.171 1.758 1.953zm73.632 76.367a15.369 15.369 0 01-2.148 2.734c-.651.651-1.628.977-2.93.977a6.085 6.085 0 00-2.148-.782c-.651-.26-1.302-.651-1.953-1.171.39-1.042.455-2.149.195-3.321.521-.521.977-1.172 1.367-1.953.521-.781 1.237-1.172 2.149-1.172.651 0 1.171.065 1.562.196.521.13 1.107.325 1.758.586 1.432 1.171 2.148 2.474 2.148 3.906zm-75.195-50c0 1.432-.586 2.539-1.758 3.32a20.791 20.791 0 01-3.515 1.563c-.651-.651-1.302-1.172-1.954-1.563-.52-.39-1.041-.846-1.562-1.367.13-.781.195-1.432.195-1.953 0-.651.13-1.302.391-1.953.651-.521 1.302-.977 1.953-1.368a4.097 4.097 0 012.148-.585c.261 0 .586.065.977.195h1.172c.521.65.976 1.237 1.367 1.758.391.39.586 1.041.586 1.953zm60.352 67.578c-.912.26-1.433.521-1.563.781-.13.13-.521.456-1.172.977-.26.13-.586.195-.976.195a3.697 3.697 0 00-1.172-.195c-.391 0-.716.13-.977.39-.651-.26-1.172-.586-1.562-.976-.261-.391-.651-.847-1.172-1.367v-1.563-.976-.782c.13-.26.325-.716.586-1.367.13-.13.195-.26.195-.39.13-.131.326-.261.586-.391.521-.261 1.107-.391 1.758-.391.781-.13 1.497-.13 2.148 0 .782 0 1.367.13 1.758.391.521.13.781.391.781.781 0 .781.065 1.432.196 1.953.13.521.195 1.042.195 1.563.13.521.26.976.391 1.367zm-57.422-40.234l-1.367 1.367c-.131.26-.196.846-.196 1.758a13.68 13.68 0 00-1.953.976 4.093 4.093 0 01-2.148.586c-1.172 0-2.084-.456-2.735-1.367-.651-.912-.976-1.888-.976-2.93v-.976l.39-1.172a28.707 28.707 0 002.149-.977c.911-.39 1.692-.586 2.344-.586.26 0 .52.065.781.196l1.172.39c.26.651.586 1.172.976 1.563.521.26 1.042.651 1.563 1.172zm40.039 42.187c0 2.344-1.302 4.037-3.906 5.078-.652-.39-1.303-.651-1.954-.781s-1.302-.391-1.953-.781c0-.651-.13-1.172-.39-1.563-.131-.39-.196-.911-.196-1.562 0-.391.131-.847.391-1.367.651-.391 1.172-.782 1.562-1.172l1.563-1.172c.781.26 1.302.455 1.562.586.391.13 1.042.195 1.954.195 0 1.042.065 1.563.195 1.563s.521.325 1.172.976zm-31.055-16.602c0 .782-.26 1.498-.781 2.149a4.487 4.487 0 01-1.563 1.562c-.781.261-1.367.391-1.757.391a5.598 5.598 0 01-2.54-.586l-1.953-1.172v-.976c0-.261-.065-.521-.195-.782-.13-.26-.195-.52-.195-.781 0-1.041.39-1.758 1.172-2.148a8.55 8.55 0 001.953-1.758c.651.26 1.367.391 2.148.391.781 0 1.498.13 2.149.39.26.391.586.912.976 1.563.391.651.586 1.237.586 1.757zm12.891 16.211c0 1.433-.326 2.344-.977 2.735-.651.39-1.562.781-2.734 1.172l-2.735-.782a7.763 7.763 0 00-.976-1.171 7.728 7.728 0 00-.977-1.172l1.367-3.516a11.649 11.649 0 013.711-.586c1.042 0 2.084.326 3.125.977v1.172c.131.39.196.781.196 1.171zM303.871 7.617a7.648 7.648 0 00-1.758.977c-.521.39-1.106.781-1.758 1.172h-1.171c-1.042 0-2.084-.26-3.125-.782-1.042-.52-1.563-1.432-1.563-2.734v-.781c.13-.26.195-.521.195-.782 0-.13-.13-.585-.39-1.367a6.916 6.916 0 012.148-1.172 5.598 5.598 0 012.539-.586c1.042 0 1.953.196 2.735.586 1.172 1.433 1.888 3.256 2.148 5.47zm.977 21.094a52.58 52.58 0 01-2.539 1.367c-.782.39-1.693.586-2.735.586a52.757 52.757 0 01-2.539-1.367c-.781-.521-1.172-1.302-1.172-2.344 0-.65.196-1.302.586-1.953.521-.651.977-1.107 1.367-1.367l-.39-.977c.39.13.976.196 1.758.196h.781c.39-.13.716-.196.976-.196.651 0 1.302.196 1.954.586.651.26 1.302.456 1.953.586v4.883zm-17.383-7.813v1.563c-1.172 1.823-2.865 2.734-5.078 2.734h-1.172c-.651-.52-1.302-1.172-1.953-1.953-.521-.781-.782-1.562-.782-2.344 0-.911.391-1.562 1.172-1.953l.391-1.562h1.367c.391 0 .781-.065 1.172-.195.391-.13.781-.196 1.172-.196 1.042 0 1.888.456 2.539 1.367.781.782 1.172 1.628 1.172 2.54zm17.969 24.805c-.131 1.432-.391 2.474-.782 3.125-.26.651-.846 1.497-1.757 2.54l-.977-.587c-.26 0-.586.13-.977.39-.26.131-.586.196-.976.196-.912 0-1.693-.456-2.344-1.367-.521-.911-1.107-1.693-1.758-2.344.391-.39.651-.781.782-1.172 0-.26-.196-.716-.586-1.367.911-.52 1.367-.846 1.367-.976.13-.26.456-.716.976-1.368h1.368c.39-.13.846-.195 1.367-.195.911 0 1.562.13 1.953.39.39.131.651.326.781.587.261.26.456.586.586.976.13.39.456.782.977 1.172zm-.391 21.484c0 1.042-.26 1.889-.781 2.54a21.297 21.297 0 00-1.563 1.757c-.651-.26-1.107-.39-1.367-.39H298.793c-.391-.26-.911-.651-1.563-1.172-.651-.651-.976-1.237-.976-1.758 0-.26.13-.781.391-1.562 0-.13-.066-.26-.196-.391v-.586c0-.39.065-.716.196-.977l1.953-.78c.781-.391 1.562-.587 2.343-.587.912 0 1.823.456 2.735 1.367.911.782 1.367 1.628 1.367 2.54zM273.402 42.97c0 .781-.651 1.627-1.953 2.539-1.302.781-2.278 1.172-2.929 1.172-.521 0-.977-.065-1.368-.196-.26-.13-.651-.13-1.172 0-.26-.911-.651-1.497-1.171-1.757-.391-.391-.586-1.107-.586-2.149 0-.65.13-1.237.39-1.758l1.172-1.953.781.196a7.6 7.6 0 01.977-.391c.391-.13.781-.195 1.172-.195 1.172 0 2.213.455 3.125 1.367 1.042.781 1.562 1.823 1.562 3.125zm51.563 66.015a43.127 43.127 0 00-2.539 1.563c-.781.391-1.693.586-2.735.586-1.171 0-2.408-.456-3.711-1.367 0-.521-.065-.977-.195-1.368v-1.562c0-1.042.456-2.018 1.367-2.93.912-.911 1.888-1.367 2.93-1.367 1.042 0 1.953.391 2.734 1.172a16.71 16.71 0 012.149 2.148c-.13.261-.261.586-.391.977-.13.26-.195.586-.195.976l.586 1.172zm-19.727-20.898c0 .39-.13.977-.39 1.758-1.433 1.432-3.19 2.148-5.274 2.148a26.49 26.49 0 00-1.758-.976c-.52-.391-1.041-.912-1.562-1.563v-2.148c0-1.302.26-2.019.781-2.149.521-.26 1.107-.846 1.758-1.758h1.562c.652 0 1.237.13 1.758.391l1.953.781c.261.651.521 1.237.782 1.758.26.521.39 1.107.39 1.758zm-44.922-26.953l-.39 1.953c0 .52-.13 1.107-.391 1.758-.651.39-1.432.846-2.344 1.367-.781.52-1.497.781-2.148.781a2.857 2.857 0 01-1.758-.586c-.521-.39-.911-.781-1.172-1.172h-.781c0-1.041.065-2.083.195-3.125.261-1.172.521-2.278.782-3.32a7.25 7.25 0 001.757-.195 9.93 9.93 0 011.954-.196c.52 0 1.171.13 1.953.391l.586 1.758c.13.39.716.586 1.757.586zm44.141 46.875c0 .911-.13 1.497-.391 1.758-.26.26-.52.781-.781 1.562l-1.562.391c-.391.13-.912.195-1.563.195-.26 0-.586-.065-.976-.195-.391-.13-.717-.196-.977-.196-.391-.651-.911-1.106-1.562-1.367-.521-.26-.977-.651-1.368-1.172.131-.26.196-.455.196-.586l.39-.781c-.13-.26-.26-.456-.39-.586-.131-.13-.261-.325-.391-.586l3.906-2.539c1.693.13 3.321.521 4.883 1.172.391 1.042.586 2.018.586 2.93zm-17.187-1.953a65.36 65.36 0 00-.391 2.148c-.13.651-.326 1.302-.586 1.953-1.302.521-2.474.782-3.516.782a9.926 9.926 0 01-2.734-.391c-.781-.391-1.432-1.042-1.953-1.953.13-1.953.651-3.776 1.562-5.469.782-.26 1.498-.391 2.149-.391 2.604 0 4.427 1.107 5.469 3.321zm17.773 24.609c-.781.781-1.628 1.302-2.539 1.563-.912.13-1.888.26-2.93.39-.651-.39-1.172-.781-1.562-1.172-.391-.39-.912-.716-1.563-.976v-2.149c0-.651.326-1.432.977-2.343a26.604 26.604 0 001.758-.977c.651-.391 1.302-.586 1.953-.586.781 0 1.432.195 1.953.586.651.26 1.302.651 1.953 1.172v4.492zm-59.375-47.07c0 1.302-.651 2.278-1.953 2.93-1.172.52-2.344.78-3.516.78-.781 0-1.692-.39-2.734-1.171-.261-.521-.521-.977-.781-1.367a7.22 7.22 0 01-.196-1.758c0-1.302.261-2.018.782-2.149.52-.26.911-.911 1.171-1.953h1.954c.911 0 1.692.065 2.343.196.782.13 1.498.52 2.149 1.171.26.651.455 1.237.586 1.758.13.39.195.912.195 1.563zm22.656 21.679c-.13 1.693-.521 3.125-1.172 4.297-.52 1.042-1.757 1.563-3.711 1.563-.911 0-1.692-.326-2.343-.977s-1.107-1.367-1.368-2.148c.131-.391.196-.781.196-1.172v-1.367c0-.651.456-1.237 1.367-1.758 1.042-.651 1.888-.977 2.539-.977 1.042 0 1.823.326 2.344.977.521.651 1.237 1.172 2.148 1.562zm36.524 45.313c-.521.521-1.172 1.042-1.953 1.562-.652.521-1.368.782-2.149.782-1.302 0-2.409-.456-3.32-1.368-.781-.781-1.433-1.757-1.953-2.929a43.142 43.142 0 001.953-2.539c.651-1.042 1.562-1.563 2.734-1.563 2.083 0 3.32.586 3.711 1.758.521 1.172.846 2.604.977 4.297zm-54.883-43.945c0 1.302-.521 2.343-1.563 3.125-1.041.781-2.148 1.172-3.32 1.172a2.861 2.861 0 01-1.758-.586 4.304 4.304 0 00-1.758-.782 9.95 9.95 0 00-.195-1.953v-2.148l2.149-2.149c.39 0 .781.065 1.171.196h1.172c.261 0 .521-.131.782-.391.26-.391.455-.651.585-.781a10.2 10.2 0 01.977 1.562c.391.391.846.782 1.367 1.172.261.781.391 1.302.391 1.563zm-19.336 1.171a34.67 34.67 0 01-2.149 2.344c-.651.651-1.497.977-2.539.977-1.041 0-2.083-.326-3.125-.977-.911-.781-1.367-1.692-1.367-2.734 0-.781.391-1.758 1.172-2.93.912-1.302 1.888-1.953 2.93-1.953.911.26 1.692.521 2.344.781.781.261 1.497.716 2.148 1.368v1.171c0 .131.065.456.195.977.261.391.391.716.391.976z" fill="#C7000B"/></svg>