<svg width="146" height="158" fill="none" xmlns="http://www.w3.org/2000/svg"><path fill-rule="evenodd" clip-rule="evenodd" d="M114.014 8.33c-10.023-6.575-22.35-8.596-34.477-6.583C71.575 3.068 61.43 7.85 53.431 15.56 45.44 23.264 39.626 33.855 40.224 46.8c.38 8.226 2.619 14.658 6.404 22.137 1.858 3.67 4.084 7.586 6.646 12.092l.159.28c2.627 4.62 5.598 9.854 8.867 16.052 5.948 11.28 6.475 21.512 2.849 29.153-3.63 7.649-11.368 12.582-21.686 13.366-8.188.623-26.826 1.468-29.595 1.55-3.181.094-6.075 1.013-8.312 2.359-2.246 1.352-3.785 3.106-4.336 4.838-.274.859-.304 1.711-.067 2.52.238.81.754 1.609 1.624 2.348 1.754 1.488 4.923 2.705 9.97 3.185 12.749 1.212 21.286-1.192 27.435-4.728 5.275-3.034 8.814-6.908 11.786-10.162.383-.42.757-.829 1.124-1.225a.496.496 0 01.707-.02.5.5 0 01.02.702c-.359.388-.727.791-1.106 1.206-2.97 3.254-6.62 7.252-12.04 10.369-6.347 3.651-15.093 6.084-28.019 4.855-5.13-.487-8.538-1.736-10.517-3.416-.995-.845-1.635-1.804-1.936-2.83-.301-1.025-.254-2.084.073-3.11.65-2.041 2.399-3.963 4.773-5.392 2.384-1.434 5.443-2.401 8.792-2.5 2.758-.082 21.38-.927 29.55-1.547 10.038-.763 17.417-5.537 20.864-12.801 3.451-7.272 3.018-17.159-2.83-28.25-3.26-6.182-6.225-11.404-8.852-16.025l-.166-.292c-2.556-4.495-4.793-8.43-6.662-12.122-3.824-7.557-6.123-14.131-6.511-22.545-.614-13.304 5.37-24.16 13.513-32.011C60.881 6.994 71.205 2.114 79.375.758c12.333-2.046 24.92.001 35.18 6.732 10.268 6.735 18.163 18.131 21.151 34.692 2.855 15.82 7.792 27.907 8.413 29.286.958 2.125 1.726 4.132 1.86 5.63.067.748-.015 1.465-.408 2.003-.412.563-1.076.813-1.904.813h-.001c-3.446 0-3.798 0-6.061.386-.549.094-1.402.355-2.018 1.033-.594.652-1.049 1.779-.65 3.785.661 3.332 1.046 8.008 1.171 12.518.125 4.508-.009 8.892-.399 11.639-.245 1.725-.736 4.552-2.452 6.652a7.108 7.108 0 01-3.645 2.387c-1.593.45-3.57.472-6.03-.111-3.257-.772-6.6-1.447-9.68-1.746-3.088-.3-5.864-.215-8.007.498-1.056.352-1.954.853-2.661 1.537.322.083.65.17.983.263 4.513 1.261 9.969 3.513 14.43 7.484 5.783 5.146 8.279 9.398 8.48 12.607.102 1.627-.388 2.98-1.328 4-.931 1.011-2.269 1.66-3.812 1.965-6.134 1.211-16.062-2.904-19.881-13.376-1.678-4.603-2.047-8.045-1.358-10.562.18-.656.429-1.244.741-1.768-3.233-.716-5.635-.888-6.214-.888-1.073 0-3.495-.073-6.275-.439-2.773-.365-5.94-1.025-8.481-2.217-2.527-1.185-4.57-2.967-4.804-5.631-.23-2.627 1.327-5.888 5.383-9.973 1.28-1.29 3.018-2.365 5.024-3.365 1.882-.939 4.035-1.827 6.316-2.768l.456-.189c4.916-2.03 10.413-4.349 15.362-8.02 4.938-3.662 9.33-8.67 12.018-16.082 2.692-7.42 3.69-17.283 1.778-30.672-2.383-16.685-21.942-31.888-43.576-27.432-20.038 4.128-29.277 24.017-27.26 40.453C53.6 71.311 70.107 82.638 88.679 80.083c15.041-2.069 26.839-13.373 26.839-25.817 0-6.253-2.251-10.276-4.834-12.69-1.297-1.213-2.683-2.026-3.923-2.511-1.251-.49-2.317-.634-2.976-.552l-.572.072.015-.582c.185-7.073-4.511-11.626-10.023-12.793-5.515-1.166-11.797 1.068-14.762 7.598l-.196.433-.439-.176c-1.788-.718-3.914-.625-5.641.318-1.71.933-3.056 2.714-3.282 5.448l-.045.541-.531-.089c-3.37-.564-5.8-.01-7.414 1.08-1.61 1.088-2.464 2.746-2.62 4.52-.312 3.554 2.183 7.55 7.07 8.108h24.436a.5.5 0 110 1.002h-24.49l-.028-.003c-5.464-.61-8.336-5.115-7.977-9.195.18-2.047 1.174-3.992 3.057-5.264 1.786-1.206 4.32-1.772 7.61-1.315.378-2.773 1.848-4.68 3.741-5.714 1.853-1.012 4.088-1.173 6.043-.528 3.256-6.685 9.879-8.97 15.672-7.744 5.773 1.222 10.768 5.944 10.817 13.26.81.01 1.819.22 2.895.641 1.352.53 2.846 1.409 4.238 2.71 2.794 2.612 5.152 6.905 5.152 13.425 0 13.1-12.334 24.696-27.698 26.81-19.067 2.623-36.125-9.036-38.583-29.07-2.063-16.814 7.373-37.3 28.047-41.558 22.149-4.563 42.287 10.97 44.758 28.27 1.929 13.503.935 23.542-1.828 31.159-2.766 7.624-7.292 12.784-12.363 16.545-5.06 3.754-10.665 6.113-15.573 8.14l-.445.184c-2.292.946-4.414 1.821-6.264 2.743-1.97.983-3.594 2-4.762 3.176-4.01 4.04-5.285 7.017-5.096 9.177.187 2.122 1.816 3.677 4.234 4.811 2.404 1.128 5.454 1.772 8.19 2.132 2.73.359 5.108.43 6.147.43.686 0 3.343.198 6.846 1.006.883-1.035 2.07-1.753 3.463-2.217 2.338-.777 5.276-.848 8.413-.544 3.146.305 6.54.993 9.812 1.768 2.342.555 4.144.514 5.535.121a6.105 6.105 0 003.146-2.059c1.522-1.862 1.991-4.429 2.236-6.157.378-2.664.514-6.982.39-11.47-.125-4.485-.508-9.097-1.153-12.348-.446-2.243.037-3.72.892-4.66.831-.913 1.937-1.232 2.585-1.343 2.345-.4 2.761-.4 6.227-.4.635 0 .942-.184 1.105-.406.18-.247.276-.665.218-1.319-.117-1.305-.812-3.168-1.775-5.304-.649-1.44-5.614-13.606-8.486-29.522-2.945-16.32-10.701-27.463-20.715-34.032zm-11.498 111.015a5.974 5.974 0 00-.81 1.794c-.607 2.219-.319 5.422 1.332 9.951 3.659 10.034 13.127 13.85 18.758 12.738 1.398-.276 2.524-.848 3.275-1.663.742-.806 1.151-1.884 1.065-3.256-.175-2.79-2.406-6.81-8.146-11.919-4.308-3.834-9.606-6.032-14.038-7.269-.491-.137-.97-.262-1.436-.376z" fill="#C7000B"/></svg>