<svg width="277" height="195" viewBox="0 0 277 195" fill="none" xmlns="http://www.w3.org/2000/svg">
<path d="M66.3098 64.2902L65.813 64.2776C59.8303 64.1442 54.8616 68.8808 54.7116 74.8953C54.5621 80.9098 59.2892 85.9079 65.2703 86.0588L65.8596 86.073C89.2797 86.5289 108.333 106.072 108.333 129.637C108.333 153.664 88.894 173.212 65 173.212C41.106 173.212 21.6667 153.664 21.6667 129.637C21.6667 99.6254 28.7647 71.9322 42.7651 47.3257C53.2285 28.9342 63.869 19.2196 64.0678 19.0399C68.53 15.0565 68.9493 8.18904 64.9984 3.68607C61.0393 -0.824528 54.1943 -1.25538 49.7077 2.72469C49.1839 3.18986 36.7369 14.3533 24.4844 35.5887C13.3142 54.9476 0 86.9782 0 129.637C0 165.678 29.159 195 65 195C100.841 195 130 165.678 130 129.637C130 112.402 123.387 96.14 111.381 83.8452C99.398 71.5754 83.3918 64.6312 66.3098 64.2902Z" fill="#DCDDDD"/>
<path d="M258.381 83.8451C246.397 71.5748 230.392 64.6305 213.309 64.2901L212.813 64.2776C206.85 64.1441 201.862 68.8808 201.712 74.8953C201.562 80.9098 206.289 85.9079 212.27 86.0587L212.86 86.0729C236.28 86.5293 255.333 106.072 255.333 129.637C255.333 153.664 235.894 173.212 212 173.212C188.106 173.212 168.667 153.664 168.667 129.637C168.667 99.6254 175.765 71.9316 189.765 47.3262C200.228 28.9346 210.868 19.22 211.067 19.0403C215.53 15.0564 215.949 8.18945 211.998 3.68648C208.039 -0.824667 201.194 -1.25552 196.707 2.7251C196.184 3.19026 183.736 14.3537 171.484 35.5891C160.314 54.9475 147 86.9782 147 129.637C147 165.678 176.159 195 212 195C247.841 195 277 165.678 277 129.637C277 112.402 270.387 96.1399 258.381 83.8451Z" fill="#DCDDDD"/>
</svg>
